<svg width="20" height="20" viewBox="0 0 20 20" fill="none" xmlns="http://www.w3.org/2000/svg">
<path d="M10 13.5602C9.56212 13.5609 9.12837 13.4754 8.72357 13.3084C8.31876 13.1415 7.95083 12.8964 7.6408 12.5872L2.19599 7.14234C2.0705 7.01685 2 6.84664 2 6.66917C2 6.49169 2.0705 6.32149 2.19599 6.19599C2.32149 6.0705 2.49169 6 2.66917 6C2.84664 6 3.01685 6.0705 3.14234 6.19599L8.58715 11.6408C8.96202 12.0152 9.47018 12.2255 10 12.2255C10.5298 12.2255 11.038 12.0152 11.4129 11.6408L16.8577 6.19599C16.9832 6.0705 17.1534 6 17.3308 6C17.5083 6 17.6785 6.0705 17.804 6.19599C17.9295 6.32149 18 6.49169 18 6.66917C18 6.84664 17.9295 7.01685 17.804 7.14234L12.3592 12.5872C12.0492 12.8964 11.6812 13.1415 11.2764 13.3084C10.8716 13.4754 10.4379 13.5609 10 13.5602Z" fill="#0F0F1A" stroke="#0F0F1A" stroke-width="0.6"/>
</svg>
