<svg width="40" height="40" viewBox="0 0 40 40" fill="none" xmlns="http://www.w3.org/2000/svg">
<g clip-path="url(#clip0_104_732)">
<path d="M32.7498 22.4783C33.2373 22.9658 33.5404 23.6408 33.5404 24.3854C33.5404 25.1314 33.2373 25.8049 32.7498 26.2939C32.2607 26.7814 31.5873 27.0822 30.8428 27.0822C30.0967 27.0822 29.4232 26.7814 28.9342 26.2939C28.4467 25.8049 28.1459 25.1314 28.1459 24.3854C28.1459 23.6416 28.4475 22.9658 28.9342 22.4783C29.4232 21.9908 30.0967 21.6877 30.8428 21.6877C31.5873 21.6877 32.2607 21.9908 32.7498 22.4783ZM40.0006 23.8182V24.9541C40.0006 25.2932 39.7904 25.583 39.467 25.6869L38.6607 25.9479C38.4084 26.0299 38.2287 26.2158 38.1584 26.4705C37.9981 27.0319 37.7737 27.573 37.4896 28.083C37.3615 28.3135 37.3568 28.5721 37.4764 28.8072L37.8615 29.5643C38.0162 29.865 37.9592 30.2174 37.7201 30.4588L36.9162 31.2627C36.6772 31.5018 36.3248 31.5572 36.0217 31.4041L35.2646 31.0189C35.0303 30.8971 34.7709 30.9018 34.5404 31.0322C34.0308 31.3167 33.4897 31.5403 32.9279 31.6986C32.6732 31.7721 32.4873 31.951 32.4076 32.2033L32.1443 33.0096C32.0404 33.333 31.7521 33.5408 31.4115 33.5408H30.2756C29.9365 33.5408 29.6467 33.3322 29.5428 33.0096L29.2818 32.2033C29.1998 31.951 29.0139 31.7713 28.7592 31.6986C28.1975 31.5402 27.6563 31.3165 27.1467 31.0322C26.9162 30.9041 26.6576 30.8971 26.4225 31.0189L25.6654 31.4041C25.3639 31.5572 25.0123 31.5018 24.7709 31.2627L23.967 30.4588C23.7279 30.2174 23.6725 29.865 23.8256 29.5643L24.2107 28.8072C24.3326 28.5729 24.3279 28.3135 24.1975 28.083C23.913 27.5734 23.6893 27.0322 23.5311 26.4705C23.4576 26.2158 23.2787 26.0299 23.0264 25.9479L22.2201 25.6869C21.8967 25.583 21.6889 25.2924 21.6889 24.9541V23.8182C21.6889 23.4768 21.8967 23.1893 22.2201 23.0854L23.0287 22.8221C23.2787 22.74 23.4584 22.5564 23.5311 22.3018C23.6905 21.7404 23.9141 21.1994 24.1975 20.6893C24.3279 20.4588 24.3326 20.2002 24.2107 19.965L23.8256 19.208C23.6725 18.9049 23.7279 18.5525 23.967 18.3135L24.7709 17.5096C25.0123 17.2705 25.3646 17.2127 25.6654 17.3682L26.4225 17.7533C26.6568 17.8729 26.9162 17.8682 27.1467 17.74C27.6514 17.4588 28.192 17.233 28.7592 17.0713C29.0139 17.0002 29.1998 16.8213 29.2818 16.5689L29.5428 15.7627C29.6467 15.4393 29.9373 15.2291 30.2756 15.2291H31.4115C31.7529 15.2291 32.0404 15.4393 32.1443 15.7627L32.4076 16.5689C32.4873 16.8213 32.6732 17.001 32.9279 17.0713C33.4893 17.2315 34.0304 17.4559 34.5404 17.74C34.7709 17.8682 35.0295 17.8729 35.2646 17.7533L36.0217 17.3682C36.3248 17.2135 36.6772 17.2705 36.9162 17.5096L37.7201 18.3135C37.9592 18.5525 38.017 18.9049 37.8615 19.208L37.4764 19.965C37.3568 20.1994 37.3615 20.4588 37.4896 20.6893C37.7709 21.1939 37.9967 21.7346 38.1584 22.3018C38.2295 22.5564 38.4084 22.7424 38.6607 22.8221L39.467 23.0854C39.7904 23.1893 40.0006 23.4768 40.0006 23.8182ZM34.8295 24.3854C34.8295 23.2846 34.3842 22.2885 33.6623 21.5666C32.9404 20.8447 31.9436 20.3971 30.8428 20.3971C29.7397 20.3971 28.7436 20.8447 28.0217 21.5666C27.2998 22.2885 26.8545 23.2854 26.8545 24.3854C26.8545 25.4885 27.2998 26.4846 28.0217 27.2064C28.7436 27.9283 29.7404 28.3736 30.8428 28.3736C31.9436 28.3736 32.9397 27.9283 33.6623 27.2064C34.3842 26.4846 34.8295 25.4877 34.8295 24.3854ZM22.1732 32.9158H19.3537L18.4943 30.5197H12.3443L11.4873 32.9158H8.66777C8.31152 32.9158 8.0209 33.2041 8.0209 33.5604C8.0209 33.9166 8.31074 34.2072 8.66777 34.2072H22.1725C22.5287 34.2072 22.8193 33.9174 22.8193 33.5604C22.8201 33.2033 22.5303 32.9158 22.1732 32.9158ZM20.424 23.4635H-0.000976562V7.81348C-0.000976562 6.70176 0.90918 5.79395 2.0209 5.79395H28.8217C29.9334 5.79395 30.8436 6.70176 30.8436 7.81348V13.9369H30.2748C29.3756 13.9369 28.592 14.508 28.3146 15.3635L28.135 15.9104C27.6631 16.0611 27.2045 16.2518 26.7639 16.4799L26.2498 16.2182C25.4506 15.8104 24.4912 15.9611 23.8561 16.5971L23.0522 17.401C22.4162 18.0346 22.2662 18.9932 22.6732 19.7947L22.9342 20.3088C22.7084 20.7494 22.5178 21.208 22.367 21.6799L21.8178 21.8572C21.0795 22.0971 20.5521 22.7174 20.424 23.4635ZM8.12168 14.951L12.3959 12.5635C12.7061 12.3908 12.8186 11.9986 12.6459 11.6885C12.4732 11.3783 12.0811 11.2658 11.7709 11.4385L6.4959 14.3838C6.38833 14.4433 6.29935 14.5315 6.23887 14.6385C6.06621 14.9486 6.17871 15.3408 6.48887 15.5135L11.7709 18.4635C12.0811 18.6361 12.4732 18.5252 12.6459 18.2135C12.8186 17.9033 12.7061 17.5111 12.3959 17.3385L8.12168 14.951ZM16.6678 9.51426C16.3201 9.43457 15.9748 9.65176 15.8951 9.99941L13.692 19.6174C13.6123 19.9627 13.8295 20.308 14.1748 20.3877C14.5225 20.4674 14.8678 20.2502 14.9475 19.9025L17.1506 10.2869C17.2303 9.93926 17.0131 9.59395 16.6678 9.51426ZM19.0709 18.4635L24.3529 15.5135C24.6631 15.3408 24.7756 14.9486 24.6029 14.6385C24.5427 14.5313 24.4536 14.4431 24.3459 14.3838L19.0709 11.4385C18.7607 11.2658 18.3686 11.3783 18.1959 11.6885C18.0232 11.9986 18.1357 12.3908 18.4459 12.5635L22.7201 14.951L18.4459 17.3385C18.1357 17.5111 18.0232 17.9033 18.1959 18.2135C18.3686 18.5252 18.7607 18.6361 19.0709 18.4635ZM21.8193 26.9143C20.9646 26.6377 20.3951 25.8533 20.3951 24.9541V24.7549H-0.000976562V27.2088C-0.000976562 28.3182 0.90918 29.2283 2.0209 29.2283H22.5654C22.5967 29.1439 22.6318 29.0604 22.674 28.9783L22.935 28.4643C22.7089 28.0231 22.5185 27.5646 22.3654 27.0932L21.8193 26.9143Z" fill="white"/>
</g>
<defs>
<clipPath id="clip0_104_732">
<rect width="40" height="40" fill="white"/>
</clipPath>
</defs>
</svg>
