<svg width="40" height="40" viewBox="0 0 40 40" fill="none" xmlns="http://www.w3.org/2000/svg">
<g clip-path="url(#clip0_104_715)">
<path d="M36.6666 8.33357H28.3334V6.66686C28.3334 4.8285 26.8384 3.3335 25 3.3335H15C13.1616 3.3335 11.6666 4.82842 11.6666 6.66686V8.3335H3.33336C1.49492 8.33357 3.46509e-08 9.8285 3.46509e-08 11.6669V16.6669C3.46509e-08 18.5053 1.49492 20.0002 3.33336 20.0002H16.6667V19.1669C16.6666 19.0574 16.6882 18.949 16.73 18.8479C16.7719 18.7467 16.8332 18.6548 16.9106 18.5774C16.988 18.5 17.0799 18.4386 17.1811 18.3968C17.2822 18.3549 17.3906 18.3334 17.5001 18.3335H22.5001C22.6095 18.3334 22.7179 18.3549 22.8191 18.3968C22.9202 18.4386 23.0121 18.5 23.0895 18.5774C23.1669 18.6548 23.2283 18.7467 23.2701 18.8479C23.312 18.949 23.3335 19.0574 23.3334 19.1669V20.0002H36.6668C38.5051 20.0002 40 18.5053 40 16.6669V11.6669C40 9.8285 38.5051 8.33357 36.6666 8.33357ZM25 8.33357H15V6.66686H25V8.33357ZM39.5377 20.8994C39.3988 20.8306 39.2434 20.8018 39.089 20.8163C38.9346 20.8308 38.7873 20.8881 38.6637 20.9816C38.0713 21.4301 37.3811 21.6669 36.6666 21.6669H23.3334V24.1669C23.3334 24.2763 23.3119 24.3847 23.2701 24.4859C23.2282 24.587 23.1668 24.6789 23.0894 24.7563C23.012 24.8337 22.9201 24.8951 22.819 24.9369C22.7179 24.9788 22.6095 25.0003 22.5 25.0002H17.5C17.3905 25.0003 17.2821 24.9788 17.181 24.9369C17.0799 24.8951 16.988 24.8337 16.9106 24.7563C16.8332 24.6789 16.7718 24.587 16.7299 24.4859C16.6881 24.3847 16.6666 24.2763 16.6666 24.1669V21.6669H3.33336C2.61883 21.6669 1.92875 21.4301 1.33625 20.9816C1.21293 20.8873 1.06558 20.8296 0.911015 20.8151C0.756455 20.8005 0.600923 20.8298 0.462188 20.8994C0.323328 20.9685 0.206499 21.0749 0.124846 21.2068C0.0431922 21.3387 -4.46825e-05 21.4907 3.46509e-08 21.6458L3.46509e-08 33.3336C3.46509e-08 35.1719 1.49492 36.6669 3.33336 36.6669H36.6667C38.5051 36.6669 40.0001 35.172 40.0001 33.3336V21.6458C40.0001 21.4907 39.9568 21.3386 39.8751 21.2068C39.7935 21.0749 39.6766 20.9685 39.5377 20.8994Z" fill="white"/>
</g>
<defs>
<clipPath id="clip0_104_715">
<rect width="40" height="40" fill="white"/>
</clipPath>
</defs>
</svg>
