<svg width="26" height="22" viewBox="0 0 26 22" fill="none" xmlns="http://www.w3.org/2000/svg">
<path d="M3.06593 15.9098H11.3895C11.7365 15.9098 12.0188 16.1921 12.0188 16.539C12.0188 16.8859 11.7365 17.1681 11.3895 17.1681H9.88571C8.74659 17.1681 7.81978 18.0947 7.81978 19.2336C7.81978 20.3725 8.74659 21.2992 9.88571 21.2992H22.9341C24.0732 21.2992 25 20.3726 25 19.2336C25 18.0947 24.0732 17.1681 22.9341 17.1681H15.8739C15.5269 17.1681 15.2446 16.8859 15.2446 16.539C15.2446 16.1921 15.5269 15.9098 15.8739 15.9098H16.1143C17.2535 15.9098 18.1803 14.9832 18.1803 13.8443C18.1803 12.7053 17.2535 11.7787 16.1143 11.7787H12.863C12.5159 11.7787 12.2336 11.4965 12.2336 11.1496C12.2336 10.8026 12.5159 10.5204 12.863 10.5204H20.6608C21.8 10.5204 22.7268 9.5938 22.7268 8.45485C22.7268 7.31589 21.8 6.38936 20.6608 6.38936H16.8987C16.5517 6.38936 16.2693 6.1071 16.2693 5.7602C16.2693 5.41329 16.5517 5.13103 16.8987 5.13103H16.9452C18.0843 5.13103 19.0111 4.20445 19.0111 3.06554C19.0111 1.92664 18.0843 1 16.9452 1H3.89682C2.75769 1 1.83088 1.92659 1.83088 3.06554C1.83088 4.2045 2.75769 5.13103 3.89682 5.13103H11.9335C12.2805 5.13103 12.5628 5.41329 12.5628 5.7602C12.5628 6.1071 12.2805 6.38936 11.9335 6.38936H7.61243C6.47331 6.38936 5.5465 7.31594 5.5465 8.4549C5.5465 9.59386 6.47331 10.5204 7.61243 10.5204H7.89773C8.24474 10.5204 8.52705 10.8026 8.52705 11.1496C8.52705 11.4965 8.24474 11.7787 7.89773 11.7787H3.06593C1.92681 11.7787 1 12.7053 1 13.8443C1 14.9832 1.92681 15.9098 3.06593 15.9098ZM3.06593 12.4406H7.89773C8.60974 12.4406 9.18898 11.8615 9.18898 11.1496C9.18898 10.4377 8.60974 9.85846 7.89773 9.85846H7.61243C6.83825 9.85846 6.20843 9.22881 6.20843 8.45485C6.20843 7.68089 6.83825 7.05128 7.61243 7.05128H11.9335C12.6455 7.05128 13.2248 6.4721 13.2248 5.7602C13.2248 5.04829 12.6455 4.46911 11.9335 4.46911H3.89682C3.12264 4.46911 2.49281 3.83945 2.49281 3.06554C2.49281 2.29164 3.12264 1.66193 3.89682 1.66193H16.9452C17.7193 1.66193 18.3492 2.29159 18.3492 3.06554C18.3492 3.8395 17.7193 4.46911 16.9452 4.46911H16.8987C16.1867 4.46911 15.6074 5.04829 15.6074 5.7602C15.6074 6.4721 16.1867 7.05128 16.8987 7.05128H20.6608C21.435 7.05128 22.0648 7.68094 22.0648 8.4549C22.0648 9.22886 21.435 9.85846 20.6608 9.85846H12.863C12.1509 9.85846 11.5716 10.4377 11.5716 11.1496C11.5716 11.8615 12.1509 12.4406 12.863 12.4406H16.1143C16.8885 12.4406 17.5183 13.0703 17.5183 13.8443C17.5183 14.6182 16.8885 15.2479 16.1143 15.2479H15.8739C15.1619 15.2479 14.5826 15.8271 14.5826 16.539C14.5826 17.2509 15.1619 17.8301 15.8739 17.8301H22.9341C23.7083 17.8301 24.3381 18.4597 24.3381 19.2336C24.3381 20.0075 23.7083 20.6372 22.9341 20.6372H9.88571C9.11154 20.6372 8.48171 20.0076 8.48171 19.2336C8.48171 18.4597 9.11154 17.8301 9.88571 17.8301H11.3895C12.1015 17.8301 12.6808 17.2509 12.6808 16.539C12.6808 15.8271 12.1015 15.2479 11.3895 15.2479H3.06593C2.29175 15.2479 1.66193 14.6182 1.66193 13.8443C1.66193 13.0703 2.29175 12.4407 3.06593 12.4407V12.4406Z" fill="#014EFF" stroke="#014EFF" stroke-width="0.2"/>
</svg>
