<svg width="46" height="46" viewBox="0 0 46 46" fill="none" xmlns="http://www.w3.org/2000/svg">
<path fill-rule="evenodd" clip-rule="evenodd" d="M9.5747 12.9952V16.571C9.5747 17.1372 9.11323 17.5987 8.54697 17.5987H4.9712C4.40503 17.5987 3.94356 17.1372 3.94356 16.571V12.9952C3.94356 12.4289 4.40503 11.9675 4.9712 11.9675H8.54697C9.11323 11.9675 9.5747 12.4289 9.5747 12.9952ZM26.4886 14.7356C25.77 11.281 27.3326 7.72074 30.4374 5.9249C32.9843 4.45179 36.0683 4.47084 38.5725 5.86583C38.5956 5.87871 38.6104 5.89923 38.6153 5.92527C38.6179 5.9377 38.6176 5.95056 38.6145 5.96287C38.6113 5.97517 38.6054 5.9866 38.5972 5.99629C38.2686 6.39658 38.5357 7.04003 39.09 7.04951L40.4025 7.07379L40.406 7.07398C40.9116 7.10388 41.2081 6.66495 41.0978 6.25867L40.738 4.93479C40.5777 4.34397 39.7786 4.29935 39.5295 4.81786C39.5245 4.82875 39.5172 4.83843 39.5081 4.84625C39.499 4.85407 39.4883 4.85986 39.4768 4.86322C39.4654 4.86685 39.4533 4.86797 39.4413 4.86651C39.4294 4.86505 39.418 4.86104 39.4077 4.85475C34.5074 1.95859 28.179 3.97919 25.86 9.15474C25.0481 10.9668 24.8085 13.0147 25.2213 14.9993C25.2385 15.0826 25.272 15.1617 25.3198 15.2321C25.3676 15.3024 25.4289 15.3627 25.5 15.4093C25.5711 15.456 25.6507 15.4882 25.7343 15.5041C25.8178 15.52 25.9037 15.5193 25.987 15.5019C26.0703 15.4846 26.1493 15.451 26.2196 15.4031C26.2899 15.3552 26.3501 15.294 26.3966 15.2228C26.4432 15.1516 26.4753 15.072 26.4911 14.9884C26.5069 14.9048 26.5061 14.8189 26.4886 14.7356ZM31.131 16.4375L31.1286 16.4348C31.0981 16.4011 31.0594 16.3759 31.0162 16.3619C30.973 16.3479 30.9269 16.3455 30.8825 16.3549L29.7774 16.5898C29.7596 16.5938 29.7409 16.5919 29.7242 16.5845C29.7074 16.577 29.6935 16.5644 29.6845 16.5485L29.0978 15.5324C29.0885 15.5166 29.0846 15.4983 29.0865 15.4801C29.0884 15.4618 29.0961 15.4447 29.1085 15.4313L29.8644 14.5918C29.9211 14.528 29.9455 14.4378 29.9211 14.3494C29.809 13.9459 29.7328 13.4413 29.7441 13.0221L29.7442 13.0208C29.7462 12.9758 29.7364 12.931 29.7158 12.891C29.6952 12.8509 29.6644 12.817 29.6267 12.7924L28.6802 12.1778C28.6647 12.1679 28.6528 12.1534 28.6463 12.1363C28.6397 12.1192 28.6388 12.1005 28.6437 12.0828L28.9476 10.9487C28.9522 10.9309 28.9623 10.9151 28.9765 10.9036C28.9908 10.8921 29.0083 10.8854 29.0266 10.8846L30.1386 10.8263L30.1423 10.8262C30.188 10.8258 30.2327 10.8133 30.272 10.7901C30.3113 10.7668 30.3438 10.7336 30.3661 10.6937C30.5661 10.3377 30.8829 9.90997 31.1774 9.63379L31.1787 9.63259C31.2126 9.60219 31.2379 9.56339 31.252 9.5201C31.2661 9.47682 31.2686 9.43057 31.2591 9.38603L31.0242 8.28111C31.0203 8.26324 31.0221 8.24457 31.0296 8.22784C31.037 8.21111 31.0496 8.19721 31.0655 8.18819L32.0817 7.60151C32.0974 7.59218 32.1158 7.58818 32.134 7.59011C32.1522 7.59203 32.1693 7.59977 32.1828 7.61218L33.0223 8.36805C33.086 8.42481 33.1763 8.44919 33.2646 8.42481C33.6681 8.31267 34.1728 8.23649 34.592 8.24781L34.5934 8.2479C34.6384 8.24988 34.6831 8.24007 34.7232 8.21945C34.7632 8.19883 34.7972 8.1681 34.8217 8.13032L35.4364 7.18392C35.4462 7.16848 35.4607 7.1566 35.4778 7.15004C35.4949 7.14349 35.5137 7.14259 35.5313 7.14749L36.6655 7.45136C36.7023 7.46121 36.7275 7.4923 36.7294 7.53039L36.7878 8.64249C36.7875 8.68878 36.7997 8.73429 36.823 8.77429C36.8463 8.81429 36.8799 8.84731 36.9203 8.86991C37.2759 9.06973 37.7044 9.38695 37.9803 9.68107L37.9814 9.68245C38.0119 9.71636 38.0507 9.74165 38.094 9.75577C38.1373 9.76989 38.1835 9.77233 38.2281 9.76286L39.3331 9.52799C39.351 9.52401 39.3697 9.52588 39.3864 9.53334C39.4031 9.54079 39.417 9.55343 39.426 9.56939L40.0127 10.5855C40.022 10.6013 40.026 10.6196 40.0241 10.6378C40.0222 10.6561 40.0145 10.6732 40.002 10.6866L39.2463 11.526C39.1895 11.5898 39.1651 11.68 39.1895 11.7684C39.3016 12.1721 39.3779 12.6766 39.3665 13.0958L39.3664 13.0972C39.3644 13.1422 39.3742 13.187 39.3949 13.227C39.4155 13.2671 39.4462 13.301 39.484 13.3256L40.4303 13.9401C40.4457 13.95 40.4576 13.9645 40.4642 13.9816C40.4707 13.9987 40.4716 14.0174 40.4667 14.0351L40.1629 15.1692C40.1583 15.187 40.1482 15.2028 40.1339 15.2143C40.1197 15.2258 40.1021 15.2325 40.0838 15.2333L38.9718 15.2915C38.9255 15.2913 38.88 15.3034 38.84 15.3268C38.8 15.3501 38.767 15.3837 38.7444 15.4241C38.5443 15.7802 38.2276 16.2078 37.9331 16.484L37.9318 16.4852C37.8979 16.5156 37.8726 16.5544 37.8585 16.5977C37.8443 16.641 37.8419 16.6872 37.8514 16.7318L38.0862 17.8368C38.0902 17.8547 38.0883 17.8733 38.0809 17.8901C38.0735 17.9068 38.0609 17.9207 38.0449 17.9297L37.0288 18.5164C37.013 18.5257 36.9947 18.5297 36.9765 18.5278C36.9583 18.5259 36.9411 18.5181 36.9277 18.5057L36.0882 17.7498C36.0244 17.6931 35.9342 17.6687 35.8459 17.6931C35.4423 17.8051 34.9376 17.8814 34.5185 17.8701L34.5171 17.87C34.4721 17.868 34.4274 17.8778 34.3873 17.8984C34.3473 17.9191 34.3133 17.9498 34.2888 17.9876L33.6742 18.934C33.6644 18.9494 33.6498 18.9613 33.6327 18.9678C33.6156 18.9744 33.5969 18.9753 33.5792 18.9704L32.445 18.6664C32.4272 18.6619 32.4114 18.6517 32.3999 18.6375C32.3884 18.6233 32.3818 18.6057 32.381 18.5874L32.3228 17.4755L32.3227 17.4718C32.3223 17.4262 32.3098 17.3814 32.2866 17.3421C32.2633 17.3028 32.2301 17.2704 32.1902 17.2481C31.801 17.0288 31.4444 16.7559 31.131 16.4375ZM34.0209 15.0539C33.4711 14.9065 33.0322 14.5495 32.7675 14.0915L32.7671 14.0917C32.1963 13.1032 32.5338 11.8426 33.5227 11.2712L33.5224 11.2707C34.511 10.7 35.7716 11.0375 36.343 12.0263L36.3435 12.0261C37.2626 13.6179 35.7899 15.5279 34.0209 15.0539ZM29.1684 21.6392C29.0024 21.6843 28.8252 21.6615 28.676 21.576C28.5267 21.4904 28.4176 21.349 28.3725 21.183L28.0128 19.8591C27.9025 19.4529 28.199 19.0139 28.7045 19.0439L28.708 19.0441L30.0206 19.0684C30.5751 19.0779 30.842 19.7215 30.5133 20.1216C30.5051 20.1313 30.4992 20.1428 30.4961 20.1551C30.493 20.1674 30.4927 20.1803 30.4952 20.1927C30.4974 20.2052 30.5024 20.2171 30.5098 20.2274C30.5173 20.2377 30.5269 20.2461 30.5381 20.2522C33.0422 21.6471 36.1263 21.6661 38.6731 20.1931C41.778 18.3972 43.3405 14.8371 42.6219 11.3822C42.6041 11.2988 42.6029 11.2127 42.6185 11.1289C42.6341 11.045 42.666 10.965 42.7126 10.8936C42.7592 10.8221 42.8194 10.7606 42.8899 10.7125C42.9603 10.6644 43.0396 10.6307 43.1231 10.6133C43.2066 10.5959 43.2927 10.5952 43.3765 10.6113C43.4602 10.6273 43.54 10.6597 43.6112 10.7067C43.6824 10.7536 43.7436 10.8142 43.7913 10.8849C43.8391 10.9556 43.8723 11.0351 43.8892 11.1187C44.302 13.1032 44.0626 15.1512 43.2506 16.9632C40.9314 22.139 34.6027 24.1596 29.7024 21.263C29.6922 21.2568 29.6808 21.2528 29.6689 21.2513C29.657 21.2498 29.645 21.2509 29.6336 21.2545C29.6221 21.2577 29.6114 21.2634 29.6023 21.2711C29.5932 21.2788 29.5858 21.2884 29.5807 21.2992C29.5402 21.382 29.4824 21.4552 29.4113 21.5138C29.3402 21.5724 29.2574 21.6152 29.1684 21.6392ZM30.8825 29.9555L29.7774 29.7206C29.7596 29.7166 29.7409 29.7185 29.7242 29.7259C29.7074 29.7334 29.6935 29.746 29.6845 29.7619L29.0978 30.7781C29.0886 30.7938 29.0846 30.8122 29.0865 30.8304C29.0884 30.8485 29.0961 30.8657 29.1084 30.8792L29.864 31.7188C29.9211 31.7823 29.9454 31.8726 29.9211 31.9609C29.8089 32.3645 29.7327 32.869 29.744 33.2883L29.7441 33.2897C29.7461 33.3347 29.7363 33.3794 29.7157 33.4195C29.6951 33.4595 29.6643 33.4935 29.6266 33.518L28.6801 34.1327C28.6646 34.1425 28.6527 34.157 28.6462 34.1741C28.6396 34.1912 28.6387 34.21 28.6436 34.2276L28.9475 35.3618C28.9574 35.3986 28.9884 35.4238 29.0265 35.4257L30.1385 35.484C30.1848 35.4838 30.2304 35.496 30.2704 35.5193C30.3104 35.5426 30.3434 35.5762 30.366 35.6166C30.5661 35.9727 30.8827 36.4004 31.1773 36.6765C31.2116 36.7069 31.2373 36.7458 31.2516 36.7894C31.266 36.8329 31.2685 36.8795 31.259 36.9243L31.0241 38.0292C31.0202 38.0471 31.022 38.0658 31.0295 38.0825C31.0369 38.0992 31.0495 38.1131 31.0654 38.1221L32.0816 38.7088C32.0973 38.7181 32.1157 38.7221 32.1339 38.7202C32.1521 38.7183 32.1692 38.7106 32.1827 38.6982L33.0224 37.9426C33.0547 37.9136 33.0938 37.8931 33.1361 37.8831C33.1784 37.8732 33.2225 37.874 33.2644 37.8856C33.6679 37.9978 34.1726 38.0739 34.5918 38.0626L34.5932 38.0625C34.6382 38.0605 34.6829 38.0704 34.723 38.091C34.763 38.1116 34.797 38.1423 34.8215 38.1801L35.4362 39.1265C35.446 39.1419 35.4605 39.1538 35.4776 39.1604C35.4947 39.1669 35.5135 39.1678 35.5311 39.1629L36.6653 38.8591C36.683 38.8545 36.6988 38.8444 36.7103 38.8301C36.7219 38.8159 36.7285 38.7983 36.7292 38.78L36.7876 37.6679C36.7873 37.6216 36.7995 37.5761 36.8228 37.5361C36.8461 37.4961 36.8797 37.4631 36.9201 37.4405C37.2757 37.2407 37.7043 36.9235 37.9801 36.6293L37.9813 36.6279C38.0117 36.594 38.0505 36.5687 38.0938 36.5546C38.1371 36.5404 38.1834 36.538 38.2279 36.5475L39.3334 36.7824C39.3513 36.7864 39.3699 36.7845 39.3867 36.7771C39.4034 36.7697 39.4173 36.7571 39.4263 36.7411L40.0128 35.7253C40.0221 35.7095 40.0261 35.6912 40.0242 35.673C40.0223 35.6548 40.0146 35.6376 40.0022 35.6242L39.2464 34.7841C39.2173 34.7518 39.1968 34.7127 39.1868 34.6704C39.1768 34.6281 39.1777 34.5839 39.1893 34.5421C39.3015 34.1384 39.3777 33.6338 39.3663 33.2146L39.3662 33.2132C39.3643 33.1682 39.3741 33.1235 39.3947 33.0834C39.4153 33.0434 39.446 33.0094 39.4838 32.9849L40.4301 32.3703C40.4456 32.3605 40.4574 32.3459 40.464 32.3288C40.4706 32.3117 40.4715 32.293 40.4666 32.2754L40.1627 31.1412C40.1581 31.1234 40.148 31.1076 40.1337 31.0961C40.1195 31.0846 40.1019 31.0779 40.0836 31.0771L38.9716 31.0189L38.968 31.0188C38.9223 31.0184 38.8776 31.0059 38.8383 30.9827C38.799 30.9594 38.7665 30.9262 38.7442 30.8863C38.5442 30.5303 38.2275 30.1025 37.9329 29.8264C37.8985 29.796 37.8729 29.7571 37.8585 29.7136C37.8442 29.67 37.8416 29.6235 37.8512 29.5787L38.0861 28.4737C38.09 28.4559 38.0882 28.4372 38.0807 28.4205C38.0733 28.4037 38.0607 28.3898 38.0447 28.3808L37.0286 27.7941C37.0128 27.7848 36.9945 27.7808 36.9763 27.7827C36.9581 27.7846 36.941 27.7923 36.9275 27.8047L36.0877 28.5603C36.0554 28.5894 36.0163 28.6099 35.974 28.6198C35.9317 28.6298 35.8876 28.629 35.8457 28.6173C35.4422 28.5052 34.9374 28.429 34.5183 28.4403L34.5169 28.4404C34.4719 28.4424 34.4272 28.4326 34.3871 28.412C34.3471 28.3914 34.3131 28.3606 34.2886 28.3229L33.674 27.3764C33.6642 27.361 33.6496 27.3491 33.6325 27.3426C33.6155 27.336 33.5967 27.3351 33.5791 27.34L32.4448 27.6439C32.4271 27.6484 32.4113 27.6586 32.3997 27.6728C32.3882 27.6871 32.3816 27.7046 32.3809 27.7229L32.3226 28.8348L32.3225 28.8385C32.3221 28.8842 32.3097 28.9289 32.2864 28.9682C32.2631 29.0075 32.2299 29.04 32.19 29.0623C31.8342 29.2623 31.4062 29.5792 31.1301 29.8736L31.1289 29.875C31.0986 29.9089 31.0598 29.9342 31.0165 29.9484C30.9732 29.9625 30.927 29.965 30.8825 29.9555ZM32.7675 32.219C33.3389 31.2301 34.5995 30.8926 35.5881 31.4634L35.5878 31.4638C37.1034 32.3397 36.9539 34.6769 35.1054 35.2422C34.0371 35.5689 32.8099 34.8636 32.5566 33.7719L32.556 33.7697C32.4145 33.2245 32.5051 32.6723 32.7671 32.2187L32.7675 32.219ZM28.0128 26.4513C27.9025 26.8578 28.1992 27.2965 28.7045 27.2665L28.708 27.2663L30.0206 27.242C30.6364 27.2315 30.8653 26.4669 30.4318 26.1041C30.4094 26.0853 30.3984 26.0589 30.4012 26.0298C30.404 26.0006 30.4193 25.9767 30.4448 25.9623C34.731 23.5491 40.1777 25.3363 42.1875 29.8218C42.9006 31.4133 43.1111 33.212 42.7486 34.9547C42.7215 35.0888 42.7486 35.2282 42.8239 35.3424C42.8992 35.4566 43.0167 35.5364 43.1507 35.5642C43.2846 35.5921 43.4242 35.5658 43.5388 35.4911C43.6535 35.4164 43.7338 35.2993 43.7625 35.1655C44.5826 31.2225 42.7965 27.1573 39.257 25.1092C36.2752 23.3837 32.6406 23.4538 29.7507 25.1692C29.7393 25.1762 29.7264 25.1804 29.7131 25.1814C29.6997 25.1824 29.6863 25.1802 29.674 25.175C29.6616 25.1701 29.6505 25.1624 29.6416 25.1523C29.6328 25.1423 29.6264 25.1303 29.6232 25.1174C29.4604 24.5157 28.5498 24.4742 28.3725 25.1273L28.0128 26.4513ZM25.348 31.3375C25.3766 31.2037 25.457 31.0867 25.5716 31.012C25.6863 30.9372 25.8258 30.911 25.9598 30.9388C26.0937 30.9667 26.2112 31.0464 26.2866 31.1606C26.3619 31.2749 26.389 31.4143 26.3618 31.5484C25.9993 33.291 26.2098 35.0896 26.923 36.6811C27.6315 38.2625 28.7728 39.5546 30.372 40.4984L30.3726 40.4975C32.972 41.9983 36.1181 41.974 38.6657 40.5405C38.6913 40.5262 38.7068 40.5023 38.7094 40.4731C38.7121 40.4439 38.7013 40.4176 38.6788 40.3988C38.2451 40.0359 38.4742 39.2713 39.09 39.2608L40.4025 39.2365L40.406 39.2364C40.9116 39.2064 41.2081 39.6454 41.0978 40.0516L40.738 41.3754C40.5608 42.0286 39.6501 41.9871 39.4874 41.3854C39.4801 41.3584 39.4624 41.3383 39.4365 41.3278C39.4107 41.3173 39.3839 41.3194 39.3599 41.3336C36.4667 43.0512 32.8403 43.1179 29.8535 41.3936L29.8541 41.3926C26.3147 39.3488 24.528 35.2789 25.348 31.3375ZM6.34531 31.3157L6.21339 31.1917C6.15147 31.1334 6.07869 31.0879 5.9992 31.0578C5.91971 31.0277 5.83506 31.0135 5.7501 31.0161C5.57849 31.0213 5.416 31.0945 5.29835 31.2196C5.18071 31.3446 5.11755 31.5113 5.12278 31.6829C5.12801 31.8545 5.20119 32.017 5.32623 32.1346L6.02451 32.7906C6.29573 33.0457 6.72546 33.0198 6.96457 32.7346L6.96493 32.7349L8.3499 31.0841C8.46014 30.9524 8.51352 30.7822 8.49831 30.6111C8.48309 30.44 8.40052 30.2819 8.26876 30.1717C8.20352 30.1171 8.12816 30.0759 8.047 30.0504C7.96584 30.025 7.88045 30.0157 7.79572 30.0233C7.62461 30.0385 7.46654 30.1211 7.3563 30.2528L6.4708 31.3082C6.46336 31.3173 6.45405 31.3248 6.44351 31.3301C6.43296 31.3354 6.42141 31.3384 6.40962 31.3389C6.39787 31.3398 6.38605 31.3382 6.37496 31.3342C6.36387 31.3302 6.35376 31.3239 6.34531 31.3157ZM7.3563 21.8807L6.4708 22.9361C6.45498 22.955 6.43428 22.9653 6.40962 22.9668C6.38497 22.9683 6.36325 22.9604 6.34531 22.9435L6.21339 22.8195C6.08835 22.7019 5.9217 22.6387 5.7501 22.6439C5.57849 22.6492 5.416 22.7223 5.29835 22.8474C5.18071 22.9724 5.11755 23.1391 5.12278 23.3107C5.12801 23.4823 5.20119 23.6448 5.32623 23.7624L6.02451 24.4185C6.29573 24.6735 6.72546 24.6476 6.96457 24.3624L6.96493 24.3627L8.3499 22.712C8.46013 22.5802 8.5135 22.41 8.49827 22.2389C8.48305 22.0678 8.40047 21.9098 8.26871 21.7995C8.13695 21.6893 7.9668 21.6359 7.79569 21.6512C7.62458 21.6664 7.46653 21.749 7.3563 21.8807ZM6.96484 15.9907L8.3499 14.34C8.40449 14.2747 8.44569 14.1994 8.47115 14.1182C8.49661 14.037 8.50584 13.9516 8.49831 13.8669C8.49077 13.7822 8.46662 13.6998 8.42723 13.6244C8.38785 13.549 8.334 13.4821 8.26876 13.4275C8.20352 13.3729 8.12816 13.3317 8.047 13.3062C7.96584 13.2808 7.88045 13.2716 7.79572 13.2791C7.71099 13.2866 7.62858 13.3108 7.55318 13.3502C7.47779 13.3896 7.41089 13.4434 7.3563 13.5086L6.4708 14.564C6.45498 14.5828 6.43428 14.5932 6.40962 14.5947C6.38497 14.5962 6.36325 14.5883 6.34531 14.5713L6.21339 14.4473C6.15147 14.3891 6.07869 14.3436 5.9992 14.3135C5.91971 14.2833 5.83506 14.2692 5.7501 14.2717C5.66513 14.2743 5.5815 14.2936 5.50399 14.3285C5.42648 14.3635 5.35661 14.4133 5.29835 14.4752C5.2401 14.5371 5.19462 14.6099 5.16449 14.6894C5.13437 14.7689 5.12019 14.8535 5.12278 14.9385C5.12537 15.0235 5.14467 15.1071 5.17958 15.1846C5.21448 15.2621 5.26432 15.332 5.32623 15.3902L6.02451 16.0464C6.29573 16.3014 6.72546 16.2755 6.96457 15.9903L6.96484 15.9907ZM1.91211 9.57159V36.7388C1.91211 37.4957 2.53136 38.1151 3.28825 38.1151H18.5327C19.2896 38.1151 19.9089 37.4958 19.9089 36.7388V23.9311C19.9089 23.8835 19.9477 23.8447 19.9954 23.8447H22.2402C22.2879 23.8447 22.3267 23.8835 22.3267 23.9311V28.3866C22.3267 28.5587 22.3951 28.7237 22.5168 28.8454C22.6385 28.9671 22.8035 29.0355 22.9756 29.0355H25.4899C25.662 29.0355 25.827 28.9671 25.9487 28.8454C26.0704 28.7237 26.1387 28.5587 26.1387 28.3866C26.1387 28.2145 26.0704 28.0495 25.9487 27.9278C25.827 27.8061 25.662 27.7377 25.4899 27.7377H23.7111C23.6882 27.7377 23.6662 27.7286 23.65 27.7124C23.6338 27.6962 23.6247 27.6742 23.6247 27.6513V18.6593C23.6247 18.6116 23.6635 18.5728 23.7111 18.5728H25.4901C25.6621 18.5728 25.8272 18.5044 25.9489 18.3827C26.0706 18.261 26.1389 18.096 26.1389 17.9239C26.1389 17.7518 26.0706 17.5868 25.9489 17.4651C25.8272 17.3434 25.6621 17.275 25.4901 17.275H22.9758C22.8037 17.275 22.6387 17.3434 22.517 17.4651C22.3953 17.5868 22.3269 17.7518 22.3269 17.9239V22.4604C22.3269 22.5081 22.2881 22.5469 22.2404 22.5469H19.9955C19.9726 22.5469 19.9506 22.5378 19.9344 22.5216C19.9182 22.5053 19.9091 22.4834 19.9091 22.4604V9.57159C19.9091 8.81471 19.2898 8.19546 18.5329 8.19546H16.1014C16.0784 8.19543 16.0565 8.18631 16.0402 8.1701C16.024 8.15389 16.0149 8.13191 16.0149 8.10898V6.29014C16.0149 5.6937 15.5292 5.20813 14.9328 5.20813H13.0051C12.9839 5.20819 12.9633 5.2004 12.9475 5.18626C12.9316 5.17211 12.9215 5.15261 12.9192 5.13149C12.7297 3.48662 10.6918 2.729 9.48169 3.93908C9.16797 4.2528 8.95618 4.66891 8.9019 5.13167C8.89948 5.15275 8.88938 5.1722 8.87353 5.1863C8.85768 5.2004 8.83719 5.20817 8.81597 5.20813H6.88839C6.29195 5.20813 5.80638 5.6937 5.80638 6.29014V8.10889C5.80638 8.15654 5.76755 8.19537 5.7199 8.19537H3.28834C2.53136 8.19537 1.91211 8.81471 1.91211 9.57159ZM12.1858 14.1341H16.7843C16.9564 14.1341 17.1214 14.2025 17.2431 14.3242C17.3648 14.4459 17.4332 14.6109 17.4332 14.783C17.4332 14.9551 17.3648 15.1202 17.2431 15.2419C17.1214 15.3635 16.9564 15.4319 16.7843 15.4319H12.1858C12.0137 15.4319 11.8486 15.3635 11.7269 15.2419C11.6052 15.1202 11.5369 14.9551 11.5369 14.783C11.5369 14.6109 11.6052 14.4459 11.7269 14.3242C11.8486 14.2025 12.0137 14.1341 12.1858 14.1341ZM9.5747 24.9431C9.5747 25.5093 9.11323 25.9709 8.54697 25.9709H4.9712C4.40503 25.9709 3.94356 25.5094 3.94356 24.9431V21.3674C3.94356 20.8012 4.40503 20.3396 4.9712 20.3396H8.54697C9.11323 20.3396 9.5747 20.8011 9.5747 21.3674V24.9431ZM4.9712 28.7117H8.54697C9.11323 28.7117 9.5747 29.1732 9.5747 29.7395V33.3152C9.5747 33.8815 9.11323 34.343 8.54697 34.343H4.9712C4.40503 34.343 3.94356 33.8815 3.94356 33.3152V29.7395C3.94356 29.1733 4.40503 28.7117 4.9712 28.7117ZM14.6304 8.67331H7.19061C7.16768 8.67328 7.1457 8.66416 7.12949 8.64795C7.11327 8.63174 7.10415 8.60975 7.10413 8.58683V6.59245C7.10413 6.54479 7.14295 6.50597 7.19061 6.50597H9.53698C9.70907 6.50597 9.87411 6.43761 9.9958 6.31592C10.1175 6.19423 10.1859 6.02919 10.1859 5.85709C10.1859 5.45515 10.128 5.1279 10.3992 4.85669C10.8616 4.39429 11.635 4.73598 11.635 5.36793V5.857C11.635 5.94221 11.6518 6.02659 11.6844 6.10532C11.717 6.18404 11.7648 6.25557 11.8251 6.31583C11.8853 6.37608 11.9569 6.42388 12.0356 6.45648C12.1143 6.48909 12.1987 6.50588 12.2839 6.50588H14.6303C14.6779 6.50588 14.7168 6.5447 14.7168 6.59236V8.58673C14.7168 8.59809 14.7146 8.60934 14.7102 8.61984C14.7059 8.63033 14.6995 8.63987 14.6915 8.64791C14.6835 8.65595 14.674 8.66233 14.6635 8.66669C14.653 8.67104 14.6417 8.67329 14.6304 8.67331ZM12.1858 22.5063H16.7843C16.9564 22.5063 17.1214 22.5747 17.2431 22.6964C17.3648 22.8181 17.4332 22.9831 17.4332 23.1552C17.4332 23.3273 17.3648 23.4923 17.2431 23.614C17.1214 23.7357 16.9564 23.8041 16.7843 23.8041H12.1858C12.0137 23.8041 11.8486 23.7357 11.7269 23.614C11.6052 23.4923 11.5369 23.3273 11.5369 23.1552C11.5369 22.9831 11.6052 22.8181 11.7269 22.6964C11.8486 22.5747 12.0137 22.5063 12.1858 22.5063ZM11.5369 31.5274C11.5369 31.3553 11.6052 31.1903 11.7269 31.0686C11.8486 30.9469 12.0137 30.8785 12.1858 30.8785H16.7843C16.9564 30.8785 17.1214 30.9469 17.2431 31.0686C17.3648 31.1903 17.4332 31.3553 17.4332 31.5274C17.4332 31.6995 17.3648 31.8645 17.2431 31.9862C17.1214 32.1079 16.9564 32.1763 16.7843 32.1763H12.1858C12.0137 32.1763 11.8486 32.1079 11.7269 31.9862C11.6052 31.8645 11.5369 31.6995 11.5369 31.5274Z" fill="#014EFF"/>
</svg>
