<svg width="46" height="46" viewBox="0 0 46 46" fill="none" xmlns="http://www.w3.org/2000/svg">
<g clip-path="url(#clip0_102_8339)">
<path d="M14.0156 40.0345C13.7281 39.8188 13.3688 39.6032 13.0813 39.4595C13.1531 38.8845 13.0813 38.2376 12.9375 37.5907C12.65 36.5126 12.075 35.5063 11.2844 34.572C10.5656 35.147 10.2063 36.1532 10.35 37.2313C9.84688 36.7282 9.34375 36.2251 8.9125 35.722C9.2 35.2188 9.34375 34.572 9.34375 33.9251C9.41563 32.847 9.2 31.7688 8.69688 30.6907C7.7625 31.0501 7.1875 31.9845 7.04375 33.0626C6.68438 32.4876 6.39688 31.8407 6.10938 31.2657C6.54063 30.8345 6.9 30.2595 7.11563 29.6126C7.475 28.6063 7.54688 27.5282 7.33125 26.3782C6.325 26.522 5.4625 27.2407 5.03125 28.3188C4.81563 27.6001 4.67188 26.9532 4.6 26.2345C5.175 25.947 5.67813 25.4438 6.0375 24.8688C6.6125 24.0063 7.04375 22.9282 7.11563 21.7782C6.0375 21.6345 4.95938 22.2095 4.3125 23.2157C4.3125 22.497 4.38438 21.7063 4.45625 20.9876C5.10313 20.8438 5.75 20.4845 6.325 20.0532C7.11563 19.4063 7.7625 18.472 8.19375 17.3938C7.1875 16.9626 5.96563 17.2501 5.03125 18.1126C5.24688 17.3938 5.4625 16.6032 5.75 15.8845C6.46875 15.9563 7.1875 15.7407 7.83438 15.4532C8.76875 15.022 9.63125 14.3032 10.35 13.297C9.4875 12.5782 8.19375 12.5782 7.04375 13.2251C7.475 12.5063 7.90625 11.8595 8.40938 11.2126C9.05625 11.5001 9.84688 11.5001 10.6375 11.3563C11.7156 11.1407 12.7938 10.7095 13.8 9.91885C13.1531 8.98447 11.8594 8.6251 10.4938 8.98447C11.5 8.0501 12.5781 7.1876 13.8719 6.46885C14.2313 6.25322 14.375 5.82197 14.1594 5.4626C13.9438 5.10322 13.4406 4.95947 13.0813 5.1751C11.7156 5.96572 10.4938 6.9001 9.41563 7.90635C9.99063 6.46885 10.0625 5.1751 9.41563 4.16885C8.12188 5.03135 7.1875 6.46885 6.97188 7.69072C6.75625 8.6251 6.9 9.41572 7.33125 10.0626C6.75625 10.7813 6.25313 11.572 5.82188 12.2907C5.96563 10.7813 5.60625 9.4876 4.74375 8.76885C3.7375 10.1345 3.30625 11.7157 3.45 12.9376C3.52188 13.872 3.88125 14.5907 4.45625 15.0938C4.09688 15.9563 3.80938 16.747 3.59375 17.6095C3.30625 16.172 2.65938 15.022 1.58125 14.5188C1.00625 16.1001 1.00625 17.6813 1.4375 18.8313C1.79688 19.6938 2.3 20.2688 3.01875 20.6282C2.875 21.4907 2.875 22.3532 2.875 23.2157C2.22813 21.922 1.29375 21.0595 0.143754 20.9157C3.68059e-06 22.5688 0.431254 24.0782 1.15 25.0845C1.65313 25.8032 2.37188 26.2345 3.09063 26.3782C3.1625 27.2407 3.37813 28.0313 3.52188 28.822C2.5875 27.8157 1.50938 27.2407 0.359379 27.3845C0.646879 29.0376 1.4375 30.4032 2.44375 31.122C3.09063 31.697 3.88125 31.9126 4.52813 31.8407C4.81563 32.5595 5.175 33.3501 5.53438 33.997C4.3125 33.4938 3.1625 33.2063 2.15625 33.6376C2.875 35.147 4.025 36.297 5.175 36.8001C5.96563 37.1595 6.68438 37.1595 7.33125 37.0157C7.83438 37.6626 8.3375 38.2376 8.9125 38.8126C7.69063 38.5251 6.6125 38.597 5.82188 39.2438C6.97188 40.5376 8.48125 41.3282 9.775 41.5438C10.5656 41.6876 11.2844 41.5438 11.8594 41.2563C12.1469 41.472 12.5063 41.6876 12.7938 41.9032C13.3688 42.2626 14.0875 42.047 14.375 41.472C14.6625 40.9688 14.5188 40.322 14.0156 40.0345ZM42.6219 28.822C42.8375 28.0313 42.9813 27.1688 43.0531 26.3782C43.7719 26.2345 44.4188 25.8032 44.9938 25.0845C45.7125 24.0782 46.1438 22.5688 46 20.9157C44.85 21.0595 43.9156 21.9938 43.2688 23.2157C43.2688 22.3532 43.1969 21.4907 43.125 20.6282C43.7719 20.3407 44.3469 19.6938 44.7063 18.8313C45.1375 17.6813 45.2094 16.1001 44.5625 14.5188C43.4844 15.022 42.8375 16.172 42.55 17.6095C42.3344 16.747 42.0469 15.8845 41.6875 15.0938C42.2625 14.5907 42.6219 13.872 42.6938 12.9376C42.8375 11.7157 42.4063 10.1345 41.4 8.76885C40.4656 9.4876 40.1781 10.8532 40.3219 12.2907C39.7469 11.5001 39.2438 10.7813 38.6688 10.0626C39.1 9.4876 39.2438 8.6251 39.0281 7.69072C38.8125 6.46885 37.8781 5.03135 36.4406 3.88135C35.7938 4.81572 35.8656 6.18135 36.4406 7.61885C35.3625 6.6126 34.1406 5.67822 32.775 4.8876C32.4156 4.67197 31.9125 4.81572 31.6969 5.1751C31.4813 5.53447 31.625 5.96572 31.9844 6.18135C33.2063 6.9001 34.3563 7.7626 35.3625 8.69697C33.9969 8.3376 32.7031 8.69697 32.0563 9.63135C33.0625 10.422 34.1406 10.8532 35.2188 11.0688C36.0094 11.2126 36.8 11.2126 37.4469 10.9251C37.95 11.572 38.4531 12.2907 38.8125 12.9376C37.6625 12.2907 36.3688 12.2907 35.5063 13.0095C36.225 13.9438 37.0875 14.7345 38.0219 15.1657C38.7406 15.5251 39.4594 15.6688 40.1063 15.597C40.3938 16.3157 40.6094 17.0345 40.825 17.8251C39.8906 16.9626 38.6688 16.6751 37.6625 17.1063C38.0938 18.1845 38.7406 19.1188 39.5313 19.7657C40.1063 20.2688 40.7531 20.5563 41.4 20.7001C41.4719 21.4188 41.5438 22.2095 41.5438 22.9282C40.8969 21.922 39.8188 21.347 38.7406 21.4907C38.8844 22.6407 39.2438 23.7188 39.8188 24.5813C40.1781 25.1563 40.6813 25.6595 41.2563 25.947C41.1125 26.6657 40.9688 27.3126 40.825 28.0313C40.3938 26.9532 39.6031 26.1626 38.525 26.0907C38.3094 27.2407 38.4531 28.3907 38.7406 29.3251C38.9563 29.972 39.2438 30.547 39.7469 30.9782C39.4594 31.6251 39.1719 32.2001 38.8125 32.7751C38.6688 31.697 38.0938 30.7626 37.1594 30.4032C36.6563 31.4813 36.4406 32.5595 36.5125 33.6376C36.5125 34.2845 36.6563 34.9313 36.9438 35.4345C36.5125 35.9376 36.0094 36.4407 35.5063 36.9438C35.65 35.8657 35.3625 34.8595 34.5719 34.2845C33.7813 35.2188 33.2063 36.2251 32.9188 37.3032C32.775 37.9501 32.7031 38.597 32.775 39.172C32.4875 39.3876 32.2 39.6032 31.8406 39.747C31.3375 40.0345 31.1938 40.6813 31.4094 41.1845C31.6969 41.7595 32.4156 41.9751 32.9906 41.6157C33.35 41.4001 33.6375 41.1845 33.925 40.9688C34.5 41.2563 35.2188 41.4001 36.0094 41.2563C37.3031 41.0407 38.8125 40.2501 39.9625 38.9563C39.1719 38.3095 38.0938 38.2376 36.8719 38.5251C37.4469 37.9501 37.95 37.3751 38.4531 36.7282C39.1 36.872 39.8188 36.8001 40.6094 36.5126C41.7594 36.0095 42.9094 34.9313 43.6281 33.3501C42.6219 32.9188 41.4719 33.2063 40.3938 33.8532C40.7531 33.1345 41.1125 32.4157 41.4 31.697C42.1188 31.697 42.8375 31.4813 43.4844 30.9782C44.4188 30.1876 45.2813 28.8938 45.5688 27.2407C44.6344 27.2407 43.5563 27.8876 42.6219 28.822Z" fill="#014EFF"/>
<path d="M31.8405 35.4344L30.3312 26.7375L36.6562 20.5563C36.8718 20.3406 36.9437 20.0531 36.8718 19.8375C36.7999 19.55 36.5843 19.4062 36.2968 19.3344L27.528 18.0406L23.6468 10.1344C23.503 9.91875 23.2874 9.70312 22.9999 9.70312C22.7124 9.70312 22.4968 9.84688 22.353 10.1344L18.4718 18.0406L9.70303 19.3344C9.41553 19.4062 9.1999 19.55 9.12803 19.8375C9.05615 20.125 9.12803 20.4125 9.34365 20.5563L15.6687 26.7375L14.1593 35.4344C14.0874 35.7219 14.2312 36.0094 14.4468 36.1531C14.6624 36.2969 14.9499 36.3688 15.2374 36.225L22.9999 32.0562L30.8343 36.1531C30.9062 36.225 31.0499 36.225 31.1937 36.225C31.3374 36.225 31.4812 36.1531 31.6249 36.0813C31.7687 35.9375 31.9124 35.7219 31.8405 35.4344Z" fill="#014EFF"/>
</g>
<defs>
<clipPath id="clip0_102_8339">
<rect width="46" height="46" fill="white"/>
</clipPath>
</defs>
</svg>
