<svg width="46" height="46" viewBox="0 0 46 46" fill="none" xmlns="http://www.w3.org/2000/svg">
<path d="M27.4955 30.5134L25.7252 30.0116C25.4952 29.1125 25.1398 28.2622 24.6798 27.4885L25.5788 25.8855C25.8228 25.4534 25.7461 24.9028 25.3907 24.5473L24.1152 23.2719C23.7598 22.9164 23.2161 22.8467 22.784 23.0907L21.174 23.9897C20.3934 23.5297 19.5501 23.1673 18.651 22.9373L18.1561 21.174C18.0237 20.6861 17.5776 20.3516 17.0828 20.3516H15.2776C14.7758 20.3516 14.3367 20.6861 14.2043 21.174L13.7095 22.9373C12.8173 23.1673 11.9601 23.5228 11.1864 23.9897L9.57642 23.0907C9.1443 22.8467 8.59369 22.9234 8.24521 23.2719L6.96975 24.5473C6.6143 24.9028 6.53763 25.4534 6.78157 25.8855L7.68066 27.4885C7.22066 28.2691 6.86521 29.1125 6.63521 30.0116L4.8649 30.5134C4.37703 30.6458 4.04248 31.0919 4.04248 31.5867V33.3849C4.04248 33.8867 4.37703 34.3258 4.8649 34.4582L6.62824 34.9531C6.85824 35.8522 7.21369 36.7094 7.68066 37.4831L6.78157 39.0861C6.53763 39.5182 6.6143 40.0688 6.96975 40.4243L8.24521 41.6997C8.59369 42.0552 9.1443 42.1249 9.57642 41.881L11.1864 40.9819C11.967 41.4419 12.8173 41.8043 13.7095 42.0343L14.2043 43.7976C14.3367 44.2855 14.7828 44.62 15.2776 44.62H17.0828C17.5846 44.62 18.0237 44.2855 18.1561 43.7976L18.651 42.0343C19.5501 41.8043 20.4004 41.4488 21.174 40.9819L22.784 41.881C23.2161 42.1249 23.7667 42.0482 24.1152 41.6997L25.3907 40.4243C25.7461 40.0688 25.8228 39.5182 25.5788 39.0861L24.6798 37.4831C25.1398 36.7025 25.5022 35.8522 25.7322 34.9531L27.4955 34.4582C27.9834 34.3258 28.3179 33.8797 28.3179 33.3849V31.5867C28.311 31.0919 27.9834 30.6528 27.4955 30.5134ZM16.1698 37.72C13.2843 37.72 10.9495 35.3782 10.9495 32.4928C10.9495 29.6073 13.2843 27.2655 16.1698 27.2655C19.0622 27.2655 21.397 29.6073 21.397 32.4928C21.397 35.3782 19.0622 37.72 16.1698 37.72ZM43.4979 35.9428L42.4037 35.6361C42.2643 35.0855 42.0482 34.5628 41.7625 34.0819L42.3131 33.0922C42.4664 32.8273 42.4176 32.4858 42.1946 32.2697L41.414 31.4891C41.3079 31.3832 41.1701 31.315 41.0216 31.2949C40.873 31.2747 40.722 31.3038 40.5916 31.3776L39.6019 31.9282C39.121 31.6425 38.6052 31.4264 38.0476 31.28L37.741 30.1928C37.7007 30.0482 37.6141 29.9208 37.4945 29.8302C37.3749 29.7396 37.2289 29.6906 37.0788 29.691H35.9637C35.657 29.691 35.3852 29.8931 35.3016 30.1928L34.9949 31.28C34.4443 31.4194 33.9216 31.6425 33.4407 31.9282L32.451 31.3776C32.3205 31.3038 32.1695 31.2747 32.021 31.2949C31.8724 31.315 31.7346 31.3832 31.6285 31.4891L30.8479 32.2697C30.6249 32.4928 30.5831 32.8273 30.7295 33.0922L31.287 34.0819C30.9984 34.5658 30.7823 35.0894 30.6458 35.6361L29.5516 35.9428C29.2519 36.0264 29.0498 36.2982 29.0498 36.6049V37.7131C29.0498 38.0197 29.2519 38.2916 29.5516 38.3752L30.6388 38.6819C30.7782 39.2325 31.0013 39.7622 31.287 40.2431L30.7295 41.2328C30.5761 41.4976 30.6249 41.8391 30.8479 42.0552L31.6285 42.8358C31.8446 43.0519 32.1792 43.1007 32.451 42.9473L33.4407 42.3897C33.9216 42.6755 34.4443 42.8916 34.9949 43.0379L35.3016 44.1252C35.3852 44.4249 35.657 44.627 35.9637 44.627H37.0788C37.3855 44.627 37.6573 44.4249 37.741 44.1252L38.0476 43.0379C38.5982 42.8985 39.121 42.6755 39.6019 42.3897L40.5916 42.9473C40.8564 43.1007 41.1979 43.0519 41.414 42.8358L42.1946 42.0552C42.4176 41.8322 42.4595 41.4976 42.3131 41.2328L41.7625 40.2431C42.0482 39.7622 42.2643 39.2394 42.4107 38.6819L43.4979 38.3752C43.7976 38.2916 43.9998 38.0197 43.9998 37.7131V36.6049C43.9998 36.2982 43.7976 36.0264 43.4979 35.9428ZM36.5282 40.3755C34.751 40.3755 33.3152 38.9328 33.3152 37.1625C33.3152 35.3922 34.751 33.9494 36.5282 33.9494C38.3055 33.9494 39.7413 35.3922 39.7413 37.1625C39.7413 38.9328 38.3055 40.3755 36.5282 40.3755Z" fill="#014EFF"/>
<path d="M5.91027 27.1191L5.58966 26.5476C5.053 25.5927 5.22027 24.373 6.00087 23.5924L7.27633 22.317C7.50488 22.0881 7.77655 21.9068 8.07564 21.7835C8.37473 21.6603 8.69528 21.5976 9.01875 21.5991C9.4439 21.5991 9.86209 21.7106 10.2245 21.9127L11.1794 22.4494C11.6394 22.2194 12.1133 22.0243 12.5942 21.864L12.8869 20.8185C13.0319 20.2995 13.3426 19.8422 13.7717 19.5163C14.2008 19.1903 14.7248 19.0137 15.2636 19.0134H17.0688C18.17 19.0134 19.1527 19.7591 19.4454 20.8185L19.7381 21.864C20.2191 22.0243 20.693 22.2264 21.153 22.4564L22.1148 21.9197C22.4772 21.7176 22.8954 21.6061 23.3206 21.6061C23.9827 21.6061 24.603 21.864 25.063 22.324L26.3385 23.5994C26.7198 23.9813 26.9663 24.477 27.0405 25.0116C27.1147 25.5461 27.0126 26.0902 26.7497 26.5615L26.213 27.5164C26.2757 27.6349 26.3245 27.7603 26.3803 27.8788H36.8278C40.0966 27.8788 42.7451 25.2303 42.7451 21.9685C42.7459 20.4777 42.1832 19.0417 41.1699 17.9482C40.1565 16.8548 38.7674 16.1847 37.2809 16.0721C36.5072 16.1349 35.7406 16.3649 35.0715 16.7482C34.9669 16.8109 34.8484 16.8388 34.7369 16.8388C34.6176 16.8399 34.5003 16.8088 34.3972 16.7486C34.2941 16.6885 34.2092 16.6017 34.1515 16.4973C34.1067 16.4206 34.0776 16.3358 34.0659 16.2478C34.0543 16.1597 34.0603 16.0703 34.0837 15.9846C34.1071 15.8989 34.1473 15.8188 34.202 15.7488C34.2567 15.6789 34.3249 15.6206 34.4024 15.5773C35.3781 15.0127 36.5072 14.727 37.6294 14.72C37.6712 14.4412 37.6991 14.1555 37.6991 13.8697C37.6991 10.5661 35.0227 7.88971 31.726 7.88971C30.4366 7.88971 29.2378 8.30093 28.2621 8.99789C27.4606 4.6488 23.6551 1.37305 19.09 1.37305C13.9394 1.37305 9.76451 5.5479 9.76451 10.6985C9.76451 11.2491 9.8133 11.7927 9.9039 12.3224C10.7124 12.5385 11.4791 12.873 12.183 13.34C12.4966 13.5491 12.5803 13.9673 12.3712 14.274C12.2388 14.4691 12.0297 14.5737 11.8066 14.5737C11.6812 14.5737 11.5488 14.5388 11.4303 14.4621C11.0678 14.2182 10.6845 14.023 10.2872 13.8627C9.88299 13.793 9.47178 13.7512 9.04663 13.7512C5.1436 13.7512 1.98633 16.9155 1.98633 20.8115C2.00027 23.5715 3.58936 25.9621 5.91027 27.1191ZM28.1366 11.2352C27.7603 11.2352 27.4606 10.9355 27.4606 10.5591C27.4606 10.1827 27.7603 9.88305 28.1366 9.88305H30.4157C30.7921 9.88305 31.0918 10.1827 31.0918 10.5591C31.0918 10.9355 30.7921 11.2352 30.4157 11.2352H29.9557V16.3858H30.4157C30.7921 16.3858 31.0918 16.6855 31.0918 17.0618C31.0918 17.4382 30.7921 17.7379 30.4157 17.7379H28.1366C27.7603 17.7379 27.4606 17.4382 27.4606 17.0618C27.4606 16.6855 27.7603 16.3858 28.1366 16.3858H28.5966V11.2352H28.1366ZM21.6966 10.7264C21.6966 10.1688 22.1497 9.71577 22.7072 9.71577H24.7772C26.1991 9.71577 27.3491 10.8727 27.3491 12.2876C27.3491 13.7024 26.1921 14.8594 24.7772 14.8594H23.0488V17.0549C23.0488 17.4312 22.7491 17.7309 22.3727 17.7309C21.9963 17.7309 21.6966 17.4312 21.6966 17.0549V10.7264ZM14.5736 12.5455C14.5736 10.9843 15.8421 9.72274 17.3963 9.72274C18.9506 9.72274 20.2191 10.9912 20.2191 12.5455V17.0618C20.2191 17.4382 19.9194 17.7379 19.543 17.7379C19.1666 17.7379 18.8669 17.4382 18.8669 17.0618V14.8664H15.9188V17.0618C15.9188 17.4382 15.6191 17.7379 15.2427 17.7379C14.8663 17.7379 14.5666 17.4382 14.5666 17.0618V12.5455H14.5736Z" fill="#014EFF"/>
<path d="M25.9969 12.2945C25.9969 11.6185 25.4463 11.0748 24.7772 11.0748H23.0487V13.5142H24.7772C25.4532 13.5142 25.9969 12.9636 25.9969 12.2945ZM18.8738 12.5454C18.8738 12.1554 18.7189 11.7814 18.4431 11.5056C18.1673 11.2298 17.7933 11.0748 17.4032 11.0748C17.0132 11.0748 16.6391 11.2298 16.3633 11.5056C16.0876 11.7814 15.9326 12.1554 15.9326 12.5454V13.5142H18.8808V12.5454H18.8738Z" fill="#014EFF"/>
</svg>
