<svg width="46" height="46" viewBox="0 0 46 46" fill="none" xmlns="http://www.w3.org/2000/svg">
<g clip-path="url(#clip0_102_9579)">
<path d="M40.25 25.567C40.25 27.3816 38.7788 28.8527 36.9643 28.8527C35.1497 28.8527 33.6786 27.3816 33.6786 25.567C33.6786 23.7525 35.1497 22.2813 36.9643 22.2813C38.7788 22.2813 40.25 23.7525 40.25 25.567ZM12.3214 25.567C12.3214 27.3816 10.8503 28.8527 9.03571 28.8527C7.22118 28.8527 5.75 27.3816 5.75 25.567C5.75 23.7525 7.22118 22.2813 9.03571 22.2813C10.8503 22.2813 12.3214 23.7525 12.3214 25.567ZM26.2857 22.2813C26.2857 24.0959 24.8145 25.567 23 25.567C21.1855 25.567 19.7143 24.0959 19.7143 22.2813C19.7143 20.4668 21.1855 18.9956 23 18.9956C24.8145 18.9956 26.2857 20.4668 26.2857 22.2813ZM13.1658 44.4599C12.6199 43.7542 12.323 42.8877 12.3214 41.9956V33.7813C12.3251 32.9502 12.469 32.1256 12.747 31.3423C12.6058 31.3326 12.4658 31.317 12.3214 31.317H5.75C4.59658 31.3137 3.46947 31.6615 2.5184 32.314C1.74333 32.8413 1.10877 33.5499 0.669877 34.3783C0.23098 35.2066 0.00102533 36.1296 0 37.067L0 40.3527C0.00145075 41.1376 0.227366 41.9056 0.651089 42.5663C1.07481 43.2269 1.67866 43.7526 2.39138 44.0812C2.67633 44.216 2.97666 44.3156 3.28571 44.3778V35.4242H4.92857V44.4599H13.1658ZM13.9895 45.2813C13.9807 45.2749 13.9735 45.2664 13.9643 45.2601V45.2813H13.9895ZM31.3615 31.0812C30.9211 30.2589 30.2894 29.5546 29.5197 29.0276C29.4433 28.971 29.3632 28.9197 29.2798 28.874C28.3783 28.323 27.3423 28.0314 26.2857 28.0313H19.7143C16.5384 28.0313 13.9643 30.6055 13.9643 33.7813V41.9956C13.9643 43.3565 15.0677 44.4599 16.4286 44.4599H17.25V32.9599H18.8929V44.4599H27.1071V32.9599H28.75V44.4599H29.5714C30.9323 44.4599 32.0357 43.3565 32.0357 41.9956V33.7813C32.036 32.8396 31.8045 31.9123 31.3615 31.0812ZM43.484 32.3158C42.5324 31.6623 41.4044 31.3139 40.25 31.317H33.6786C33.535 31.317 33.395 31.3326 33.2538 31.3423C33.5313 32.1257 33.6749 32.9502 33.6786 33.7813V41.9956C33.677 42.8877 33.3801 43.7542 32.8342 44.4599H41.0714V35.4242H42.7143V44.3778C43.0186 44.3168 43.3143 44.2185 43.5947 44.0853C44.3107 43.7585 44.918 43.2331 45.3443 42.5715C45.7707 41.9099 45.9982 41.1398 46 40.3527V37.067C45.999 36.1301 45.7693 35.2076 45.3308 34.3796C44.8923 33.5516 44.2584 32.8432 43.484 32.3158Z" fill="#014EFF"/>
<path d="M22.9999 10.7813C21.347 10.7781 19.72 11.1913 18.269 11.983C16.818 12.7746 15.5899 13.9191 14.6981 15.3107C13.8062 16.7023 13.2794 18.2962 13.1662 19.9452C13.053 21.5942 13.3571 23.2451 14.0504 24.7456H18.7383C17.535 22.6743 17.9951 20.0384 19.8285 18.4971C21.6619 16.9561 24.3379 16.9561 26.1713 18.4971C28.0047 20.0384 28.4648 22.6743 27.2615 24.7456H31.9534C32.647 23.2448 32.9511 21.5935 32.8378 19.9441C32.7244 18.2947 32.1972 16.7005 31.3049 15.3088C30.4125 13.917 29.1838 12.7726 27.7323 11.9813C26.2807 11.19 24.6531 10.7773 22.9999 10.7813Z" fill="#014EFF"/>
<path d="M42.7144 17.3528H38.2786L38.1191 16.7359C37.7563 15.3245 37.192 13.9727 36.4438 12.7222L36.1149 12.1728L39.2642 9.01775C39.3401 8.94211 39.4004 8.8522 39.4416 8.75319C39.4827 8.65418 39.5039 8.54802 39.5039 8.4408C39.5039 8.33358 39.4827 8.22741 39.4416 8.1284C39.4004 8.02939 39.3401 7.93949 39.2642 7.86385L35.776 4.37442C35.621 4.22652 35.415 4.144 35.2008 4.144C34.9866 4.144 34.7806 4.22652 34.6256 4.37442L31.4706 7.52932L30.9212 7.20075C29.669 6.4521 28.3157 5.88751 26.9027 5.52431L26.2858 5.36383V0.924212C26.2858 0.706355 26.1992 0.497422 26.0452 0.343374C25.8911 0.189326 25.6822 0.102783 25.4644 0.102783H20.5358C20.3179 0.102783 20.109 0.189326 19.9549 0.343374C19.8009 0.497422 19.7144 0.706355 19.7144 0.924212V5.35993L19.0975 5.51949C17.686 5.88249 16.334 6.44645 15.083 7.19407L14.5335 7.52295L11.3793 4.37442C11.2242 4.22541 11.0175 4.1422 10.8024 4.1422C10.5873 4.1422 10.3805 4.22541 10.2254 4.37442L6.73599 7.86261C6.65992 7.93835 6.59955 8.02835 6.55832 8.12746C6.51709 8.22657 6.49582 8.33284 6.49572 8.44018C6.49572 8.65724 6.58228 8.86496 6.73599 9.01775L9.89089 12.1728L9.56232 12.7222C8.81394 13.9727 8.24957 15.3245 7.88661 16.7359L7.7254 17.3528H3.28578C3.06793 17.3528 2.85899 17.4393 2.70495 17.5934C2.5509 17.7474 2.46436 17.9564 2.46436 18.1742V23.1028C2.46436 23.3206 2.5509 23.5296 2.70495 23.6836C2.85899 23.8377 3.06793 23.9242 3.28578 23.9242H4.39718C4.63805 23.2388 5.02788 22.6153 5.53861 22.0986C6.04933 21.5819 6.66826 21.1849 7.35083 20.9361C8.03334 20.6871 8.76258 20.5925 9.48602 20.6593C10.2095 20.726 10.9091 20.9523 11.5346 21.3219C11.5213 21.0945 11.5001 20.8691 11.5001 20.6385C11.5001 14.2873 16.6489 9.1385 23.0001 9.1385C29.3513 9.1385 34.5001 14.2873 34.5001 20.6385C34.5001 20.8691 34.4788 21.0945 34.4656 21.3219C35.091 20.9523 35.7907 20.726 36.5141 20.6593C37.2376 20.5925 37.9668 20.6871 38.6493 20.9361C39.3319 21.1849 39.9508 21.5819 40.4615 22.0986C40.9723 22.6153 41.3621 23.2388 41.603 23.9242H42.7144C42.9322 23.9242 43.1411 23.8377 43.2952 23.6836C43.4492 23.5296 43.5358 23.3206 43.5358 23.1028V18.1742C43.5358 17.9564 43.4492 17.7474 43.2952 17.5934C43.1411 17.4393 42.9322 17.3528 42.7144 17.3528Z" fill="#014EFF"/>
</g>
<defs>
<clipPath id="clip0_102_9579">
<rect width="46" height="46" fill="white"/>
</clipPath>
</defs>
</svg>
