<svg width="50" height="50" viewBox="0 0 50 50" fill="none" xmlns="http://www.w3.org/2000/svg">
<path fill-rule="evenodd" clip-rule="evenodd" d="M5.04607 34.9862C5.1242 35.5155 4.75828 36.0068 4.23142 36.0843C3.69969 36.162 3.21179 35.7956 3.13377 35.2662C3.05574 34.7378 3.42156 34.2456 3.94842 34.168C4.48015 34.0915 4.97293 34.4573 5.04607 34.9862ZM31.4056 14.3281C34.1002 17.3181 36.111 19.9146 37.4377 22.2441C39.9536 26.6616 39.3309 31.1146 36.8642 34.3742L34.6648 35.6552C34.073 35.9999 33.4701 36.2183 32.847 36.3251C33.1069 35.9796 33.3081 35.5663 33.4375 35.0868C33.9267 33.2734 32.8414 31.4801 31.099 30.8763L30.9862 30.8373L30.8688 30.8158C30.4667 30.7419 30.0662 30.6591 29.6678 30.5673C30.0234 30.0917 30.2321 29.5058 30.2152 28.8002C30.2133 28.6935 30.2063 28.5869 30.1943 28.4808C30.0533 27.3189 29.4247 26.5625 28.5912 26.0593C27.8591 25.6172 26.981 25.3971 26.1761 25.265C25.5955 25.1697 24.984 25.0083 24.5361 24.716C24.1891 24.4894 23.9402 24.1615 23.917 23.6819C23.8918 23.1629 24.1183 22.7444 24.4753 22.4542C24.7549 22.2268 25.1116 22.0689 25.4983 21.9911C25.6556 21.9595 25.8153 21.9415 25.9757 21.9375C26.0136 21.9396 26.0517 21.9394 26.0896 21.9368C26.3053 21.9397 26.5199 21.9679 26.7291 22.0207C27.3757 22.1845 27.9643 22.6107 28.2744 23.3491C28.3636 23.5617 28.5336 23.7302 28.7471 23.8175C28.9605 23.9048 29.1999 23.9037 29.4126 23.8145C29.6252 23.7253 29.7937 23.5552 29.881 23.3418C29.9683 23.1283 29.9673 22.8889 29.8781 22.6762C29.3322 21.3761 28.2929 20.625 27.1504 20.3353C27.0666 20.3141 26.9822 20.2955 26.8972 20.2793V19.6053C26.8972 19.3746 26.8056 19.1534 26.6425 18.9903C26.4794 18.8271 26.2581 18.7355 26.0274 18.7355C25.7967 18.7355 25.5755 18.8271 25.4124 18.9903C25.2492 19.1534 25.1576 19.3746 25.1576 19.6053V20.2923C24.4986 20.4252 23.8798 20.7034 23.3812 21.1086C22.6151 21.7315 22.1294 22.6358 22.1842 23.7634C22.2391 24.8963 22.8045 25.6563 23.5916 26.1702C24.2777 26.6181 25.1204 26.8499 25.8974 26.9774C26.5216 27.0798 27.1879 27.2418 27.6942 27.5475C28.0991 27.7919 28.4033 28.1493 28.4683 28.6846C28.4769 28.756 28.4816 28.8079 28.4824 28.841C28.4925 29.2667 28.2888 29.591 27.9831 29.8231C27.8757 29.9037 27.7611 29.974 27.6407 30.0333C25.394 29.3724 23.3067 28.5158 21.0881 27.796C18.7719 27.0445 16.6134 27.895 14.6123 29.0542L13.2494 29.8439C12.8157 27.4662 13.2064 24.8492 14.69 22.2442C16.0168 19.9148 18.0276 17.3182 20.722 14.3283C21.0684 14.4411 21.4304 14.4984 21.7947 14.4982H30.3331C30.6973 14.4983 31.0593 14.4409 31.4056 14.3281ZM21.7946 12.9356H30.333C31.3857 12.9356 32.247 12.0743 32.247 11.0218C32.247 9.96909 31.3858 9.10796 30.333 9.10796H21.7946C20.7419 9.10796 19.8807 9.96909 19.8807 11.0217C19.8806 12.0744 20.7419 12.9356 21.7946 12.9356ZM21.725 7.54624L20.153 5.97427C19.3882 5.20942 19.3882 3.95776 20.153 3.19292C20.8036 2.54233 21.8334 2.43237 22.6076 2.92925C22.8951 3.11382 23.2254 3.14321 23.541 3.01265C23.8565 2.88188 24.0691 2.62769 24.1421 2.2938C24.3348 1.41089 25.1253 0.74458 26.0639 0.744385C26.9856 0.744385 27.7894 1.39409 27.9859 2.2938C28.0588 2.62769 28.2715 2.88188 28.587 3.01265C28.9026 3.14341 29.2328 3.11382 29.5202 2.92925C30.2806 2.44116 31.311 2.52915 31.9748 3.19272V3.19292C32.7396 3.95776 32.7396 5.20942 31.9748 5.97427L30.4028 7.54624C30.3796 7.5457 30.3563 7.54541 30.3331 7.54536H21.7947C21.7714 7.54536 21.7481 7.54585 21.725 7.54624ZM8.16531 34.5949L13.3774 43.7923L15.3386 42.6605C15.4328 42.6059 15.537 42.5705 15.645 42.5564C15.753 42.5423 15.8628 42.5496 15.9679 42.5781L28.2845 45.2907C29.9139 45.7264 31.4459 45.5112 32.846 44.6506L47.8025 35.3552C48.6173 34.8557 48.866 33.3891 48.3051 32.4501C47.4903 31.0899 45.3341 31.2504 42.5338 32.8803L35.4512 37.0053C33.9779 37.866 32.3875 38.1445 30.597 37.8577C30.2742 37.8059 29.9522 37.7493 29.6311 37.6878C29.5628 37.683 23.606 36.1345 22.9231 35.9505C22.4792 35.8325 22.2157 35.3788 22.3377 34.9383C22.4548 34.4963 22.9085 34.2348 23.3475 34.3529C24.0452 34.5397 28.27 35.7374 29.8555 36.0458C30.6654 36.0974 31.6069 35.872 31.929 34.6797C32.1925 33.7021 31.6167 32.7093 30.5874 32.3527C27.6944 31.8229 24.8989 30.8135 22.6548 30.0008C21.8693 29.7173 21.1912 29.4724 20.6057 29.2822C18.7616 28.6841 17.0102 29.4691 15.3954 30.4062L8.16531 34.5949ZM13.1885 46.8318L5.21678 32.7458C5.13875 32.6083 5.01189 32.5096 4.85574 32.4663C4.80322 32.4522 4.74909 32.4449 4.69471 32.4448C4.59382 32.4445 4.49461 32.4706 4.40691 32.5205L1.69441 34.0547C1.40662 34.2172 1.30896 34.5816 1.4699 34.867L9.44158 48.9529C9.60261 49.2393 9.96853 49.3398 10.2514 49.1784L12.9639 47.6436C13.1006 47.566 13.1981 47.4377 13.242 47.284C13.2638 47.2089 13.2703 47.1302 13.2611 47.0525C13.2519 46.9748 13.2272 46.8997 13.1885 46.8318Z" fill="#014EFF"/>
</svg>
