<svg width="51" height="50" viewBox="0 0 51 50" fill="none" xmlns="http://www.w3.org/2000/svg">
<path d="M29.425 38.65H28.749L27.065 35.0199H17.185L15.501 38.65H11.675C11.4761 38.65 11.2853 38.729 11.1447 38.8696C11.004 39.0103 10.925 39.201 10.925 39.4C10.925 39.5989 11.004 39.7896 11.1447 39.9303C11.2853 40.0709 11.4761 40.15 11.675 40.15H29.445L29.425 40.1069V38.65ZM29.425 27.95H1.375V30.61C1.375 32.22 2.675 33.5199 4.285 33.5199H29.425V27.95ZM23.735 31.11H20.515C20.095 31.11 19.765 30.78 19.765 30.36C19.765 29.95 20.095 29.61 20.515 29.61H23.735C23.9339 29.61 24.1247 29.689 24.2653 29.8296C24.406 29.9703 24.485 30.161 24.485 30.36C24.485 30.5589 24.406 30.7496 24.2653 30.8903C24.1247 31.0309 23.9339 31.11 23.735 31.11ZM45.675 20.2H33.875C32.255 20.2 30.925 21.53 30.925 23.16V44.3399C30.925 45.9599 32.255 47.2899 33.875 47.2899H45.675C47.295 47.2899 48.625 45.9599 48.625 44.3399V23.16C48.625 21.53 47.295 20.2 45.675 20.2ZM38.689 22.8449H40.862C41.0609 22.8449 41.2517 22.924 41.3923 23.0646C41.533 23.2053 41.612 23.396 41.612 23.5949C41.612 23.7939 41.533 23.9846 41.3923 24.1253C41.2517 24.2659 41.0609 24.3449 40.862 24.3449H38.689C38.4901 24.3449 38.2993 24.2659 38.1587 24.1253C38.018 23.9846 37.939 23.7939 37.939 23.5949C37.939 23.396 38.018 23.2053 38.1587 23.0646C38.2993 22.924 38.4901 22.8449 38.689 22.8449ZM40.473 44.6449H39.078C38.8791 44.6449 38.6883 44.5659 38.5477 44.4253C38.407 44.2846 38.328 44.0939 38.328 43.8949C38.328 43.696 38.407 43.5053 38.5477 43.3646C38.6883 43.224 38.8791 43.1449 39.078 43.1449H40.473C40.6719 43.1449 40.8627 43.224 41.0033 43.3646C41.144 43.5053 41.223 43.696 41.223 43.8949C41.223 44.0939 41.144 44.2846 41.0033 44.4253C40.8627 44.5659 40.6719 44.6449 40.473 44.6449ZM46.218 41.5449H33.332V25.9449H46.218V41.5449Z" fill="#014EFF"/>
<path d="M42.875 18.7V5.61996C42.875 4.01996 41.575 2.70996 39.965 2.70996H4.285C2.675 2.70996 1.375 4.01996 1.375 5.61996V26.45H29.425V23.16C29.425 20.7 31.425 18.7 33.875 18.7H42.875ZM4.975 10.23C4.675 9.93996 4.675 9.45996 4.975 9.16996L7.585 6.54996C7.885 6.25996 8.355 6.25996 8.645 6.54996C8.945 6.83996 8.945 7.31996 8.645 7.60996L6.035 10.23C5.96557 10.2999 5.883 10.3553 5.79204 10.3932C5.70108 10.4311 5.60352 10.4505 5.505 10.4505C5.40648 10.4505 5.30892 10.4311 5.21796 10.3932C5.127 10.3553 5.04443 10.2999 4.975 10.23ZM12.535 8.86996L7.285 14.12C7.001 14.404 6.549 14.422 6.225 14.12C6.08576 13.9787 6.0077 13.7883 6.0077 13.59C6.0077 13.3916 6.08576 13.2012 6.225 13.06L11.475 7.80996C11.765 7.51996 12.245 7.51996 12.535 7.80996C12.825 8.09996 12.825 8.57996 12.535 8.86996Z" fill="#014EFF"/>
</svg>
