<svg width="51" height="50" viewBox="0 0 51 50" fill="none" xmlns="http://www.w3.org/2000/svg">
<path fill-rule="evenodd" clip-rule="evenodd" d="M32.4756 14.5557L31.7559 20.2324H32.0879C32.4111 20.2324 32.6738 20.4951 32.6738 20.8184V22.1963H32.9355C33.2539 20.9658 34.042 20.0449 34.8711 19.0781C36.1016 17.6426 37.373 16.1582 37.3076 13.3594V13.3457C37.3076 9.58399 34.2471 6.52344 30.4853 6.52344C26.7236 6.52344 23.6631 9.58399 23.6631 13.3457V13.3594C23.5967 16.1582 24.8691 17.6426 26.0996 19.0781C26.9287 20.0449 27.7168 20.9658 28.0352 22.1963H28.2969V20.8184C28.2969 20.4951 28.5596 20.2324 28.8828 20.2324H29.2119L28.4951 14.5742C28.292 14.6631 28.0576 14.7139 27.7939 14.7139C26.8594 14.7139 26.0986 13.9531 26.0986 13.0186C26.0986 12.083 26.8594 11.3223 27.7939 11.3223C28.2988 11.3223 28.7471 11.5156 29.0557 11.8682C29.3223 12.1709 29.4707 12.5723 29.4746 12.998C29.4775 13.0117 29.4795 13.0254 29.4814 13.0391L30.3936 20.2324H30.5742L31.4893 13.0205C31.4902 13.0068 31.4932 12.9932 31.4951 12.9795C31.5 12.5537 31.6484 12.1523 31.9141 11.8496C32.2236 11.4971 32.6709 11.3037 33.1758 11.3037C34.1113 11.3037 34.8721 12.0645 34.8721 13C34.8721 13.9346 34.1113 14.6953 33.1758 14.6953C32.9131 14.6953 32.6787 14.6445 32.4756 14.5557ZM30.5674 39.9434C30.5674 40.9678 31.4014 41.8018 32.4258 41.8018H34.8066C35.0674 42.8184 35.9912 43.5713 37.0879 43.5713C38.3867 43.5713 39.4434 42.5146 39.4434 41.2158C39.4434 39.917 38.3867 38.8604 37.0879 38.8604C35.9912 38.8604 35.0674 39.6143 34.8066 40.6299H32.4258C32.0469 40.6299 31.7393 40.3223 31.7393 39.9434V34.6934H30.5674V39.9434ZM25.1846 40.7031C24.168 40.9639 23.415 41.8877 23.415 42.9844C23.415 44.2832 24.4717 45.3398 25.7705 45.3398C27.0693 45.3398 28.126 44.2832 28.126 42.9844C28.126 41.8877 27.373 40.9639 26.3564 40.7031V34.6924H25.1846V40.7031ZM19.75 34.6934V43.3486C18.7334 43.6104 17.9805 44.5342 17.9805 45.6309C17.9805 46.9297 19.0371 47.9863 20.3359 47.9863C21.6348 47.9863 22.6914 46.9297 22.6914 45.6309C22.6914 44.5342 21.9385 43.6104 20.9219 43.3486V34.6934H19.75ZM13.6807 40.6289H11.2998C11.0391 39.6133 10.1152 38.8594 9.01855 38.8594C7.71973 38.8594 6.66309 39.916 6.66309 41.2148C6.66309 42.5137 7.71973 43.5703 9.01855 43.5703C10.1152 43.5703 11.0391 42.8174 11.2998 41.8008H13.6807C14.7051 41.8008 15.5391 40.9668 15.5391 39.9424V34.6924H14.3672V39.9424C14.3672 40.3223 14.0586 40.6289 13.6807 40.6289ZM43.3428 13.7744H41.0791C40.7559 13.7744 40.4932 14.0361 40.4932 14.3604C40.4932 14.6836 40.7559 14.9463 41.0791 14.9463H43.3428C43.667 14.9463 43.9287 14.6836 43.9287 14.3604C43.9287 14.0361 43.667 13.7744 43.3428 13.7744ZM41.3271 7.42383L39.3672 8.55566C39.0869 8.71777 38.9902 9.0752 39.1523 9.35547C39.2036 9.44481 39.2776 9.51903 39.3668 9.57064C39.4559 9.62225 39.5571 9.64942 39.6602 9.64941C39.7598 9.64941 39.8603 9.62402 39.9531 9.57031L41.9131 8.43848C42.1934 8.27637 42.29 7.91797 42.1279 7.6377C42.0895 7.57098 42.0382 7.51251 41.9771 7.46564C41.9161 7.41877 41.8463 7.38441 41.7719 7.36454C41.6975 7.34467 41.62 7.33968 41.5436 7.34986C41.4673 7.36003 41.3937 7.38517 41.3271 7.42383ZM36.4072 2.93164L35.2744 4.89258C35.1133 5.17285 35.209 5.53125 35.4893 5.69238C35.5811 5.74609 35.6826 5.77148 35.7812 5.77148C35.9844 5.77148 36.1807 5.66602 36.29 5.47852L37.4219 3.51758C37.583 3.2373 37.4873 2.87891 37.207 2.7168C36.9268 2.55566 36.5684 2.65039 36.4072 2.93164ZM29.8994 1.50195V3.76562C29.8994 4.08984 30.1621 4.35156 30.4853 4.35156C30.8086 4.35156 31.0713 4.08984 31.0713 3.76562V1.50195C31.0713 1.17871 30.8086 0.916016 30.4853 0.916016C30.1621 0.916016 29.8994 1.17773 29.8994 1.50195ZM23.5488 3.51758L24.6807 5.47852C24.7891 5.66602 24.9863 5.77148 25.1885 5.77148C25.2881 5.77148 25.3887 5.74609 25.4814 5.69238C25.7617 5.53125 25.8574 5.17285 25.6953 4.89258L24.5635 2.93164C24.4023 2.65137 24.0439 2.55566 23.7637 2.7168C23.4834 2.87793 23.3867 3.2373 23.5488 3.51758ZM19.0566 8.43848L21.0176 9.57031C21.1103 9.62402 21.2109 9.64941 21.3105 9.64941C21.5127 9.64941 21.71 9.54395 21.8184 9.35547C21.8958 9.2209 21.9167 9.06107 21.8764 8.91111C21.8362 8.76114 21.738 8.6333 21.6035 8.55566L19.6426 7.42383C19.3623 7.26172 19.0039 7.35742 18.8428 7.6377C18.6807 7.91699 18.7764 8.27637 19.0566 8.43848ZM17.627 14.9463H19.8916C20.2148 14.9463 20.4775 14.6836 20.4775 14.3604C20.4775 14.0361 20.2148 13.7744 19.8916 13.7744H17.627C17.3037 13.7744 17.041 14.0361 17.041 14.3604C17.041 14.6836 17.3037 14.9463 17.627 14.9463ZM26.9697 26.4346C26.9697 26.5908 27.0322 26.7393 27.1426 26.8496L28.3623 28.0654C28.7715 28.4727 29.2607 28.6797 29.8164 28.6797H31.1543C31.71 28.6797 32.1992 28.4727 32.6074 28.0654L33.8281 26.8496C33.8828 26.7952 33.9263 26.7305 33.9559 26.6593C33.9856 26.5881 34.0009 26.5117 34.001 26.4346V23.9541C35.8418 24.7148 37.0732 26.5098 37.0732 28.5478C37.0732 31.291 34.8418 33.5215 32.0996 33.5215H14.0068C11.2637 33.5215 9.0332 31.291 9.0332 28.5478C9.0332 25.9316 11.0781 23.752 13.6885 23.585C13.7772 23.5791 13.8634 23.5531 13.9407 23.5092C14.018 23.4652 14.0844 23.4043 14.1348 23.3311C14.1848 23.2576 14.2176 23.1737 14.2306 23.0858C14.2436 22.9978 14.2366 22.9081 14.21 22.8232C14.0732 22.3936 14.0049 21.9443 14.0049 21.4893C14.0049 19.0479 15.9902 17.0625 18.4307 17.0625C19.2287 17.0623 20.0119 17.2778 20.6975 17.6863C21.3831 18.0947 21.9455 18.6809 22.3252 19.3828C22.4131 19.5459 22.5723 19.6572 22.7559 19.6836C22.9385 19.7109 23.123 19.6494 23.2539 19.5186C23.5654 19.208 23.9121 18.9424 24.2891 18.7236C24.5908 19.1172 24.9053 19.4844 25.21 19.8408C26.0615 20.834 26.7969 21.6943 26.9697 22.8311V26.4346ZM32.8291 25.7295H28.1416V26.1914L29.1894 27.2354C29.376 27.4209 29.5752 27.5078 29.8164 27.5078H31.1543C31.3955 27.5078 31.5947 27.4209 31.7803 27.2354L32.8291 26.1914V25.7295ZM32.8291 23.3682H28.1416V24.5576H32.8291V23.3682ZM31.5019 21.4043V22.1963H29.4687V21.4043H31.5019ZM27.7939 13.541C27.5059 13.541 27.2705 13.3066 27.2705 13.0176C27.2705 12.7285 27.5059 12.4932 27.7939 12.4932C27.9639 12.4932 28.0889 12.541 28.1758 12.6396C28.2568 12.7324 28.3037 12.8691 28.3037 13.0156C28.3037 13.1396 28.2666 13.541 27.7939 13.541ZM32.667 12.998C32.667 12.8516 32.7139 12.7148 32.7949 12.6221C32.8818 12.5234 33.0068 12.4756 33.1758 12.4756C33.4648 12.4756 33.7002 12.7109 33.7002 13C33.7002 13.2891 33.4648 13.5234 33.1758 13.5234C32.7041 13.5234 32.667 13.1211 32.667 12.998Z" fill="#014EFF"/>
</svg>
