<svg width="51" height="50" viewBox="0 0 51 50" fill="none" xmlns="http://www.w3.org/2000/svg">
<path fill-rule="evenodd" clip-rule="evenodd" d="M18.1269 30.989H9.32678C5.00551 30.989 1.4707 27.4542 1.4707 23.1358C1.4707 19.8593 3.50492 17.0359 6.37002 15.8604C6.35652 15.6198 6.35002 15.3789 6.35051 15.1379C6.35051 8.20438 11.9696 2.58252 18.9031 2.58252C22.2934 2.58252 25.3725 3.92762 27.6318 6.11458C28.8268 5.68664 30.1134 5.45321 31.4556 5.45321C37.2997 5.45321 42.1074 9.87458 42.7215 15.5547C46.1313 16.4801 48.5295 19.5981 48.5295 23.1358C48.5295 25.4383 47.5246 27.5181 45.9314 28.958C45.7221 28.3886 45.474 27.8342 45.1889 27.2987C45.189 27.2988 45.8619 25.7797 45.8619 25.7797C45.9902 25.4901 46.0278 25.1684 45.9698 24.857C45.9118 24.5457 45.7608 24.2591 45.5369 24.0352L42.893 21.3913C42.6687 21.1671 42.3818 21.0161 42.07 20.9583C41.7582 20.9004 41.4362 20.9384 41.1465 21.0672L39.6282 21.7423C38.8736 21.3408 38.0822 21.0127 37.2648 20.7628L36.6686 19.2112C36.5549 18.9152 36.354 18.6606 36.0926 18.481C35.8312 18.3013 35.5215 18.2052 35.2043 18.2052H31.4645C31.1478 18.2052 30.8384 18.3011 30.5772 18.4803C30.316 18.6595 30.1151 18.9136 30.0011 19.2091L29.4017 20.7624C28.5838 21.0124 27.7919 21.3405 27.0369 21.7423L25.5186 21.0672C25.2289 20.9384 24.9069 20.9004 24.5951 20.9583C24.2833 21.0161 23.9964 21.1671 23.7722 21.3913L21.1283 24.0352C20.904 24.2594 20.7531 24.5463 20.6952 24.8581C20.6373 25.1699 20.6753 25.4919 20.8041 25.7816L21.4792 27.3C21.0771 28.0559 20.7483 28.8486 20.4973 29.6672L18.9474 30.2637C18.5956 30.399 18.3043 30.6565 18.1269 30.989ZM14.3086 15.0831L16.2933 14.7688C16.4987 14.7362 16.6827 14.6233 16.8049 14.455C16.9272 14.2868 16.9776 14.0769 16.9452 13.8714C16.9126 13.666 16.7997 13.482 16.6315 13.3597C16.4632 13.2375 16.2533 13.187 16.0479 13.2195L12.5429 13.7746C12.3793 13.8005 12.2281 13.8775 12.111 13.9946C11.9938 14.1118 11.9168 14.2629 11.8909 14.4265L11.3358 17.9315C11.2681 18.359 11.5602 18.7611 11.9878 18.8289C12.1932 18.8613 12.4031 18.8108 12.5714 18.6886C12.7396 18.5663 12.8525 18.3822 12.8851 18.1768L13.1994 16.1923L17.3356 20.3284C17.6417 20.6345 18.1386 20.6345 18.4447 20.3284C18.7508 20.0223 18.7508 19.5254 18.4447 19.2192L14.3086 15.0831ZM22.7501 12.737L18.6139 8.60085C18.4668 8.45385 18.2673 8.37128 18.0593 8.37128C17.8513 8.37128 17.6519 8.45385 17.5047 8.60085C17.3577 8.74799 17.2752 8.94747 17.2752 9.15546C17.2752 9.36345 17.3577 9.56293 17.5047 9.71007L21.6409 13.8462L19.6563 14.1606C19.2287 14.2282 18.9366 14.6304 19.0043 15.0579C19.0721 15.4855 19.4741 15.7775 19.9017 15.7099L23.4066 15.1547C23.5702 15.1288 23.7214 15.0518 23.8385 14.9346C23.9556 14.8175 24.0327 14.6663 24.0585 14.5027L24.6137 10.9978C24.6814 10.5703 24.3893 10.1682 23.9618 10.1005C23.5342 10.0327 23.1321 10.3249 23.0644 10.7524L22.7501 12.737ZM36.0856 22.0674C37.3058 22.3573 38.4717 22.8404 39.5392 23.4986L41.7838 22.5006L44.4277 25.1444L43.4334 27.389C44.0922 28.4575 44.5754 29.6248 44.8645 30.8463L47.1543 31.7276V35.4674L44.8645 36.3487C44.5745 37.5689 44.0887 38.7326 43.4334 39.8022L44.4277 42.0468L41.7838 44.6907L39.5392 43.6964C38.4734 44.3555 37.3059 44.8376 36.0856 45.1275L35.2043 47.4174H31.4645L30.5833 45.1275C29.3592 44.8376 28.1955 44.3517 27.126 43.6964L24.8813 44.6907L22.2375 42.0468L23.2355 39.8022C22.5765 38.7364 22.0943 37.5689 21.8006 36.3487L19.5108 35.4674V31.7276L21.8006 30.8463C22.0927 29.6252 22.5771 28.4582 23.2355 27.389L22.2375 25.1444L24.8813 22.5006L27.126 23.4986C28.1935 22.8404 29.3594 22.3573 30.5795 22.0674L31.4645 19.7738H35.2043L36.0856 22.0674ZM33.332 24.1755C28.1273 24.1755 23.9125 28.3904 23.9125 33.595C23.9125 38.7995 28.1275 43.0195 33.332 43.0195C38.5364 43.0195 42.7565 38.7994 42.7565 33.595C42.7565 28.3905 38.5365 24.1755 33.332 24.1755ZM33.332 25.7441C37.67 25.7441 41.1879 29.2569 41.1879 33.595C41.1879 37.9332 37.6701 41.4509 33.332 41.4509C28.9939 41.4509 25.4811 37.933 25.4811 33.595C25.4811 29.257 28.994 25.7441 33.332 25.7441ZM30.4388 35.1175L29.3332 33.5957L30.4388 32.0737C30.6933 31.7235 30.6155 31.2326 30.2653 30.9782C29.9151 30.7238 29.4242 30.8015 29.1698 31.1517L27.7291 33.1346C27.6318 33.2686 27.5794 33.43 27.5794 33.5956C27.5794 33.7612 27.6318 33.9226 27.7291 34.0566L29.1698 36.0395C29.4242 36.3897 29.9151 36.4674 30.2653 36.213C30.6155 35.9586 30.6933 35.4677 30.4388 35.1175ZM33.0979 35.94L34.9593 32.3561C35.0551 32.1715 35.0737 31.9564 35.011 31.7581C34.9482 31.5598 34.8093 31.3946 34.6248 31.2986C34.2407 31.0991 33.7669 31.249 33.5673 31.6331L31.7058 35.2169C31.61 35.4015 31.5914 35.6166 31.6542 35.8149C31.7169 36.0133 31.8558 36.1785 32.0403 36.2745C32.2249 36.3703 32.44 36.3888 32.6383 36.3261C32.8366 36.2634 33.0019 36.1245 33.0979 35.94ZM37.4953 36.0395L38.936 34.0566C39.0334 33.9226 39.0858 33.7612 39.0858 33.5956C39.0858 33.43 39.0334 33.2686 38.936 33.1346L37.4953 31.1517C37.2409 30.8015 36.75 30.7238 36.3998 30.9782C36.0496 31.2326 35.9719 31.7235 36.2263 32.0737L37.332 33.5956L36.2263 35.1175C35.9719 35.4677 36.0496 35.9586 36.3998 36.213C36.75 36.4674 37.2409 36.3897 37.4953 36.0395Z" fill="#014EFF"/>
</svg>
