<svg width="51" height="50" viewBox="0 0 51 50" fill="none" xmlns="http://www.w3.org/2000/svg">
<path d="M17.5391 36.7578C16.7969 36.7578 16.1719 36.25 15.9766 35.5469L9.57031 11.4062C9.49219 11.1719 9.29688 11.0156 9.0625 11.0156H5.9375V9.45312H9.0625C10 9.45312 10.8203 10.0781 11.0938 10.9766L12.9297 17.9297H42.4219C42.9297 17.9297 43.3984 18.1641 43.7109 18.5547C44.0234 18.9453 44.1406 19.4531 44.0234 19.9219L40.3125 35.5469C40.1562 36.25 39.4922 36.7969 38.75 36.7969H17.5391V36.7578ZM19.5312 31.6797H36.6406V29.3359H19.5312V31.6797ZM17.8125 25.625H38.3203V23.2812H17.8125V25.625Z" fill="#014EFF"/>
<path d="M9.0625 9.64844C9.92188 9.64844 10.6641 10.1953 10.8984 11.0547L12.6953 17.8516L12.7734 18.125H42.4219C42.8516 18.125 43.2812 18.3203 43.5547 18.6719C43.8281 19.0234 43.9062 19.4531 43.8281 19.8828L40.1172 35.5078C39.9609 36.1328 39.4141 36.6016 38.75 36.6016H17.5391C16.9141 36.6016 16.3281 36.1719 16.1719 35.5469L9.76562 11.3672C9.6875 11.0547 9.41406 10.8594 9.0625 10.8594H6.13281V9.6875H9.0625M17.6172 25.8203H38.5156V23.0859H17.6172V25.4297V25.8203ZM19.3359 31.875H36.8359V29.1406H19.3359V31.4844V31.875ZM9.0625 9.25781H5.74219V11.2109H9.0625C9.21875 11.2109 9.33594 11.3281 9.375 11.4453L15.7812 35.625C15.9766 36.4062 16.7188 36.9531 17.5391 36.9531H38.7109C39.5312 36.9531 40.2734 36.3672 40.4688 35.5469L44.1797 19.9219C44.2969 19.375 44.1797 18.8281 43.8672 18.3984C43.5156 17.9687 43.0078 17.6953 42.4609 17.6953H13.0859L11.2891 10.9375C11.0156 9.92187 10.1172 9.25781 9.0625 9.25781ZM18.0078 25.4297V23.4766H38.125V25.4297H18.0078ZM19.7266 31.4844V29.5312H36.4453V31.4844H19.7266Z" fill="#014EFF"/>
<path d="M20.7422 42.0703C21.8424 42.0703 22.7344 41.1784 22.7344 40.0781C22.7344 38.9779 21.8424 38.0859 20.7422 38.0859C19.6419 38.0859 18.75 38.9779 18.75 40.0781C18.75 41.1784 19.6419 42.0703 20.7422 42.0703Z" fill="#014EFF"/>
<path d="M20.7422 38.2813C21.7187 38.2813 22.5391 39.1016 22.5391 40.0781C22.5391 41.0547 21.7187 41.875 20.7422 41.875C19.7656 41.875 18.9453 41.0547 18.9453 40.0781C18.9453 39.1016 19.7266 38.2813 20.7422 38.2813ZM20.7422 37.8906C19.5312 37.8906 18.5547 38.8672 18.5547 40.0781C18.5547 41.2891 19.5312 42.2656 20.7422 42.2656C21.9531 42.2656 22.9297 41.2891 22.9297 40.0781C22.9297 38.8672 21.9531 37.8906 20.7422 37.8906Z" fill="#014EFF"/>
<path d="M35.9766 42.0703C37.0768 42.0703 37.9687 41.1784 37.9687 40.0781C37.9687 38.9779 37.0768 38.0859 35.9766 38.0859C34.8763 38.0859 33.9844 38.9779 33.9844 40.0781C33.9844 41.1784 34.8763 42.0703 35.9766 42.0703Z" fill="#014EFF"/>
<path d="M35.9766 38.2813C36.9531 38.2813 37.7734 39.1016 37.7734 40.0781C37.7734 41.0547 36.9531 41.875 35.9766 41.875C35 41.875 34.1797 41.0547 34.1797 40.0781C34.1797 39.1016 35 38.2813 35.9766 38.2813ZM35.9766 37.8906C34.7656 37.8906 33.7891 38.8672 33.7891 40.0781C33.7891 41.2891 34.7656 42.2656 35.9766 42.2656C37.1875 42.2656 38.1641 41.2891 38.1641 40.0781C38.1641 38.8672 37.1875 37.8906 35.9766 37.8906ZM33.0859 16.8359V16.7578C33.0859 14.3359 31.0938 12.3438 28.6719 12.3438C26.25 12.3438 24.2578 14.3359 24.2578 16.7578V16.8359H19.8047V15.3516H21.5234L21.5625 15.1953C21.7578 14.3359 22.0703 13.5547 22.5391 12.8125L22.6172 12.6953L21.4062 11.4844L23.3984 9.49219L24.6094 10.7031L24.7266 10.625C25.4687 10.1562 26.25 9.84375 27.1094 9.64844L27.2656 9.60937V7.89062H30.0781V9.64844L30.2344 9.6875C31.0938 9.88281 31.875 10.1953 32.6172 10.6641L32.7344 10.7422L33.9453 9.49219L35.9375 11.4844L34.7266 12.6953L34.8047 12.8125C35.2734 13.5547 35.5859 14.3359 35.7812 15.1953L35.8203 15.3516H37.5V16.8359H33.0859Z" fill="#014EFF"/>
<path d="M29.8438 8.125V9.84375L30.1562 9.92188C30.9766 10.1172 31.7578 10.4297 32.4609 10.8594L32.7344 11.0156L32.9688 10.7813L33.9453 9.80469L35.625 11.4844L34.6484 12.4609L34.4141 12.6953L34.5703 12.9688C35.0391 13.6719 35.3516 14.4531 35.5078 15.2734L35.5859 15.5859H37.3047V16.6797H33.2812C33.2031 14.1797 31.1719 12.1875 28.6719 12.1875C26.1719 12.1875 24.1406 14.1797 24.0625 16.6797H20V15.5859H21.6797L21.7578 15.2734C21.9531 14.4531 22.2656 13.6719 22.6953 12.9688L22.8516 12.6953L22.6563 12.4609L21.6797 11.4844L23.3594 9.80469L24.3359 10.7813L24.5703 11.0156L24.8438 10.8594C25.5469 10.3906 26.3281 10.0781 27.1484 9.92188L27.4609 9.84375V8.16406H29.8438M30.2344 7.73438H27.0312V9.49219C26.1719 9.6875 25.3516 10.0391 24.6094 10.5078L23.3594 9.25781L21.0938 11.5234L22.3438 12.7734C21.875 13.5156 21.5234 14.3359 21.3281 15.1953H19.5703V17.0703H24.4141V16.7969C24.4141 14.4531 26.2891 12.5781 28.6328 12.5781C30.9766 12.5781 32.8906 14.4531 32.8906 16.7578V17.0312H37.7344V15.1563H35.9375C35.7422 14.2969 35.3906 13.4766 34.9219 12.7344L36.1719 11.4844L33.9063 9.21875L32.6562 10.5078C31.9141 10.0391 31.0938 9.6875 30.2344 9.49219V7.73438Z" fill="#014EFF"/>
</svg>
