<svg width="36" height="36" viewBox="0 0 36 36" fill="none" xmlns="http://www.w3.org/2000/svg">
<path d="M14.2286 7.38281H19.4975C20.0795 7.38281 20.5506 6.91031 20.5506 6.32812V1.05469C20.5506 0.4725 20.0795 0 19.4975 0H14.2286C13.6473 0 13.1755 0.4725 13.1755 1.05469V6.32812C13.1755 6.91031 13.6472 7.38281 14.2286 7.38281ZM30.0725 20.8716C28.8565 20.8716 27.8709 21.858 27.8709 23.0745V21.0916C27.871 19.8747 26.8843 18.8888 25.67 18.8888C24.454 18.8888 23.4683 19.8745 23.4683 21.0916V18.8888C23.4686 17.6721 22.4821 16.6849 21.2674 16.6852C20.0514 16.6852 19.0658 17.6716 19.0658 18.8888V11.9855C19.0676 10.7511 18.0458 9.75164 16.8115 9.78258C15.6089 9.8107 14.6632 10.8253 14.6632 12.0298V24.7746L12.4322 22.5415C11.5604 21.6687 10.1423 21.6828 9.28624 22.5738C8.45149 23.4443 8.49713 24.8351 9.34945 25.688L12.4637 28.8049C13.9148 30.2576 14.4583 32.0295 14.9588 33.975C15.0536 34.3062 15.1203 34.7013 15.1722 35.088C15.2424 35.6105 15.689 36 16.2155 36H29.1354C29.6151 36 30.0347 35.6756 30.1546 35.2103C30.4606 34.0229 30.8797 32.6869 31.2646 32.0365C31.9189 30.9298 32.2734 29.6719 32.2734 28.3866V23.0745C32.2736 21.8575 31.2868 20.8716 30.0725 20.8716ZM23.7863 11.8779H30.8749C31.6796 11.9032 32.216 10.9266 31.7651 10.26L28.2296 4.65398C27.8459 3.99565 26.8155 3.99565 26.4324 4.65398L22.8961 10.26C22.4456 10.9264 22.9827 11.9032 23.7863 11.8779ZM11.1016 9.14062C11.1016 7.10508 9.44761 5.44922 7.41445 5.44922H7.41375C5.37989 5.44992 3.72656 7.10508 3.72656 9.14062C3.72656 11.1762 5.37989 12.8313 7.41375 12.832H7.41445C9.44761 12.832 11.1016 11.1762 11.1016 9.14062Z" fill="#014EFF"/>
</svg>
