<svg width="36" height="36" viewBox="0 0 36 36" fill="none" xmlns="http://www.w3.org/2000/svg">
<path d="M30.7266 24.1849L29.4618 25.8718L31.149 27.1377H27.3424C26.8708 25.323 25.2339 23.9736 23.2734 23.9736H12.7266C10.766 23.9736 9.12909 25.323 8.65751 27.1377H6.32812C4.00148 27.1377 2.10938 25.2456 2.10938 22.9189C2.10938 20.5923 4.00148 18.7002 6.32812 18.7002H8.65751C9.12909 20.5149 10.766 21.8643 12.7266 21.8643H23.2734C25.234 21.8643 26.8709 20.5149 27.3425 18.7002H29.6719C33.1614 18.7002 36 15.8616 36 12.3721C36 8.88253 33.1614 6.04395 29.6719 6.04395H27.3425C26.8709 4.22925 25.234 2.87988 23.2734 2.87988H12.7266C10.766 2.87988 9.12909 4.22925 8.65751 6.04395H7.73438L3.79631 3.0911L2.53181 4.77804L4.21903 6.04395H0V8.15332H4.21903L2.53181 9.41923L3.79631 11.1062L7.73438 8.15332H8.65751C9.12909 9.96802 10.766 11.3174 12.7266 11.3174H23.2734C25.234 11.3174 26.8709 9.96802 27.3425 8.15332H29.6719C31.9985 8.15332 33.8906 10.0454 33.8906 12.3721C33.8906 14.6987 31.9985 16.5908 29.6719 16.5908H27.3425C26.8709 14.7761 25.234 13.4268 23.2734 13.4268H12.7266C10.766 13.4268 9.12909 14.7761 8.65751 16.5908H6.32812C2.83859 16.5908 0 19.4294 0 22.9189C0 26.4085 2.83859 29.2471 6.32812 29.2471H8.65751C9.12909 31.0618 10.766 32.4111 12.7266 32.4111H23.2734C25.234 32.4111 26.8709 31.0618 27.3425 29.2471H31.149L29.4618 30.513L30.7266 32.1999L36 28.1924L30.7266 24.1849Z" fill="#014EFF"/>
</svg>
