<svg width="36" height="36" viewBox="0 0 36 36" fill="none" xmlns="http://www.w3.org/2000/svg">
<g clip-path="url(#clip0_325_4914)">
<path d="M29.9582 7.86556C29.9582 8.2215 30.2081 7.18229 26.6166 20.5831C26.4176 19.8112 26.4772 21.481 26.4772 6.82403C27.5082 5.25411 29.9582 5.99502 29.9582 7.86556ZM25.316 2.20645V18.0014C21.0903 10.6837 22.9535 13.9088 20.903 10.3573V2.20645C20.903 0.99 21.893 0 23.1095 0C24.3449 0 25.316 1.00132 25.316 2.20645ZM22.7647 15.9046L21.0518 14.1924C19.5605 12.7004 17.5992 11.8452 15.2614 11.8452L11.3478 5.31871C10.744 4.26956 11.0973 2.92014 12.1571 2.30806C13.2231 1.69338 14.5681 2.07196 15.1714 3.11589C21.1417 13.038 18.0863 7.80097 22.7647 15.9046Z" fill="#014EFF"/>
<path d="M25.9252 24.2846C25.9252 27.9092 24.4839 31.4031 21.9093 33.9799C20.6529 35.2348 18.9843 35.9519 17.2104 35.9976C16.9278 35.9976 18.2983 35.9998 14.1287 35.9998C9.66784 35.9998 6.03809 32.3708 6.03809 27.9092V16.7608C6.03809 16.3979 6.33349 16.1033 6.69639 16.1033C6.7533 16.1033 6.80004 16.1 6.86986 16.0808C7.05066 16.1525 8.68314 16.1276 9.7876 17.7262C10.5009 18.6792 10.451 19.7894 10.451 20.477C10.451 22.9614 11.5237 25.3239 13.3927 26.9606C15.4167 28.7322 18.5829 27.2795 18.5829 24.6054C18.5822 21.6363 18.6963 20.952 18.1794 19.7787C17.7168 18.7337 17.1348 18.2824 16.3547 17.5708C16.0892 17.3582 16.4168 17.4191 10.9634 17.4191C10.2446 16.1412 8.89609 15.1727 7.28938 14.9783C7.3547 14.3534 7.69024 13.7569 8.26413 13.3735C9.21871 12.9078 8.15301 13.0062 15.3857 13.0062C17.2155 13.0062 18.9364 13.719 20.2305 15.0131L25.0085 19.7911L25.3699 20.4175C25.7086 21.6616 25.9252 22.8065 25.9252 24.2846Z" fill="#014EFF"/>
</g>
<defs>
<clipPath id="clip0_325_4914">
<rect width="36" height="36" fill="white"/>
</clipPath>
</defs>
</svg>
