<svg width="206" height="66" viewBox="0 0 206 66" fill="none" xmlns="http://www.w3.org/2000/svg">
<path d="M20.8141 45.4667H14.5235L10.0547 37.3026C9.74535 37.3255 9.28701 37.337 8.67967 37.337H5.99845V45.4667H0.412506V19.9776H8.64535C12.7016 19.9776 15.6406 20.6708 17.4625 22.0573C19.2844 23.4323 20.1953 25.5922 20.1953 28.537C20.1953 32.3068 18.5281 34.8849 15.1938 36.2713L20.8141 45.4667ZM5.96407 33.1432H8.92035C10.9141 33.1432 12.3578 32.8281 13.2516 32.1979C14.1453 31.5562 14.5922 30.462 14.5922 28.9151C14.5922 27.3682 14.1453 26.2739 13.2516 25.6323C12.3578 24.9906 10.9141 24.6698 8.92035 24.6698H5.96407V33.1432ZM24.5438 45.4667V19.9776H41.4047V24.9448H30.0953V30.4448H40.7688V34.7588H30.0953V40.4995H41.4047V45.4667H24.5438ZM47.2656 45.6729C46.1083 45.6729 44.9682 45.5583 43.8453 45.3292L44.55 40.5682C45.1573 40.6713 45.7531 40.7229 46.3375 40.7229C47.6667 40.7229 48.6005 40.3333 49.1391 39.5542C49.6891 38.775 49.9641 37.4859 49.9641 35.687V19.9776H55.6016V36.4261C55.6016 39.6917 54.9083 42.0521 53.5219 43.5073C52.1469 44.9511 50.0614 45.6729 47.2656 45.6729ZM75.3669 45.3979C74.1987 45.7073 72.9609 45.862 71.6547 45.862C70.3484 45.862 69.1109 45.7073 67.9422 45.3979C66.7734 45.0886 65.6734 44.5958 64.6422 43.9198C63.6224 43.2323 62.7401 42.3901 61.9953 41.3932C61.262 40.3849 60.6776 39.1474 60.2422 37.6807C59.8182 36.2026 59.6062 34.5641 59.6062 32.7651C59.6062 31.0005 59.8182 29.3906 60.2422 27.9355C60.6776 26.4802 61.2677 25.2484 62.0125 24.2401C62.7688 23.2318 63.6625 22.3838 64.6938 21.6963C65.725 21.0088 66.825 20.5047 67.9938 20.1838C69.1739 19.863 70.4172 19.7026 71.7234 19.7026C73.0068 19.7026 74.2331 19.863 75.4013 20.1838C76.5703 20.5047 77.6644 21.0088 78.6845 21.6963C79.7155 22.3838 80.6036 23.2318 81.3487 24.2401C82.1047 25.237 82.7002 26.4688 83.1358 27.9355C83.5714 29.3906 83.7892 31.0005 83.7892 32.7651C83.7892 34.5641 83.5714 36.2026 83.1358 37.6807C82.7002 39.1474 82.1106 40.3849 81.3655 41.3932C80.6212 42.3901 79.7273 43.2323 78.6845 43.9198C77.6534 44.5958 76.5475 45.0886 75.3669 45.3979ZM71.6547 40.8948C73.6941 40.8948 75.2987 40.1901 76.4669 38.7807C77.6475 37.3713 78.2379 35.3662 78.2379 32.7651C78.2379 30.2328 77.6417 28.2505 76.45 26.8182C75.2701 25.3859 73.6831 24.6698 71.6891 24.6698C69.6609 24.6698 68.0511 25.3859 66.8594 26.8182C65.6677 28.2391 65.0719 30.2213 65.0719 32.7651C65.0719 35.3662 65.6562 37.3713 66.825 38.7807C67.9938 40.1901 69.6037 40.8948 71.6547 40.8948ZM88.1379 45.4667V19.9776H93.6892V45.4667H88.1379ZM110.224 45.8963C108.951 45.8963 107.737 45.7417 106.58 45.4323C105.423 45.1229 104.317 44.6302 103.262 43.9542C102.22 43.2781 101.314 42.4417 100.547 41.4448C99.7788 40.4364 99.1665 39.1932 98.7081 37.7151C98.2608 36.237 98.0379 34.5984 98.0379 32.7995C98.0379 31.0463 98.2608 29.4364 98.7081 27.9698C99.1665 26.5031 99.7788 25.2656 100.547 24.2573C101.314 23.2489 102.22 22.3953 103.262 21.6963C104.305 20.9974 105.411 20.4875 106.58 20.1667C107.749 19.8344 108.963 19.6682 110.224 19.6682C111.209 19.6682 112.166 19.7656 113.094 19.9605C114.033 20.1552 114.962 20.4818 115.878 20.9401C116.806 21.3984 117.643 21.9713 118.388 22.6588C119.144 23.3349 119.814 24.2 120.399 25.2542C120.983 26.2969 121.418 27.4713 121.705 28.7776L116.239 29.7401C115.815 28.1016 115.064 26.8641 113.988 26.0276C112.911 25.1912 111.644 24.7729 110.189 24.7729C108.264 24.7729 106.712 25.4948 105.531 26.9386C104.362 28.3708 103.778 30.3245 103.778 32.7995C103.778 35.2745 104.362 37.2281 105.531 38.6605C106.7 40.0812 108.252 40.7917 110.189 40.7917C111.667 40.7917 112.945 40.362 114.022 39.5026C115.111 38.6432 115.85 37.3713 116.239 35.687L121.739 36.6323C121.464 37.9614 121.034 39.1588 120.45 40.2245C119.866 41.2901 119.195 42.1724 118.439 42.8713C117.694 43.5588 116.858 44.1375 115.93 44.6073C115.001 45.0656 114.068 45.3922 113.128 45.587C112.188 45.7932 111.22 45.8963 110.224 45.8963ZM125.709 45.4667V19.9776H142.57V24.9448H131.261V30.4448H141.934V34.7588H131.261V40.4995H142.57V45.4667H125.709Z" fill="#0B0B14"/>
<path d="M23.2665 63.9253C22.9023 63.9253 22.5531 63.8802 22.2188 63.79C21.888 63.6998 21.5722 63.556 21.2714 63.3588C20.9706 63.1617 20.7099 62.9177 20.4893 62.627C20.2688 62.3328 20.0933 61.9703 19.963 61.5391C19.8326 61.108 19.7675 60.6301 19.7675 60.1054C19.7675 59.594 19.831 59.1245 19.958 58.6967C20.0884 58.269 20.2638 57.908 20.4844 57.614C20.7082 57.3198 20.9689 57.0709 21.2664 56.867C21.5672 56.6631 21.8847 56.5144 22.2188 56.4208C22.5564 56.3239 22.9057 56.2755 23.2665 56.2755C23.544 56.2755 23.8146 56.3039 24.0787 56.3607C24.3427 56.4142 24.605 56.5044 24.8657 56.6314C25.1297 56.7584 25.3687 56.9172 25.5826 57.1076C25.7965 57.2981 25.9887 57.5404 26.1591 57.8345C26.3295 58.1252 26.4598 58.4544 26.5501 58.8221L25.3821 59.0377C25.2384 58.4995 24.9777 58.0885 24.6 57.8044C24.2257 57.517 23.7813 57.3733 23.2665 57.3733C22.5781 57.3733 22.025 57.6206 21.6073 58.1152C21.1929 58.6065 20.9857 59.2699 20.9857 60.1054C20.9857 60.9476 21.1912 61.6093 21.6022 62.0905C22.0134 62.5718 22.5681 62.8124 23.2665 62.8124C23.7912 62.8124 24.2408 62.6671 24.6151 62.3763C24.9927 62.0822 25.2517 61.6561 25.3921 61.098L26.5602 61.3136C26.4733 61.6879 26.3446 62.0254 26.1741 62.3261C26.007 62.6236 25.8149 62.8709 25.5977 63.0681C25.3837 63.2653 25.1448 63.429 24.8808 63.5594C24.6168 63.6897 24.3511 63.7833 24.0837 63.8401C23.8197 63.8969 23.5473 63.9253 23.2665 63.9253ZM34.5148 63.8H33.1412L31.507 61.2935C31.2731 61.3069 31.0926 61.3136 30.9656 61.3136H30.0081V63.8H28.81V56.3657H30.9856C32.162 56.3657 33.0243 56.5562 33.5724 56.9372C34.1205 57.3181 34.3945 57.9465 34.3945 58.8221C34.3945 60.0018 33.8263 60.7604 32.69 61.098L34.5148 63.8ZM29.998 60.321H31.0759C31.4502 60.321 31.7593 60.3009 32.0033 60.2608C32.2506 60.2207 32.4678 60.1489 32.655 60.0453C32.8421 59.9416 32.9775 59.7946 33.061 59.6041C33.1479 59.4103 33.1913 59.1663 33.1913 58.8722C33.1913 58.5781 33.1479 58.3341 33.061 58.1403C32.9775 57.9465 32.8421 57.7961 32.655 57.6891C32.4711 57.5788 32.2539 57.502 32.0033 57.4585C31.756 57.4151 31.4468 57.3934 31.0759 57.3934H29.998V60.321ZM36.2282 63.8L37.5667 56.3657H39.0004L41.0558 62.5467L43.1061 56.3657H44.5449L45.8783 63.8H44.6802L43.6225 57.9699L41.6523 63.8H40.4592L38.4891 57.9699L37.4314 63.8H36.2282ZM51.8619 65.6999V56.0198H52.8845V65.6999H51.8619ZM59.3794 63.8V56.3657H60.5675V62.7222H63.7106V63.8H59.3794ZM65.79 63.8V56.3657H66.9781V63.8H65.79ZM72.8373 63.9253C72.4731 63.9253 72.1238 63.8802 71.7896 63.79C71.4587 63.6998 71.1429 63.556 70.8421 63.3588C70.5414 63.1617 70.2807 62.9177 70.0601 62.627C69.8395 62.3328 69.6641 61.9703 69.5337 61.5391C69.4034 61.108 69.3382 60.6301 69.3382 60.1054C69.3382 59.594 69.4017 59.1245 69.5287 58.6967C69.659 58.269 69.8345 57.908 70.0551 57.614C70.279 57.3198 70.5397 57.0709 70.8371 56.867C71.1379 56.6631 71.4554 56.5144 71.7896 56.4208C72.1271 56.3239 72.4764 56.2755 72.8373 56.2755C73.1147 56.2755 73.3854 56.3039 73.6494 56.3607C73.9134 56.4142 74.1759 56.5044 74.4363 56.6314C74.7003 56.7584 74.9393 56.9172 75.1535 57.1076C75.3676 57.2981 75.5597 57.5404 75.7299 57.8345C75.9 58.1252 76.0305 58.4544 76.1207 58.8221L74.9525 59.0377C74.8088 58.4995 74.5485 58.0885 74.1708 57.8044C73.7968 57.517 73.3517 57.3733 72.8373 57.3733C72.1489 57.3733 71.5958 57.6206 71.178 58.1152C70.7636 58.6065 70.5564 59.2699 70.5564 60.1054C70.5564 60.9476 70.762 61.6093 71.173 62.0905C71.584 62.5718 72.1389 62.8124 72.8373 62.8124C73.3619 62.8124 73.8115 62.6671 74.1855 62.3763C74.5631 62.0822 74.8227 61.6561 74.9628 61.098L76.131 61.3136C76.0437 61.6879 75.9154 62.0254 75.7445 62.3261C75.5781 62.6236 75.3859 62.8709 75.1681 63.0681C74.9547 63.2653 74.7157 63.429 74.4517 63.5594C74.1877 63.6897 73.9215 63.7833 73.6545 63.8401C73.3905 63.8969 73.118 63.9253 72.8373 63.9253ZM78.3809 63.8V56.3657H83.2231V57.4435H79.5689V59.5189H83.0375V60.5466H79.5689V62.7222H83.2231V63.8H78.3809ZM85.5433 63.8V56.3657H86.7416L90.5711 61.9703V56.3657H91.7642V63.8H90.5813L86.7313 58.1654V63.8H85.5433ZM96.9166 63.9002C96.1385 63.9002 95.4749 63.7248 94.9271 63.3739C94.3822 63.0197 94.0141 62.525 93.8241 61.89L94.9417 61.6645C95.0957 62.0488 95.3429 62.3462 95.6839 62.5568C96.0278 62.7639 96.4355 62.8676 96.9071 62.8676C97.4182 62.8676 97.8142 62.769 98.0951 62.5718C98.3759 62.3746 98.516 62.0989 98.516 61.7447C98.516 61.5575 98.4661 61.3971 98.3657 61.2634C98.2652 61.1264 98.1303 61.0178 97.9594 60.9376C97.7922 60.8574 97.6001 60.7872 97.383 60.727C97.1659 60.6635 96.9349 60.605 96.6915 60.5516C96.4509 60.4947 96.2082 60.4346 95.9647 60.3711C95.7235 60.3043 95.4947 60.2174 95.2776 60.1105C95.0605 60.0035 94.8662 59.8781 94.6961 59.7345C94.5289 59.5874 94.3954 59.3969 94.2949 59.163C94.1945 58.9257 94.1446 58.6549 94.1446 58.3508C94.1446 57.7292 94.3822 57.2246 94.8567 56.8369C95.3348 56.4492 95.9559 56.2554 96.7215 56.2554C97.4769 56.2554 98.1017 56.4191 98.5959 56.7467C99.0909 57.0709 99.4334 57.5438 99.6241 58.1654L98.5358 58.381C98.2183 57.669 97.6235 57.3132 96.7516 57.3132C96.2903 57.3132 95.931 57.405 95.6736 57.5889C95.4199 57.7727 95.293 58.0267 95.293 58.3508C95.293 58.548 95.3429 58.7168 95.4433 58.8572C95.5431 58.9976 95.6787 59.1095 95.8489 59.1931C96.0197 59.2732 96.2133 59.3435 96.4304 59.4036C96.6511 59.4637 96.8836 59.5206 97.1271 59.574C97.3713 59.6242 97.614 59.6793 97.8545 59.7395C98.098 59.7996 98.329 59.8815 98.5461 59.9851C98.7668 60.0887 98.9619 60.2123 99.1327 60.356C99.3029 60.4998 99.4385 60.6902 99.539 60.9275C99.6387 61.1615 99.6893 61.4338 99.6893 61.7447C99.6893 62.3963 99.4371 62.9194 98.9318 63.3137C98.4309 63.7047 97.7592 63.9002 96.9166 63.9002ZM101.814 63.8V56.3657H106.656V57.4435H103.002V59.5189H106.47V60.5466H103.002V62.7222H106.656V63.8H101.814ZM112.87 65.6999V56.0198H113.893V65.6999H112.87ZM125.641 63.8L125.055 62.3412H121.34L120.764 63.8H119.505L122.604 56.3657H123.797L126.905 63.8H125.641ZM121.722 61.3887H124.679L123.2 57.6791L121.722 61.3887ZM128.613 63.8V56.3657H129.801V62.7222H132.945V63.8H128.613ZM137.625 63.8802C136.569 63.8802 135.728 63.5343 135.099 62.8425C134.471 62.1507 134.157 61.225 134.157 60.0653C134.157 59.3167 134.302 58.6533 134.593 58.0752C134.887 57.4969 135.298 57.0492 135.826 56.7316C136.357 56.4142 136.968 56.2554 137.655 56.2554C139.247 56.2554 140.287 56.8887 140.779 58.1553L139.616 58.401C139.435 58.0233 139.187 57.7443 138.869 57.5638C138.552 57.3833 138.153 57.2931 137.676 57.2931C136.974 57.2931 136.409 57.5471 135.981 58.0551C135.557 58.563 135.345 59.2365 135.345 60.0753C135.345 60.9309 135.554 61.6093 135.971 62.1106C136.393 62.6086 136.96 62.8575 137.676 62.8575C138.341 62.8575 138.867 62.6737 139.255 62.3061C139.643 61.9351 139.851 61.3954 139.881 60.6869H137.676V59.6743H141.104C141.112 59.8047 141.115 59.9851 141.115 60.2157C141.115 61.3486 140.802 62.2426 140.177 62.8976C139.553 63.5527 138.702 63.8802 137.625 63.8802ZM147.801 63.78C147.464 63.8702 147.104 63.9153 146.723 63.9153C146.343 63.9153 145.983 63.8702 145.645 63.78C145.308 63.6897 144.99 63.546 144.693 63.3489C144.396 63.1483 144.14 62.9027 143.926 62.6119C143.712 62.3178 143.543 61.9569 143.419 61.5291C143.296 61.098 143.234 60.62 143.234 60.0953C143.234 59.5807 143.296 59.1111 143.419 58.6867C143.546 58.2623 143.717 57.903 143.931 57.6089C144.148 57.3148 144.406 57.0675 144.703 56.867C145.003 56.6665 145.325 56.5194 145.666 56.4258C146.007 56.3322 146.366 56.2855 146.743 56.2855C147.118 56.2855 147.473 56.3322 147.811 56.4258C148.149 56.5194 148.466 56.6665 148.763 56.867C149.061 57.0675 149.318 57.3148 149.535 57.6089C149.756 57.8997 149.929 58.2589 150.052 58.6867C150.179 59.1111 150.242 59.5807 150.242 60.0953C150.242 60.62 150.179 61.098 150.052 61.5291C149.929 61.9569 149.758 62.3178 149.541 62.6119C149.324 62.9027 149.065 63.1483 148.763 63.3489C148.463 63.546 148.142 63.6897 147.801 63.78ZM146.723 62.8325C147.448 62.8325 148.018 62.5935 148.433 62.1156C148.847 61.6377 149.054 60.9643 149.054 60.0953C149.054 59.2431 148.845 58.5748 148.427 58.0902C148.013 57.6056 147.452 57.3633 146.743 57.3633C146.018 57.3633 145.446 57.6056 145.029 58.0902C144.611 58.5714 144.402 59.2398 144.402 60.0953C144.402 60.9676 144.606 61.6428 145.014 62.1207C145.425 62.5952 145.995 62.8325 146.723 62.8325ZM156.492 63.8V56.3657H158.852C159.341 56.3657 159.767 56.3941 160.131 56.4509C160.495 56.5044 160.798 56.5829 161.039 56.6865C161.283 56.7901 161.478 56.9221 161.625 57.0825C161.776 57.243 161.88 57.4201 161.941 57.614C162.004 57.8078 162.036 58.0317 162.036 58.2857C162.036 58.7803 161.922 59.168 161.695 59.4487C161.471 59.7294 161.125 59.9133 160.657 60.0002C161.209 60.0736 161.616 60.2508 161.88 60.5315C162.148 60.8089 162.282 61.2166 162.282 61.7547C162.282 62.012 162.246 62.2443 162.177 62.4515C162.106 62.6553 161.991 62.8442 161.831 63.018C161.67 63.1884 161.463 63.3304 161.209 63.444C160.958 63.5577 160.644 63.6463 160.266 63.7098C159.889 63.7699 159.455 63.8 158.963 63.8H156.492ZM157.67 59.5489H158.863C159.541 59.5489 160.031 59.4637 160.332 59.2933C160.632 59.1195 160.783 58.8287 160.783 58.421C160.783 58.03 160.644 57.7627 160.367 57.619C160.093 57.4752 159.581 57.4034 158.833 57.4034H157.67V59.5489ZM157.67 62.7723H158.953C159.695 62.7723 160.226 62.6838 160.547 62.5066C160.868 62.3295 161.028 62.0421 161.028 61.6444C161.028 61.2099 160.879 60.9108 160.582 60.7471C160.285 60.5799 159.749 60.4964 158.973 60.4964H157.67V62.7723ZM168.717 63.78C168.38 63.8702 168.021 63.9153 167.639 63.9153C167.259 63.9153 166.899 63.8702 166.562 63.78C166.224 63.6897 165.906 63.546 165.609 63.3489C165.312 63.1483 165.056 62.9027 164.842 62.6119C164.628 62.3178 164.46 61.9569 164.336 61.5291C164.212 61.098 164.151 60.62 164.151 60.0953C164.151 59.5807 164.212 59.1111 164.336 58.6867C164.463 58.2623 164.633 57.903 164.847 57.6089C165.065 57.3148 165.322 57.0675 165.62 56.867C165.92 56.6665 166.241 56.5194 166.582 56.4258C166.923 56.3322 167.282 56.2855 167.66 56.2855C168.034 56.2855 168.39 56.3322 168.728 56.4258C169.065 56.5194 169.382 56.6665 169.68 56.867C169.977 57.0675 170.235 57.3148 170.452 57.6089C170.672 57.8997 170.845 58.2589 170.968 58.6867C171.095 59.1111 171.159 59.5807 171.159 60.0953C171.159 60.62 171.095 61.098 170.968 61.5291C170.845 61.9569 170.674 62.3178 170.457 62.6119C170.24 62.9027 169.981 63.1483 169.68 63.3489C169.379 63.546 169.058 63.6897 168.717 63.78ZM167.639 62.8325C168.365 62.8325 168.934 62.5935 169.349 62.1156C169.764 61.6377 169.971 60.9643 169.971 60.0953C169.971 59.2431 169.762 58.5748 169.344 58.0902C168.93 57.6056 168.368 57.3633 167.66 57.3633C166.935 57.3633 166.363 57.6056 165.945 58.0902C165.527 58.5714 165.318 59.2398 165.318 60.0953C165.318 60.9676 165.522 61.6428 165.93 62.1207C166.341 62.5952 166.911 62.8325 167.639 62.8325ZM174.541 63.8V57.4435H172.526V56.3657H177.735V57.4435H175.729V63.8H174.541Z" fill="#0B0B14"/>
<path d="M156.933 19.8H151.8V45.4667H156.933V19.8Z" fill="#014EFF"/>
<path d="M159.133 19.8H179.429L176.733 24.9333H159.133V19.8Z" fill="#014EFF"/>
<path d="M156.933 30.0667H167.2V35.2H156.933V30.0667Z" fill="#014EFF"/>
<path d="M189.933 34.8333L197.267 45.4667H191.1L186.633 38.8667L189.933 34.8333Z" fill="#014EFF"/>
<path d="M200.721 15.759L185.533 36.6667L182.6 32.6333L196.522 12.8066L200.721 15.759Z" fill="#014EFF"/>
<path d="M184.067 38.8667L179.3 45.4667H173.067L181.133 34.4667L184.067 38.8667Z" fill="#014EFF"/>
<path d="M179.425 19.8001L188.467 31.9L185.533 36.6667L175.267 22.8101L179.425 19.8001Z" fill="#014EFF"/>
<path d="M205.074 5.51789L204.398 20.3669L191.184 10.8097L205.074 5.51789Z" fill="#014EFF"/>
</svg>
