<svg width="203" height="58" viewBox="0 0 203 58" fill="none" xmlns="http://www.w3.org/2000/svg">
<path d="M36.2458 15.8586H39.2985V37.1049H48.4564V40.1575H36.2458V15.8586ZM57.9653 15.8586C59.7766 15.8586 61.5472 16.3957 63.0532 17.402C64.5592 18.4082 65.733 19.8385 66.4261 21.5119C67.1193 23.1853 67.3006 25.0266 66.9473 26.8031C66.5939 28.5795 65.7217 30.2113 64.4409 31.4921C63.1602 32.7728 61.5284 33.645 59.7519 33.9984C57.9755 34.3518 56.1341 34.1704 54.4607 33.4773C52.7874 32.7841 51.3571 31.6103 50.3508 30.1043C49.3445 28.5983 48.8074 26.8277 48.8074 25.0165C48.8074 23.8138 49.0443 22.623 49.5045 21.5119C49.9648 20.4008 50.6393 19.3913 51.4897 18.5409C52.3401 17.6905 53.3497 17.0159 54.4607 16.5557C55.5718 16.0955 56.7627 15.8586 57.9653 15.8586ZM57.9653 31.1217C59.1728 31.1217 60.3532 30.7637 61.3572 30.0928C62.3612 29.422 63.1438 28.4684 63.6059 27.3529C64.0679 26.2373 64.1889 25.0097 63.9533 23.8254C63.7177 22.6411 63.1362 21.5532 62.2824 20.6994C61.4286 19.8456 60.3407 19.2641 59.1564 19.0285C57.9721 18.7929 56.7445 18.9139 55.6289 19.3759C54.5134 19.838 53.5598 20.6206 52.889 21.6246C52.2181 22.6286 51.8601 23.809 51.8601 25.0165C51.8681 26.6304 52.5149 28.1755 53.659 29.3138C54.8031 30.4522 56.3514 31.0912 57.9653 31.0912V31.1217ZM51.8601 37.1354H64.0706V40.1881H51.8601V37.1354ZM90.9337 40.1881H87.8811V38.0054C85.9125 39.3834 83.5683 40.1239 81.1653 40.127C79.1163 40.1407 77.0967 39.6385 75.2927 38.6667C73.4886 37.6949 71.9582 36.2847 70.8423 34.566C69.7265 32.8474 69.0611 30.8755 68.9075 28.8322C68.7538 26.7888 69.1169 24.7397 69.9633 22.8735C70.8096 21.0073 72.112 19.3841 73.7504 18.1535C75.3888 16.9229 77.3106 16.1244 79.3387 15.8315C81.3668 15.5387 83.436 15.761 85.3556 16.4779C87.2752 17.1948 88.9836 18.3833 90.3232 19.9338L88.0795 21.9333C87.0606 20.7941 85.7728 19.9281 84.3334 19.4141C82.8941 18.9001 81.349 18.7545 79.8389 18.9906C78.3289 19.2267 76.902 19.837 75.6882 20.7659C74.4744 21.6947 73.5125 22.9125 72.8899 24.3084C72.2674 25.7042 72.0041 27.2337 72.124 28.7573C72.244 30.281 72.7433 31.7504 73.5766 33.0316C74.4099 34.3129 75.5506 35.3652 76.8948 36.0926C78.239 36.8201 79.7438 37.1996 81.2722 37.1965C82.5406 37.1991 83.7946 36.9277 84.9484 36.4008C86.1023 35.874 87.1287 35.1041 87.9574 34.1438H79.7153V31.0912H90.9643L90.9337 40.1881ZM102.167 15.9196C103.979 15.9196 105.749 16.4567 107.255 17.463C108.761 18.4693 109.935 19.8996 110.628 21.573C111.321 23.2463 111.503 25.0877 111.149 26.8641C110.796 28.6406 109.924 30.2724 108.643 31.5531C107.362 32.8339 105.731 33.7061 103.954 34.0595C102.178 34.4128 100.336 34.2315 98.6629 33.5383C96.9895 32.8452 95.5592 31.6714 94.5529 30.1654C93.5466 28.6594 93.0095 26.8888 93.0095 25.0775C93.0015 23.8672 93.2334 22.6673 93.6919 21.5471C94.1504 20.427 94.8265 19.4088 95.6809 18.5516C96.5353 17.6943 97.5512 17.0149 98.6698 16.5527C99.7885 16.0904 100.988 15.8545 102.198 15.8586L102.167 15.9196ZM102.167 31.1828C103.375 31.1828 104.555 30.8247 105.559 30.1539C106.563 29.483 107.346 28.5295 107.808 27.4139C108.27 26.2983 108.391 25.0708 108.155 23.8864C107.92 22.7021 107.338 21.6143 106.485 20.7605C105.631 19.9066 104.543 19.3251 103.359 19.0896C102.174 18.854 100.947 18.9749 99.8311 19.437C98.7155 19.8991 97.762 20.6816 97.0911 21.6856C96.4202 22.6896 96.0622 23.87 96.0622 25.0775C96.0863 26.6861 96.7443 28.2202 97.8933 29.3463C99.0422 30.4724 100.589 31.0994 102.198 31.0912L102.167 31.1828ZM96.0622 37.1965H108.273V40.2491H96.0622V37.1965ZM114.576 15.8586H117.629V40.127H114.576V15.8586ZM121.857 15.8586H124.91C125.067 15.8419 125.225 15.8419 125.383 15.8586C126.661 15.7199 127.954 15.852 129.179 16.2463C130.403 16.6406 131.53 17.2883 132.487 18.1472C133.444 19.006 134.209 20.0569 134.733 21.2312C135.257 22.4055 135.528 23.6771 135.528 24.9631C135.528 26.249 135.257 27.5206 134.733 28.6949C134.209 29.8692 133.444 30.9201 132.487 31.7789C131.53 32.6378 130.403 33.2855 129.179 33.6798C127.954 34.0741 126.661 34.2062 125.383 34.0675H124.91V40.1728H121.857V15.8586ZM124.91 18.9112V30.9844H125.383C126.245 31.0992 127.122 31.0284 127.954 30.7769C128.787 30.5253 129.556 30.0987 130.211 29.5257C130.865 28.9527 131.389 28.2464 131.749 27.4543C132.108 26.6621 132.294 25.8023 132.294 24.9325C132.294 24.0627 132.108 23.2029 131.749 22.4108C131.389 21.6186 130.865 20.9124 130.211 20.3394C129.556 19.7663 128.787 19.3398 127.954 19.0882C127.122 18.8366 126.245 18.7659 125.383 18.8807C125.216 18.898 125.053 18.9338 124.894 18.9875L124.91 18.9112ZM146.904 17.6138L144.645 19.3996C144.255 18.9924 143.757 18.7049 143.21 18.5709C142.662 18.4368 142.088 18.4618 141.554 18.643C141.02 18.8241 140.549 19.1538 140.196 19.5934C139.844 20.0329 139.624 20.5641 139.562 21.1244V21.3686C139.562 22.7117 140.493 23.6123 142.31 23.7344C149.3 24.1617 152.505 27.4433 152.505 31.7781V32.0528C152.325 33.7684 151.655 35.3961 150.577 36.7422C149.498 38.0884 148.055 39.0963 146.42 39.6462C144.785 40.1961 143.026 40.2647 141.353 39.8439C139.68 39.4232 138.163 38.5308 136.983 37.2728L139.318 35.4717C139.862 36.0543 140.525 36.5116 141.263 36.8121C142.001 37.1125 142.796 37.2489 143.592 37.2117C145.062 37.2892 146.505 36.7958 147.62 35.8345C148.735 34.8731 149.435 33.5183 149.575 32.0528V31.8391C149.575 27.7638 145.576 27.0159 142.111 26.6802C138.906 26.3749 136.601 24.3754 136.601 21.4907V21.3686C136.714 19.8667 137.4 18.4656 138.516 17.4544C139.632 16.4433 141.094 15.8994 142.6 15.9349C143.397 15.9113 144.191 16.0554 144.93 16.3577C145.669 16.6601 146.336 17.114 146.888 17.6902L146.904 17.6138ZM164.456 37.0286C168.257 37.0286 171.264 32.9228 171.264 27.8707V15.6602H174.316V27.8707C174.316 34.5865 169.921 40.0049 164.517 40.0049C159.114 40.0049 154.718 34.5865 154.718 27.8707V15.6602H157.771V27.8707C157.649 32.9991 160.656 37.1049 164.441 37.1049L164.456 37.0286ZM197.745 40.0812H194.693V24.9707L187.656 34.1286L180.62 24.9707V40.127H177.567V15.8586L187.641 29.1223L197.715 15.8586L197.745 40.0812Z" fill="#737373"/>
<path d="M21.5931 12.2104C21.5931 10.0082 20.7183 7.89631 19.1612 6.33916C17.604 4.78202 15.4921 3.90723 13.29 3.90723C11.0878 3.90723 8.9759 4.78202 7.41876 6.33916C5.86161 7.89631 4.98682 10.0082 4.98682 12.2104V37.3183L11.8247 42.2178V54.1535H14.7552V42.2178L21.5931 37.3183V12.2104ZM18.6626 26.2525L14.7552 30.1599V26.4967L18.6626 22.5893V26.2525ZM7.97839 22.5893L11.8858 26.4967V30.1599L7.97839 26.2525V22.5893ZM18.6626 18.4378L13.29 23.8104L7.91734 18.3156V14.6525L13.29 20.0251L18.6626 14.6525V18.4378ZM13.29 6.83775C14.4716 6.84298 15.6189 7.2354 16.5562 7.95491C17.4935 8.67441 18.169 9.68133 18.4794 10.8214L13.29 15.9956L8.1005 10.8214C8.39956 9.66998 9.07028 8.64942 10.0086 7.91809C10.9469 7.18676 12.1004 6.78554 13.29 6.7767V6.83775ZM7.91734 35.8378V30.343L11.8247 34.2504V38.6156L7.91734 35.8378ZM14.7552 38.6309V34.2504L18.6626 30.343V35.8225L14.7552 38.6309Z" fill="#737373"/>
</svg>
