<svg width="190" height="58" viewBox="0 0 190 58" fill="none" xmlns="http://www.w3.org/2000/svg">
<path d="M62.3959 40.2793C61.488 40.3285 60.5901 40.0704 59.8469 39.5467C59.5364 39.3165 59.2865 39.0142 59.119 38.6658C58.9515 38.3174 58.8713 37.9335 58.8853 37.5472V23.3983C58.8779 23.3384 58.8843 23.2776 58.9039 23.2205C58.9235 23.1634 58.9559 23.1115 58.9986 23.0689C59.0412 23.0262 59.0931 22.9938 59.1502 22.9742C59.2073 22.9546 59.2681 22.9482 59.328 22.9556H61.8922C62.1822 22.9556 62.3195 23.1083 62.3195 23.3983V36.4483C62.3195 37.0283 62.579 37.3183 63.1132 37.3183C63.3397 37.3276 63.5662 37.3019 63.7848 37.242C64.0901 37.242 64.258 37.3335 64.2732 37.6083L64.5022 39.5162C64.5132 39.5718 64.5121 39.6291 64.4991 39.6843C64.4861 39.7395 64.4614 39.7913 64.4267 39.8361C64.392 39.8809 64.348 39.9178 64.2979 39.9442C64.2477 39.9707 64.1925 39.986 64.1359 39.9893C63.5742 40.1749 62.9873 40.2727 62.3959 40.2793Z" fill="#737373"/>
<path d="M76.8195 38.6466C75.531 39.7111 73.9119 40.2935 72.2405 40.2935C70.5692 40.2935 68.9501 39.7111 67.6616 38.6466C66.5291 37.5033 65.8938 35.9592 65.8938 34.35C65.8938 32.7408 66.5291 31.1967 67.6616 30.0534C68.9526 28.9943 70.5707 28.4155 72.2405 28.4155C73.9103 28.4155 75.5285 28.9943 76.8195 30.0534C77.9258 31.2072 78.5435 32.7439 78.5435 34.3424C78.5435 35.9409 77.9258 37.4775 76.8195 38.6313V38.6466ZM70.0732 36.6318C70.6711 37.1735 71.449 37.4734 72.2558 37.4734C73.0626 37.4734 73.8405 37.1735 74.4384 36.6318C74.9796 36.0096 75.2776 35.2128 75.2776 34.3882C75.2776 33.5635 74.9796 32.7667 74.4384 32.1445C73.8405 31.6028 73.0626 31.3029 72.2558 31.3029C71.449 31.3029 70.6711 31.6028 70.0732 32.1445C69.532 32.7667 69.234 33.5635 69.234 34.3882C69.234 35.2128 69.532 36.0096 70.0732 36.6318Z" fill="#737373"/>
<path d="M92.6625 28.8016C92.9525 28.8016 93.0899 28.9543 93.0899 29.2443V40.1879C93.1165 40.9266 92.9783 41.6619 92.6853 42.3404C92.3922 43.0189 91.9517 43.6236 91.3957 44.1106C90.1615 45.1629 88.5744 45.7083 86.9541 45.6369C85.4906 45.6883 84.0466 45.2887 82.8178 44.4922C82.293 44.1476 81.8448 43.6988 81.5008 43.1736C81.1568 42.6485 80.9245 42.0582 80.8183 41.4395C80.8183 41.1343 80.8183 40.9969 81.2304 40.9969H83.7946C83.9035 41.0006 84.009 41.0357 84.0983 41.098C84.1877 41.1603 84.2571 41.2471 84.2983 41.3479C84.4646 41.8115 84.7961 42.1974 85.2293 42.4316C85.7573 42.704 86.3449 42.8404 86.9388 42.8285C87.2972 42.8481 87.6559 42.7961 87.9939 42.6756C88.332 42.555 88.6427 42.3683 88.9078 42.1264C89.1499 41.8732 89.3384 41.5737 89.4616 41.2458C89.5849 40.9179 89.6405 40.5684 89.6251 40.2185V39.2569C88.707 39.9322 87.5896 40.2813 86.4504 40.249C85.6531 40.278 84.8581 40.1456 84.1132 39.8597C83.3683 39.5738 82.6889 39.1403 82.1157 38.5853C81.0153 37.4469 80.4001 35.9255 80.4001 34.3422C80.4001 32.7588 81.0153 31.2374 82.1157 30.099C82.6916 29.5489 83.3719 29.1196 84.1164 28.8365C84.8608 28.5534 85.6544 28.4222 86.4504 28.4506C87.6226 28.4196 88.77 28.7913 89.7014 29.5037V29.2595C89.6944 29.201 89.7005 29.1417 89.7193 29.0859C89.7381 29.03 89.7691 28.9791 89.81 28.9367C89.8509 28.8943 89.9008 28.8616 89.9559 28.8408C90.011 28.8201 90.0701 28.8119 90.1288 28.8169L92.6625 28.8016ZM86.7404 37.5322C87.1336 37.5443 87.5247 37.47 87.886 37.3144C88.2474 37.1588 88.5701 36.9257 88.8314 36.6316C89.3389 35.9763 89.6142 35.171 89.6142 34.3422C89.6142 33.5133 89.3389 32.708 88.8314 32.0527C88.571 31.7626 88.2502 31.533 87.8916 31.3801C87.533 31.2271 87.1453 31.1545 86.7557 31.1674C86.3579 31.1549 85.9622 31.229 85.5959 31.3844C85.2296 31.5399 84.9014 31.7731 84.6341 32.0679C84.0719 32.6948 83.7763 33.5161 83.8099 34.3574C83.7823 35.1905 84.0714 36.0031 84.6188 36.6316C84.8868 36.9256 85.2151 37.1583 85.5812 37.3137C85.9474 37.4691 86.3428 37.5436 86.7404 37.5322Z" fill="#737373"/>
<path d="M106.262 38.6465C104.971 39.7056 103.353 40.2844 101.683 40.2844C100.013 40.2844 98.3951 39.7056 97.1042 38.6465C95.9968 37.4902 95.3787 35.951 95.3787 34.3499C95.3787 32.7489 95.9968 31.2097 97.1042 30.0533C98.3964 28.997 100.014 28.4199 101.683 28.4199C103.352 28.4199 104.97 28.997 106.262 30.0533C107.368 31.2071 107.986 32.7438 107.986 34.3423C107.986 35.9408 107.368 37.4775 106.262 38.6312V38.6465ZM99.5005 36.6318C99.7931 36.9101 100.138 37.1277 100.515 37.2718C100.893 37.4159 101.295 37.4837 101.698 37.4712C102.099 37.4816 102.499 37.4128 102.873 37.2688C103.248 37.1248 103.59 36.9083 103.881 36.6318C104.413 36.0054 104.706 35.2101 104.706 34.3881C104.706 33.566 104.413 32.7708 103.881 32.1444C103.59 31.8679 103.248 31.6514 102.873 31.5074C102.499 31.3633 102.099 31.2945 101.698 31.3049C101.295 31.2925 100.893 31.3603 100.515 31.5044C100.138 31.6485 99.7931 31.866 99.5005 32.1444C98.9681 32.7708 98.6759 33.566 98.6759 34.3881C98.6759 35.2101 98.9681 36.0054 99.5005 36.6318Z" fill="#737373"/>
<path d="M113.497 26.2068C113.093 26.56 112.575 26.7546 112.039 26.7546C111.503 26.7546 110.985 26.56 110.581 26.2068C110.399 26.0342 110.253 25.826 110.153 25.5951C110.054 25.3641 110.002 25.1152 110.002 24.8637C110.002 24.6121 110.054 24.3633 110.153 24.1323C110.253 23.9013 110.399 23.6932 110.581 23.5205C110.989 23.1762 111.505 22.9873 112.039 22.9873C112.573 22.9873 113.089 23.1762 113.497 23.5205C113.68 23.6932 113.825 23.9013 113.925 24.1323C114.025 24.3633 114.076 24.6121 114.076 24.8637C114.076 25.1152 114.025 25.3641 113.925 25.5951C113.825 25.826 113.68 26.0342 113.497 26.2068ZM113.817 40.2795C112.91 40.3239 112.014 40.0663 111.268 39.5468C110.962 39.3132 110.717 39.0098 110.552 38.662C110.388 38.3142 110.309 37.932 110.322 37.5474V29.2442C110.315 29.1843 110.321 29.1235 110.341 29.0664C110.36 29.0093 110.393 28.9575 110.435 28.9148C110.478 28.8721 110.53 28.8397 110.587 28.8201C110.644 28.8005 110.705 28.7941 110.765 28.8016H113.329C113.619 28.8016 113.756 28.9542 113.756 29.2442V36.4484C113.756 37.0284 114.016 37.3184 114.535 37.3184C114.766 37.3267 114.997 37.301 115.221 37.2421C115.527 37.2421 115.695 37.3337 115.71 37.6084L115.939 39.5163C115.95 39.5719 115.949 39.6293 115.936 39.6845C115.923 39.7396 115.898 39.7914 115.863 39.8362C115.829 39.8811 115.785 39.9179 115.735 39.9444C115.684 39.9708 115.629 39.9862 115.573 39.9895C115.006 40.1761 114.414 40.2739 113.817 40.2795Z" fill="#737373"/>
<path d="M125.371 28.4353C126.172 28.4037 126.972 28.5333 127.721 28.8164C128.471 29.0996 129.157 29.5306 129.737 30.0837C130.816 31.2421 131.416 32.7665 131.416 34.3498C131.416 35.9331 130.816 37.4575 129.737 38.6158C129.159 39.1739 128.475 39.6091 127.725 39.895C126.974 40.181 126.174 40.3118 125.371 40.2795C124.228 40.3049 123.108 39.9566 122.181 39.2874V44.7974C122.181 45.0874 122.029 45.2248 121.739 45.2248H119.175C119.116 45.2357 119.056 45.2322 118.999 45.2146C118.942 45.197 118.89 45.1658 118.848 45.1237C118.806 45.0816 118.775 45.0299 118.757 44.9731C118.74 44.9162 118.736 44.8559 118.747 44.7974V32.2816C118.765 32.1592 118.754 32.0343 118.715 31.9168C118.677 31.7994 118.611 31.6926 118.523 31.6052C118.436 31.5177 118.329 31.4518 118.212 31.4129C118.094 31.374 117.969 31.3631 117.847 31.3811H117.343C117.007 31.3811 116.839 31.259 116.839 31.0148V29.2137C116.831 29.1023 116.862 28.9915 116.926 28.8998C116.99 28.8082 117.083 28.7412 117.19 28.7101C117.718 28.5181 118.277 28.425 118.839 28.4353C119.399 28.3857 119.961 28.5045 120.453 28.7764C120.946 29.0484 121.345 29.4611 121.601 29.9616C122.093 29.4643 122.681 29.0725 123.329 28.81C123.977 28.5476 124.672 28.4201 125.371 28.4353ZM122.99 36.6316C123.263 36.916 123.589 37.1424 123.951 37.297C124.314 37.4517 124.703 37.5314 125.097 37.5314C125.49 37.5314 125.88 37.4517 126.242 37.297C126.604 37.1424 126.931 36.916 127.203 36.6316C127.776 35.9923 128.078 35.1544 128.043 34.2964C128.082 33.4376 127.781 32.5979 127.203 31.9611C126.931 31.6767 126.604 31.4503 126.242 31.2957C125.88 31.1411 125.49 31.0613 125.097 31.0613C124.703 31.0613 124.314 31.1411 123.951 31.2957C123.589 31.4503 123.263 31.6767 122.99 31.9611C122.435 32.6092 122.146 33.4436 122.181 34.2964C122.15 35.1484 122.439 35.9813 122.99 36.6316Z" fill="#737373"/>
<path d="M138.62 40.2794C137.25 40.3357 135.891 40.0079 134.697 39.3331C134.218 39.0446 133.81 38.6519 133.504 38.1842C133.197 37.7165 133 37.1858 132.927 36.6315C132.927 36.3262 133.034 36.1736 133.369 36.1736H135.613C135.72 36.1777 135.823 36.2113 135.912 36.2706C136.001 36.3298 136.072 36.4124 136.117 36.5094C136.437 37.3336 137.277 37.7457 138.62 37.7457C139.088 37.7671 139.555 37.6727 139.978 37.471C140.124 37.405 140.25 37.3005 140.341 37.1688C140.433 37.0371 140.487 36.883 140.497 36.7231C140.497 36.3262 140.253 36.0515 139.765 35.8683C139.185 35.6755 138.586 35.5475 137.979 35.4867C137.259 35.4053 136.545 35.2778 135.842 35.1052C135.158 34.9503 134.536 34.5941 134.056 34.0825C133.774 33.7348 133.566 33.3327 133.445 32.9011C133.325 32.4696 133.294 32.0179 133.356 31.5741C133.418 31.1303 133.57 30.7039 133.803 30.3215C134.036 29.939 134.346 29.6087 134.713 29.351C135.813 28.6501 137.103 28.3088 138.406 28.3741C139.668 28.3315 140.916 28.6435 142.008 29.2746C142.449 29.5241 142.828 29.8686 143.118 30.2832C143.409 30.6977 143.603 31.1718 143.687 31.671C143.687 31.9762 143.55 32.1288 143.275 32.1288H141.016C140.921 32.1345 140.827 32.1113 140.745 32.0622C140.663 32.0132 140.598 31.9407 140.558 31.8541C140.407 31.4926 140.123 31.203 139.765 31.0452C139.36 30.8335 138.908 30.7285 138.452 30.7399C138.005 30.7156 137.558 30.8048 137.155 30.9994C137.012 31.0542 136.89 31.1504 136.803 31.2756C136.716 31.4007 136.668 31.5491 136.666 31.7015C136.676 31.9102 136.752 32.1103 136.884 32.2724C137.016 32.4345 137.196 32.55 137.399 32.602C137.985 32.8229 138.594 32.9765 139.215 33.0599C139.929 33.1538 140.637 33.2863 141.337 33.4567C142.021 33.6116 142.643 33.9678 143.123 34.4794C143.379 34.7612 143.577 35.0911 143.706 35.45C143.834 35.809 143.89 36.1898 143.87 36.5704C143.884 37.098 143.76 37.6201 143.511 38.0855C143.262 38.551 142.897 38.944 142.451 39.2262C141.311 39.9583 139.974 40.3256 138.62 40.2794Z" fill="#737373"/>
<path d="M160.004 39.5165C160.012 39.5707 160.01 39.6261 159.997 39.6794C159.984 39.7327 159.96 39.7828 159.928 39.8269C159.895 39.871 159.854 39.9081 159.807 39.936C159.759 39.964 159.707 39.9822 159.653 39.9897C159.095 40.1716 158.514 40.2693 157.928 40.2797C157.348 40.3397 156.762 40.2491 156.227 40.0164C155.693 39.7838 155.227 39.4171 154.875 38.9518C153.797 39.8787 152.403 40.3543 150.983 40.2797C150.324 40.31 149.666 40.2021 149.051 39.9629C148.435 39.7237 147.877 39.3585 147.412 38.8907C146.949 38.4005 146.591 37.8221 146.357 37.19C146.124 36.558 146.021 35.8853 146.053 35.2123V29.2444C146.053 28.9544 146.191 28.8018 146.481 28.8018H149.045C149.335 28.8018 149.472 28.9544 149.472 29.2444V34.7544C149.444 35.4409 149.679 36.1122 150.129 36.6318C150.353 36.8698 150.626 37.057 150.928 37.1807C151.231 37.3044 151.557 37.3619 151.884 37.3491C152.218 37.3638 152.552 37.312 152.867 37.1967C153.181 37.0814 153.47 36.905 153.715 36.6775C153.948 36.4379 154.129 36.153 154.247 35.8406C154.365 35.5282 154.418 35.1949 154.402 34.8612V29.2444C154.402 28.9544 154.54 28.8018 154.83 28.8018H157.424C157.714 28.8018 157.852 28.9544 157.852 29.2444V36.4333C157.852 37.0286 158.111 37.3186 158.615 37.3186C158.851 37.3278 159.088 37.302 159.317 37.2423C159.375 37.2261 159.435 37.2232 159.494 37.2338C159.553 37.2444 159.609 37.2682 159.658 37.3034C159.706 37.3387 159.746 37.3845 159.774 37.4373C159.802 37.4902 159.818 37.5487 159.821 37.6086L160.004 39.5165Z" fill="#737373"/>
<path d="M184.257 39.5163C184.271 39.5709 184.272 39.6279 184.261 39.6832C184.25 39.7384 184.227 39.7905 184.193 39.8357C184.16 39.8809 184.116 39.9182 184.067 39.9448C184.017 39.9713 183.962 39.9866 183.906 39.9894C183.339 40.1739 182.747 40.2717 182.151 40.2794C181.243 40.3263 180.346 40.0684 179.602 39.5468C179.28 39.3234 179.018 39.024 178.84 38.6752C178.662 38.3264 178.572 37.939 178.579 37.5473V33.9605C178.611 33.2761 178.382 32.605 177.938 32.0831C177.724 31.8446 177.46 31.6565 177.164 31.5324C176.868 31.4084 176.549 31.3515 176.229 31.3658C175.94 31.3549 175.653 31.4096 175.388 31.526C175.124 31.6423 174.889 31.8172 174.702 32.0373C174.299 32.5488 174.094 33.1879 174.122 33.8384V39.4705C174.122 39.7605 173.985 39.9131 173.695 39.9131H171.115C171.056 39.9206 170.995 39.9142 170.938 39.8946C170.881 39.875 170.829 39.8426 170.786 39.7999C170.743 39.7572 170.711 39.7054 170.691 39.6483C170.672 39.5912 170.665 39.5304 170.673 39.4705V33.9605C170.706 33.2835 170.495 32.6172 170.078 32.0831C169.891 31.8588 169.658 31.6782 169.394 31.5542C169.131 31.4302 168.843 31.3659 168.551 31.3658C168.24 31.3532 167.929 31.4065 167.64 31.5223C167.351 31.638 167.089 31.8135 166.872 32.0373C166.436 32.5325 166.211 33.1792 166.247 33.8384V39.4705C166.254 39.5304 166.248 39.5912 166.228 39.6483C166.208 39.7054 166.176 39.7572 166.133 39.7999C166.091 39.8426 166.039 39.875 165.982 39.8946C165.925 39.9142 165.864 39.9206 165.804 39.9131H163.316C163.026 39.9131 162.889 39.7605 162.889 39.4705V32.2816C162.907 32.1591 162.896 32.0342 162.857 31.9168C162.818 31.7993 162.752 31.6926 162.665 31.6051C162.577 31.5176 162.47 31.4518 162.353 31.4129C162.235 31.374 162.111 31.3631 161.988 31.381H161.484C161.149 31.381 160.981 31.2589 160.981 31.0147V29.2137C160.973 29.1022 161.003 28.9914 161.067 28.8998C161.131 28.8081 161.224 28.7411 161.332 28.71C161.86 28.5181 162.419 28.4249 162.98 28.4352C163.519 28.3893 164.061 28.4968 164.541 28.7452C165.022 28.9937 165.423 29.373 165.697 29.8394C166.212 29.3514 166.822 28.9748 167.489 28.7332C168.156 28.4916 168.866 28.3901 169.574 28.4352C170.262 28.4017 170.947 28.5307 171.576 28.8118C172.204 29.0929 172.758 29.5181 173.191 30.0531C173.696 29.5041 174.317 29.0742 175.009 28.7944C175.7 28.5146 176.445 28.3919 177.19 28.4352C177.856 28.4041 178.522 28.5114 179.144 28.7505C179.767 28.9895 180.333 29.3551 180.808 29.8242C181.271 30.3133 181.631 30.8916 181.864 31.5239C182.098 32.1563 182.201 32.8294 182.166 33.5026V36.4484C182.166 37.0284 182.425 37.3184 182.914 37.3184C183.15 37.3294 183.387 37.3037 183.616 37.2421C183.931 37.2421 184.099 37.3642 184.12 37.6084L184.257 39.5163Z" fill="#737373"/>
<path d="M5.28106 26.8172C6.40713 22.2911 9.01508 18.2719 12.6897 15.3996C16.3642 12.5272 20.8942 10.9668 25.5582 10.9668C30.2222 10.9668 34.7521 12.5272 38.4267 15.3996C42.1013 18.2719 44.7092 22.2911 45.8353 26.8172H44.0037C40.9139 26.7717 37.8875 27.6951 35.3495 29.4577C35.203 29.5637 35.0501 29.6606 34.8916 29.7477H34.6779C34.5194 29.6606 34.3665 29.5637 34.22 29.4577C31.6594 27.7359 28.6438 26.8162 25.5582 26.8162C22.4725 26.8162 19.4569 27.7359 16.8963 29.4577C16.7498 29.5637 16.5969 29.6606 16.4384 29.7477H16.2247C16.0663 29.6606 15.9133 29.5637 15.7669 29.4577C13.2288 27.6951 10.2024 26.7717 7.11264 26.8172H5.28106ZM40.7068 36.3872C41.6471 35.6549 42.8124 35.2719 44.0037 35.3035H46.4611V30.404H44.0037C41.9054 30.3786 39.855 31.0317 38.1579 32.2661C37.2029 32.9702 36.0476 33.35 34.8611 33.35C33.6746 33.35 32.5192 32.9702 31.5642 32.2661C29.8241 31.0548 27.7547 30.4054 25.6345 30.4054C23.5142 30.4054 21.4449 31.0548 19.7047 32.2661C18.7497 32.9702 17.5944 33.35 16.4079 33.35C15.2214 33.35 14.0661 32.9702 13.1111 32.2661C11.393 31.0159 9.31328 30.362 7.18896 30.404H4.65527V35.3035H7.11264C8.30395 35.2719 9.46926 35.6549 10.4095 36.3872C12.1464 37.5993 14.2135 38.2492 16.3316 38.2492C18.4497 38.2492 20.5167 37.5993 22.2537 36.3872C23.1951 35.6572 24.3596 35.2744 25.5505 35.3035C26.7422 35.2693 27.9084 35.6526 28.8474 36.3872C30.5875 37.5985 32.6569 38.2478 34.7771 38.2478C36.8973 38.2478 38.9667 37.5985 40.7068 36.3872ZM40.7068 45.1482C41.6471 44.416 42.8124 44.0329 44.0037 44.0645H46.4611V39.1651H44.0037C41.9054 39.1397 39.855 39.7928 38.1579 41.0272C37.2029 41.7312 36.0476 42.1111 34.8611 42.1111C33.6746 42.1111 32.5192 41.7312 31.5642 41.0272C29.8241 39.8158 27.7547 39.1665 25.6345 39.1665C23.5142 39.1665 21.4449 39.8158 19.7047 41.0272C18.7497 41.7312 17.5944 42.1111 16.4079 42.1111C15.2214 42.1111 14.0661 41.7312 13.1111 41.0272C11.393 39.777 9.31328 39.1231 7.18896 39.1651H4.65527V44.0645H7.11264C8.30395 44.0329 9.46926 44.416 10.4095 45.1482C12.1464 46.3603 14.2135 47.0103 16.3316 47.0103C18.4497 47.0103 20.5167 46.3603 22.2537 45.1482C23.1951 44.4182 24.3596 44.0355 25.5505 44.0645C26.7422 44.0304 27.9084 44.4137 28.8474 45.1482C30.5875 46.3596 32.6569 47.0089 34.7771 47.0089C36.8973 47.0089 38.9667 46.3596 40.7068 45.1482Z" fill="#737373"/>
</svg>
