<svg width="205" height="58" viewBox="0 0 205 58" fill="none" xmlns="http://www.w3.org/2000/svg">
<path d="M51.1201 17.1709H55.6991V39.2262H51.1201V17.1709Z" fill="#737373"/>
<path d="M58.2632 31.6712C58.2632 30.0844 58.7343 28.5334 59.6169 27.2146C60.4994 25.8959 61.7536 24.8689 63.2205 24.2638C64.6874 23.6586 66.3009 23.5026 67.8565 23.8156C69.4122 24.1285 70.8399 24.8962 71.9587 26.0215C73.0775 27.1467 73.8371 28.5788 74.1411 30.1362C74.4451 31.6936 74.2798 33.3062 73.6663 34.7696C73.0528 36.233 72.0186 37.4813 70.6948 38.3562C69.3711 39.2312 67.8173 39.6935 66.2305 39.6844C65.1781 39.6926 64.1346 39.4906 63.1612 39.0903C62.1879 38.6899 61.3042 38.0992 60.5622 37.3529C59.8201 36.6065 59.2345 35.7195 58.8397 34.7439C58.4449 33.7683 58.2489 32.7236 58.2632 31.6712ZM69.7411 31.6712C69.7231 30.9871 69.5038 30.3235 69.1106 29.7634C68.7174 29.2033 68.1678 28.7716 67.5306 28.5222C66.8933 28.2728 66.1967 28.2168 65.5278 28.3612C64.8588 28.5057 64.2474 28.8441 63.7698 29.3342C63.2922 29.8244 62.9698 30.4444 62.8427 31.1169C62.7157 31.7893 62.7898 32.4843 63.0557 33.1148C63.3215 33.7454 63.7674 34.2836 64.3375 34.6621C64.9077 35.0406 65.5767 35.2426 66.2611 35.2428C66.727 35.2519 67.1898 35.1648 67.6205 34.9869C68.0512 34.809 68.4406 34.5442 68.7644 34.209C69.0881 33.8738 69.3392 33.4754 69.502 33.0388C69.6648 32.6021 69.7358 32.1366 69.7105 31.6712H69.7411Z" fill="#737373"/>
<path d="M92.3153 24.1157V38.4784C92.3153 43.5457 88.3468 45.6978 84.3326 45.6978C82.9167 45.814 81.4965 45.5327 80.2318 44.8856C78.9671 44.2384 77.9082 43.251 77.1742 42.0347L81.0358 39.8063C81.3487 40.4372 81.8465 40.9577 82.4627 41.2986C83.079 41.6394 83.7845 41.7844 84.4853 41.7141C84.9317 41.7691 85.3847 41.7248 85.812 41.5843C86.2392 41.4439 86.6302 41.2107 86.9569 40.9015C87.2835 40.5924 87.5378 40.2148 87.7016 39.7959C87.8654 39.377 87.9346 38.9271 87.9042 38.4784V37.0894C87.3714 37.7355 86.6953 38.2484 85.9296 38.5875C85.1639 38.9267 84.3297 39.0827 83.4932 39.0431C81.4691 39.0431 79.528 38.2391 78.0968 36.8079C76.6656 35.3767 75.8616 33.4355 75.8616 31.4115C75.8616 29.3875 76.6656 27.4464 78.0968 26.0152C79.528 24.584 81.4691 23.7799 83.4932 23.7799C84.3297 23.7404 85.1639 23.8964 85.9296 24.2355C86.6953 24.5746 87.3714 25.0876 87.9042 25.7336V24.2073L92.3153 24.1157ZM87.9042 31.3657C87.9347 30.6355 87.746 29.9128 87.3624 29.2907C86.9789 28.6686 86.418 28.1754 85.7519 27.8746C85.0858 27.5738 84.3449 27.4791 83.6246 27.6027C82.9042 27.7264 82.2374 28.0626 81.7097 28.5683C81.182 29.074 80.8176 29.726 80.6635 30.4404C80.5093 31.1549 80.5724 31.8991 80.8446 32.5774C81.1168 33.2557 81.5857 33.837 82.1909 34.2467C82.7962 34.6564 83.5102 34.8756 84.241 34.8763C84.7179 34.9106 85.1968 34.8446 85.6466 34.6824C86.0963 34.5202 86.5071 34.2654 86.8523 33.9346C87.1975 33.6038 87.4695 33.2042 87.6507 32.7617C87.8319 32.3192 87.9182 31.8437 87.9042 31.3657Z" fill="#737373"/>
<path d="M94.8948 31.6709C94.8948 30.0854 95.3652 28.5355 96.2463 27.2174C97.1275 25.8993 98.3799 24.8723 99.845 24.2662C101.31 23.6602 102.922 23.5024 104.477 23.8128C106.032 24.1232 107.459 24.8879 108.58 26.0101C109.7 27.1323 110.462 28.5615 110.769 30.117C111.076 31.6724 110.916 33.284 110.307 34.748C109.698 36.2119 108.669 37.4623 107.349 38.341C106.029 39.2196 104.478 39.687 102.893 39.684C101.838 39.6943 100.792 39.4939 99.8165 39.0946C98.8405 38.6953 97.954 38.1052 97.2091 37.3589C96.4642 36.6125 95.8758 35.725 95.4784 34.7482C95.081 33.7715 94.8826 32.7253 94.8948 31.6709ZM106.373 31.6709C106.355 30.9861 106.135 30.3219 105.741 29.7615C105.347 29.2011 104.797 28.7694 104.159 28.5204C103.521 28.2715 102.823 28.2164 102.154 28.3621C101.484 28.5078 100.873 28.8477 100.396 29.3394C99.9192 29.831 99.5979 30.4525 99.4726 31.1259C99.3473 31.7993 99.4236 32.4948 99.6918 33.1251C99.96 33.7553 100.408 34.2925 100.98 34.6691C101.552 35.0458 102.223 35.2452 102.908 35.2424C103.374 35.2515 103.837 35.1644 104.267 34.9865C104.698 34.8086 105.088 34.5438 105.411 34.2086C105.735 33.8734 105.986 33.475 106.149 33.0384C106.312 32.6017 106.383 32.1362 106.357 31.6709H106.373Z" fill="#737373"/>
<path d="M113.012 20.0709C113.012 19.5335 113.172 19.0082 113.47 18.5614C113.769 18.1147 114.193 17.7664 114.689 17.5608C115.186 17.3552 115.732 17.3014 116.259 17.4062C116.786 17.511 117.27 17.7698 117.65 18.1498C118.03 18.5297 118.289 19.0138 118.394 19.5408C118.499 20.0678 118.445 20.6141 118.239 21.1105C118.033 21.607 117.685 22.0313 117.238 22.3298C116.792 22.6284 116.266 22.7877 115.729 22.7877C115.011 22.7798 114.325 22.491 113.817 21.9832C113.309 21.4754 113.02 20.7889 113.012 20.0709ZM113.455 24.1156H118.034V39.2261H113.455V24.1156Z" fill="#737373"/>
<path d="M137.632 31.6712C137.683 32.6761 137.535 33.6813 137.196 34.6288C136.858 35.5764 136.335 36.4476 135.658 37.1924C134.982 37.9371 134.164 38.5407 133.253 38.9684C132.343 39.396 131.356 39.6394 130.351 39.6844C129.498 39.7411 128.643 39.6045 127.85 39.2847C127.057 38.9649 126.347 38.4702 125.772 37.8375V45.3012H121.193V24.1159H125.772V25.5354C126.348 24.9046 127.059 24.4121 127.852 24.095C128.645 23.7778 129.499 23.6441 130.351 23.7038C131.352 23.7489 132.335 23.9908 133.242 24.4156C134.15 24.8404 134.965 25.4398 135.641 26.1796C136.317 26.9195 136.841 27.7852 137.183 28.7275C137.524 29.6697 137.677 30.67 137.632 31.6712ZM133.053 31.6712C133.035 30.9623 132.808 30.2745 132.4 29.694C131.993 29.1135 131.424 28.6661 130.763 28.4079C130.103 28.1497 129.381 28.0922 128.688 28.2426C127.995 28.393 127.361 28.7446 126.867 29.2534C126.373 29.7621 126.041 30.4053 125.911 31.1025C125.781 31.7996 125.859 32.5195 126.137 33.1721C126.414 33.8247 126.878 34.3809 127.47 34.771C128.062 35.1611 128.757 35.3677 129.466 35.3649C129.951 35.3855 130.436 35.3032 130.888 35.1234C131.339 34.9436 131.748 34.6704 132.087 34.3216C132.425 33.9728 132.686 33.5564 132.853 33.0996C133.019 32.6429 133.087 32.1561 133.053 31.6712Z" fill="#737373"/>
<path d="M151.567 34.6934C151.567 38.1734 148.514 39.6539 145.278 39.6539C143.959 39.7727 142.634 39.4929 141.475 38.8508C140.315 38.2087 139.376 37.2337 138.776 36.0518L142.714 33.8234C142.87 34.368 143.209 34.8425 143.673 35.1676C144.137 35.4927 144.698 35.6486 145.263 35.6092C146.347 35.6092 146.896 35.2734 146.896 34.6628C146.896 32.9992 139.463 33.8844 139.463 28.6492C139.463 25.3523 142.241 23.7039 145.385 23.7039C146.58 23.6504 147.768 23.9215 148.821 24.4886C149.875 25.0556 150.755 25.8974 151.368 26.9244L147.431 29.0002C147.257 28.6065 146.972 28.2715 146.612 28.0359C146.252 27.8002 145.831 27.6739 145.401 27.6723C144.607 27.6723 144.134 27.9776 144.134 28.5118C144.134 30.2518 151.567 29.1071 151.567 34.6934Z" fill="#737373"/>
<path d="M168.158 24.1157V39.2263H163.579V37.8068C163.059 38.4351 162.398 38.9324 161.651 39.2585C160.903 39.5846 160.089 39.7304 159.275 39.6841C156.222 39.6841 153.612 37.5015 153.612 33.4263V24.1157H158.191V32.7394C158.155 33.0999 158.198 33.464 158.316 33.8064C158.435 34.1488 158.626 34.4614 158.877 34.7227C159.128 34.9839 159.433 35.1875 159.77 35.3194C160.108 35.4514 160.47 35.5085 160.832 35.4868C162.48 35.4868 163.64 34.5099 163.64 32.4341V24.1157H168.158Z" fill="#737373"/>
<path d="M194.105 29.9462V39.2262H189.526V30.343C189.526 28.8167 188.809 27.8704 187.359 27.8704C185.909 27.8704 184.993 28.9235 184.993 30.7093V39.2262H180.414V30.343C180.414 28.8167 179.697 27.8704 178.247 27.8704C176.797 27.8704 175.881 28.9235 175.881 30.7093V39.2262H171.302V24.1156H175.881V25.5046C176.355 24.8909 176.975 24.405 177.683 24.0906C178.392 23.7761 179.168 23.6431 179.941 23.7035C180.716 23.6631 181.487 23.8248 182.18 24.1727C182.873 24.5205 183.464 25.0426 183.894 25.6877C184.397 25.0138 185.063 24.4783 185.829 24.1313C186.595 23.7843 187.437 23.6371 188.275 23.7035C191.846 23.7035 194.105 26.1762 194.105 29.9462Z" fill="#737373"/>
<path d="M23.8447 13.2027V6.71582H3.39209V51.2842H23.8447V44.7974C19.655 44.7974 15.6369 43.133 12.6743 40.1705C9.71171 37.2079 8.04735 33.1897 8.04735 29C8.04735 24.8103 9.71171 20.7922 12.6743 17.8296C15.6369 14.867 19.655 13.2027 23.8447 13.2027Z" fill="#737373"/>
<path d="M23.8447 13.2026V44.7974C28.0344 44.7974 32.0526 43.133 35.0152 40.1704C37.9777 37.2078 39.6421 33.1897 39.6421 29C39.6421 24.8103 37.9777 20.7922 35.0152 17.8296C32.0526 14.867 28.0344 13.2026 23.8447 13.2026Z" fill="#737373"/>
<path d="M197.952 24.0244C199.806 24.0244 201.31 22.521 201.31 20.6665C201.31 18.812 199.806 17.3086 197.952 17.3086C196.097 17.3086 194.594 18.812 194.594 20.6665C194.594 22.521 196.097 24.0244 197.952 24.0244Z" fill="#737373"/>
</svg>
