<svg width="50" height="50" viewBox="0 0 50 50" fill="none" xmlns="http://www.w3.org/2000/svg">
<g clip-path="url(#clip0_235_1724)">
<path d="M16.2944 17.8168C16.2944 17.6096 16.3767 17.4109 16.5233 17.2644C16.6698 17.1179 16.8685 17.0355 17.0757 17.0355H27.1142C27.3214 17.0355 27.5201 17.1179 27.6666 17.2644C27.8131 17.4109 27.8954 17.6096 27.8954 17.8168C27.8954 18.024 27.8131 18.2227 27.6666 18.3692C27.5201 18.5157 27.3214 18.598 27.1142 18.598H17.0757C16.8685 18.598 16.6698 18.5157 16.5233 18.3692C16.3767 18.2227 16.2944 18.024 16.2944 17.8168ZM49.9023 44.1625C49.9023 44.9153 49.6105 45.6216 49.0809 46.1513C48.5326 46.6995 47.8123 46.9737 47.092 46.9737C46.3718 46.9737 45.6516 46.6996 45.1032 46.1514L39.0815 40.1296V47.131C39.0815 48.6591 37.8383 49.9023 36.3102 49.9023H2.86904C1.34082 49.9023 0.0976562 48.6592 0.0976562 47.131V7.17471C0.0976562 5.64648 1.34082 4.40332 2.86904 4.40332H16.1816L15.0682 2.829C14.6924 2.29785 14.6444 1.60957 14.943 1.03271C15.2415 0.455859 15.8311 0.0976562 16.4817 0.0976562H22.6974C23.348 0.0976562 23.9377 0.455957 24.2362 1.03271C24.5348 1.60947 24.4867 2.29775 24.111 2.8291L22.9977 4.40332H36.3102C37.8383 4.40332 39.0815 5.64648 39.0815 7.17471V21.4509C40.9353 23.3301 42.0813 25.9089 42.0813 28.7508C42.0813 30.9226 41.4118 32.9406 40.269 34.6105L41.1489 35.4903L41.2208 35.4185C41.3673 35.272 41.566 35.1897 41.7732 35.1897C41.9804 35.1897 42.1791 35.272 42.3256 35.4185L49.0809 42.1737C49.6106 42.7032 49.9023 43.4096 49.9023 44.1625ZM13.1858 5.96582L13.7582 8.61475C13.7986 8.80186 13.9485 8.92275 14.14 8.92275H25.0393C25.2308 8.92275 25.3807 8.80186 25.4211 8.61475L25.9935 5.96582H21.4883C21.345 5.96587 21.2045 5.92653 21.0821 5.85209C20.9597 5.77766 20.8602 5.67099 20.7943 5.54377C20.7285 5.41655 20.6989 5.27367 20.7088 5.13076C20.7187 4.98785 20.7677 4.85042 20.8505 4.7335L22.8354 1.92686C22.8754 1.87031 22.8799 1.81113 22.8487 1.75098C22.8176 1.69072 22.7667 1.66016 22.6976 1.66016H16.4819C16.4128 1.66016 16.3619 1.69063 16.3308 1.75098C16.2996 1.81113 16.3041 1.87041 16.3439 1.92676L18.329 4.7335C18.4118 4.85042 18.4608 4.98785 18.4707 5.13076C18.4806 5.27367 18.451 5.41655 18.3852 5.54377C18.3193 5.67099 18.2198 5.77766 18.0974 5.85209C17.975 5.92653 17.8345 5.96587 17.6912 5.96582H13.1858ZM12.309 9.20879H4.90303V45.097H29.5132V41.1152C29.5132 40.908 29.5955 40.7093 29.742 40.5628C29.8885 40.4163 30.0872 40.334 30.2944 40.334H34.2763V38.8238C33.4283 39.0421 32.5561 39.1522 31.6805 39.1517C30.4891 39.1526 29.3066 38.9479 28.1849 38.5467H17.0757C16.8685 38.5467 16.6698 38.4644 16.5233 38.3179C16.3767 38.1713 16.2944 37.9726 16.2944 37.7654C16.2944 37.5582 16.3767 37.3595 16.5233 37.213C16.6698 37.0665 16.8685 36.9842 17.0757 36.9842H25.333C24.3284 36.208 23.473 35.2558 22.8087 34.1739H17.0756C16.8684 34.1739 16.6697 34.0916 16.5232 33.9451C16.3766 33.7986 16.2943 33.5999 16.2943 33.3927C16.2943 33.1855 16.3766 32.9868 16.5232 32.8402C16.6697 32.6937 16.8684 32.6114 17.0756 32.6114H22.0229C21.7826 32.0124 21.5991 31.3921 21.4748 30.7588H17.0756C16.8684 30.7588 16.6697 30.6765 16.5232 30.53C16.3766 30.3835 16.2943 30.1847 16.2943 29.9775C16.2943 29.7703 16.3766 29.5716 16.5232 29.4251C16.6697 29.2786 16.8684 29.1963 17.0756 29.1963H21.2897C21.2832 29.0479 21.2798 28.8993 21.2796 28.7508C21.2796 27.9376 21.3736 27.146 21.551 26.386H17.0757C16.8685 26.386 16.6698 26.3037 16.5233 26.1572C16.3767 26.0107 16.2944 25.812 16.2944 25.6048C16.2944 25.3976 16.3767 25.1989 16.5233 25.0524C16.6698 24.9058 16.8685 24.8235 17.0757 24.8235H22.0502C22.3159 24.1742 22.6467 23.5536 23.0376 22.971H17.0757C16.8685 22.971 16.6698 22.8887 16.5233 22.7422C16.3767 22.5957 16.2944 22.3969 16.2944 22.1897C16.2944 21.9825 16.3767 21.7838 16.5233 21.6373C16.6698 21.4908 16.8685 21.4085 17.0757 21.4085H24.3208C26.2048 19.52 28.8086 18.3499 31.6805 18.3499C32.5764 18.3499 33.4462 18.4638 34.2763 18.6777V9.20879H26.8702C26.5915 9.97187 25.874 10.4853 25.0393 10.4853H14.14C13.3053 10.4853 12.5878 9.97187 12.309 9.20879ZM33.1714 41.8965H31.0757V43.9922L33.1714 41.8965ZM40.5189 28.7507C40.5189 23.8772 36.554 19.9123 31.6805 19.9123C26.8069 19.9123 22.8421 23.8772 22.8421 28.7507C22.8421 33.6242 26.8069 37.5892 31.6805 37.5892C36.554 37.5892 40.5189 33.6242 40.5189 28.7507ZM39.5247 37.1145L40.044 36.5951L39.2861 35.8372C39.1191 36.0163 38.9459 36.1895 38.7668 36.3565L39.5247 37.1145ZM40.7506 39.5888L42.5186 37.8208L41.7733 37.0756L40.0054 38.8436L40.7506 39.5888ZM48.3398 44.1624C48.3398 43.827 48.2106 43.5131 47.9761 43.2785L43.6232 38.9257L41.8555 40.6937L46.2082 45.0464C46.6956 45.5337 47.4887 45.5338 47.9762 45.0463C48.2107 44.8118 48.3398 44.4979 48.3398 44.1624ZM9.25869 33.8742C9.40441 34.0166 9.60015 34.0963 9.80391 34.096C10.0052 34.096 10.2062 34.0187 10.359 33.8646L13.5882 30.6051C13.6616 30.5325 13.7199 30.446 13.7597 30.3507C13.7995 30.2554 13.82 30.1532 13.82 30.0499C13.8201 29.9467 13.7997 29.8444 13.7599 29.7491C13.7202 29.6538 13.662 29.5673 13.5886 29.4946C13.5153 29.4219 13.4282 29.3645 13.3325 29.3257C13.2369 29.2869 13.1344 29.2674 13.0312 29.2684C12.9279 29.2694 12.8259 29.2909 12.731 29.3316C12.636 29.3723 12.5501 29.4314 12.4782 29.5055L9.79443 32.2145L8.54805 30.9996C8.4746 30.928 8.38776 30.8715 8.29248 30.8334C8.19721 30.7954 8.09536 30.7764 7.99277 30.7778C7.89018 30.7791 7.78885 30.8006 7.69458 30.8411C7.60031 30.8816 7.51494 30.9403 7.44336 31.0138C7.37174 31.0872 7.31529 31.1741 7.27724 31.2693C7.23919 31.3646 7.22028 31.4665 7.22159 31.569C7.22291 31.6716 7.24442 31.773 7.2849 31.8672C7.32538 31.9615 7.38404 32.0469 7.45752 32.1185L9.25869 33.8742ZM39.2639 28.7507C39.2639 32.9321 35.862 36.334 31.6806 36.334C27.4991 36.334 24.0972 32.9321 24.0972 28.7507C24.0972 24.5692 27.499 21.1674 31.6806 21.1674C35.8621 21.1674 39.2639 24.5692 39.2639 28.7507ZM34.1562 30.2749C34.1562 29.0036 33.1221 27.9695 31.8509 27.9695H31.5103C31.1006 27.9695 30.7674 27.6362 30.7674 27.2267C30.7674 26.8171 31.1007 26.4839 31.5103 26.4839H31.99C32.2265 26.4839 32.4519 26.6002 32.5927 26.795C32.6528 26.8782 32.7287 26.9486 32.816 27.0025C32.9034 27.0563 33.0005 27.0923 33.1018 27.1086C33.2031 27.1249 33.3066 27.1211 33.4064 27.0973C33.5062 27.0736 33.6004 27.0304 33.6835 26.9703C33.7666 26.9102 33.8371 26.8343 33.8909 26.7469C33.9447 26.6596 33.9808 26.5625 33.997 26.4612C34.0133 26.3599 34.0095 26.2564 33.9857 26.1566C33.962 26.0568 33.9188 25.9626 33.8587 25.8795C33.5217 25.414 33.0239 25.0902 32.4617 24.9708V24.7042C32.4617 24.497 32.3794 24.2983 32.2329 24.1518C32.0864 24.0053 31.8877 23.9229 31.6805 23.9229C31.4733 23.9229 31.2746 24.0053 31.128 24.1518C30.9815 24.2983 30.8992 24.497 30.8992 24.7042V25.0035C29.9235 25.272 29.2047 26.167 29.2047 27.2268C29.2047 28.498 30.2389 29.5321 31.5101 29.5321H31.8507C32.2604 29.5321 32.5936 29.8654 32.5936 30.275C32.5936 30.6846 32.2603 31.0178 31.8507 31.0178H31.3709C31.1344 31.0178 30.9091 30.9015 30.7682 30.7066C30.7081 30.6235 30.6322 30.553 30.5448 30.4992C30.4575 30.4454 30.3604 30.4093 30.2591 30.393C30.1578 30.3768 30.0543 30.3806 29.9544 30.4043C29.8546 30.4281 29.7605 30.4712 29.6773 30.5313C29.5942 30.5915 29.5237 30.6674 29.4699 30.7547C29.4161 30.8421 29.3801 30.9392 29.3638 31.0405C29.3475 31.1418 29.3514 31.2453 29.3751 31.3451C29.3989 31.4449 29.442 31.539 29.5021 31.6222C29.8392 32.0877 30.337 32.4115 30.8991 32.5309V32.7975C30.8991 33.0047 30.9814 33.2034 31.1279 33.3499C31.2745 33.4964 31.4732 33.5787 31.6804 33.5787C31.8876 33.5787 32.0863 33.4964 32.2328 33.3499C32.3793 33.2034 32.4616 33.0047 32.4616 32.7975V32.4981C33.4374 32.2296 34.1562 31.3346 34.1562 30.2749ZM17.0757 15.1832H31.1766C31.3838 15.1832 31.5825 15.1009 31.729 14.9544C31.8755 14.8079 31.9578 14.6092 31.9578 14.402C31.9578 14.1948 31.8755 13.996 31.729 13.8495C31.5825 13.703 31.3838 13.6207 31.1766 13.6207H17.0757C16.8685 13.6207 16.6698 13.703 16.5233 13.8495C16.3767 13.996 16.2944 14.1948 16.2944 14.402C16.2944 14.6092 16.3767 14.8079 16.5233 14.9544C16.6698 15.1009 16.8685 15.1832 17.0757 15.1832ZM9.25869 26.0864C9.40441 26.2288 9.60015 26.3085 9.80391 26.3082C10.0052 26.3082 10.2062 26.231 10.359 26.0768L13.5882 22.8172C13.662 22.7447 13.7207 22.6582 13.7609 22.5628C13.801 22.4674 13.8218 22.365 13.8221 22.2615C13.8223 22.158 13.8019 22.0554 13.7622 21.9599C13.7225 21.8643 13.6642 21.7776 13.5906 21.7047C13.5171 21.6319 13.4298 21.5744 13.3339 21.5356C13.2379 21.4967 13.1352 21.4774 13.0317 21.4786C12.9282 21.4798 12.826 21.5015 12.731 21.5426C12.636 21.5836 12.55 21.6431 12.4782 21.7177L9.79443 24.4267L8.54805 23.2117C8.4746 23.1401 8.38775 23.0836 8.29248 23.0456C8.1972 23.0075 8.09536 22.9886 7.99277 22.9899C7.89018 22.9912 7.78886 23.0127 7.69459 23.0532C7.60032 23.0937 7.51495 23.1524 7.44336 23.2259C7.37174 23.2993 7.31529 23.3862 7.27724 23.4815C7.23919 23.5767 7.22028 23.6786 7.22159 23.7812C7.22291 23.8837 7.24442 23.9851 7.2849 24.0793C7.32538 24.1736 7.38404 24.259 7.45752 24.3306L9.25869 26.0864ZM9.25869 18.2985C9.40441 18.441 9.60015 18.5206 9.80391 18.5203C10.0052 18.5203 10.2062 18.4431 10.359 18.2889L13.5882 15.0294C13.662 14.9569 13.7207 14.8704 13.7609 14.775C13.801 14.6796 13.8218 14.5772 13.8221 14.4737C13.8223 14.3702 13.8019 14.2676 13.7622 14.1721C13.7225 14.0765 13.6642 13.9898 13.5906 13.9169C13.5171 13.8441 13.4298 13.7866 13.3339 13.7478C13.2379 13.7089 13.1352 13.6896 13.0317 13.6908C12.9282 13.692 12.826 13.7137 12.731 13.7548C12.636 13.7958 12.55 13.8553 12.4782 13.9299L9.79443 16.6388L8.54805 15.4239C8.4746 15.3523 8.38776 15.2958 8.29248 15.2577C8.19721 15.2197 8.09536 15.2008 7.99277 15.2021C7.89018 15.2034 7.78885 15.2249 7.69458 15.2654C7.60031 15.3059 7.51494 15.3646 7.44336 15.4381C7.37174 15.5115 7.31529 15.5984 7.27724 15.6937C7.23919 15.7889 7.22028 15.8908 7.22159 15.9934C7.22291 16.0959 7.24442 16.1973 7.2849 16.2915C7.32538 16.3858 7.38404 16.4712 7.45752 16.5428L9.25869 18.2985ZM9.25869 41.6621C9.40441 41.8045 9.60015 41.8841 9.80391 41.8839C10.0052 41.8839 10.2062 41.8066 10.359 41.6524L13.5882 38.3929C13.6604 38.32 13.7175 38.2336 13.7564 38.1386C13.7952 38.0437 13.8149 37.942 13.8144 37.8394C13.8139 37.7368 13.7933 37.6353 13.7536 37.5407C13.7138 37.4461 13.6559 37.3603 13.583 37.2881C13.4358 37.1423 13.2367 37.0609 13.0295 37.0619C12.8223 37.0629 12.624 37.1462 12.4782 37.2934L9.79443 40.0023L8.54805 38.7874C8.4746 38.7158 8.38776 38.6593 8.29248 38.6212C8.19721 38.5832 8.09536 38.5642 7.99277 38.5656C7.89018 38.5669 7.78885 38.5884 7.69458 38.6289C7.60031 38.6694 7.51494 38.7281 7.44336 38.8016C7.37174 38.875 7.31529 38.9619 7.27724 39.0571C7.23919 39.1524 7.22028 39.2543 7.22159 39.3568C7.22291 39.4594 7.24442 39.5607 7.2849 39.655C7.32538 39.7493 7.38404 39.8347 7.45752 39.9062L9.25869 41.6621ZM17.0757 41.9617H27.0595C27.2667 41.9617 27.4654 41.8794 27.6119 41.7329C27.7584 41.5864 27.8407 41.3877 27.8407 41.1805C27.8407 40.9733 27.7584 40.7746 27.6119 40.628C27.4654 40.4815 27.2667 40.3992 27.0595 40.3992H17.0757C16.8685 40.3992 16.6698 40.4815 16.5233 40.628C16.3767 40.7746 16.2944 40.9733 16.2944 41.1805C16.2944 41.3877 16.3767 41.5864 16.5233 41.7329C16.6698 41.8794 16.8685 41.9617 17.0757 41.9617Z" fill="#014EFF"/>
</g>
<defs>
<clipPath id="clip0_235_1724">
<rect width="50" height="50" fill="white"/>
</clipPath>
</defs>
</svg>
