<svg width="50" height="50" viewBox="0 0 50 50" fill="none" xmlns="http://www.w3.org/2000/svg">
<path d="M24.165 22.7575C24.2547 22.8543 24.3634 22.9315 24.4843 22.9845C24.6051 23.0374 24.7356 23.0649 24.8676 23.0652H24.8703C25.0018 23.0653 25.132 23.0383 25.2528 22.9861C25.3735 22.9338 25.4822 22.8573 25.5722 22.7613L38.8973 8.54523C39.0647 8.36664 39.1577 8.13095 39.1573 7.88617C39.1569 7.6414 39.0632 7.40599 38.8953 7.22792L35.264 3.37888C35.1709 3.2802 35.058 3.20233 34.9327 3.1504C34.8074 3.09846 34.6724 3.07363 34.5368 3.07755C34.4012 3.08146 34.268 3.11403 34.1459 3.17311C34.0237 3.23218 33.9155 3.31643 33.8283 3.42032L24.739 14.2457L20.1116 10.5276C20.0052 10.4421 19.8817 10.3802 19.7495 10.3461C19.6172 10.312 19.4793 10.3065 19.3447 10.3298C19.2102 10.3532 19.0822 10.405 18.9692 10.4817C18.8562 10.5584 18.7609 10.6583 18.6895 10.7747L16.8297 13.8091C16.7201 13.9879 16.672 14.1977 16.6927 14.4064C16.7134 14.6151 16.8017 14.8113 16.9443 14.9651L24.165 22.7575ZM7.56383 19.4299C7.65312 19.5192 7.75912 19.5901 7.87579 19.6384C7.99246 19.6867 8.1175 19.7116 8.24378 19.7116C8.37006 19.7116 8.49511 19.6867 8.61177 19.6384C8.72844 19.5901 8.83445 19.5192 8.92374 19.4299L10.6748 17.6789L12.4259 19.4299C12.6065 19.609 12.8507 19.7092 13.105 19.7086C13.3593 19.708 13.603 19.6068 13.7828 19.427C13.9626 19.2472 14.0639 19.0035 14.0644 18.7492C14.065 18.4949 13.9648 18.2507 13.7858 18.0701L12.0347 16.319L13.7858 14.5675C13.9661 14.3872 14.0674 14.1426 14.0674 13.8876C14.0674 13.6326 13.9661 13.388 13.7858 13.2077C13.6055 13.0273 13.3609 12.926 13.1059 12.926C12.8509 12.926 12.6063 13.0273 12.4259 13.2076L10.6748 14.9588L8.92374 13.208C8.74268 13.0314 8.49934 12.9333 8.24644 12.9349C7.99354 12.9364 7.75144 13.0376 7.57258 13.2164C7.39373 13.3952 7.29252 13.6373 7.29088 13.8902C7.28924 14.1431 7.38731 14.3864 7.56383 14.5675L9.31499 16.3186L7.56383 18.0701C7.38351 18.2505 7.28221 18.495 7.28221 18.75C7.28221 19.005 7.38351 19.2496 7.56383 19.4299ZM37.5742 13.208C37.393 13.0322 37.1499 12.9347 36.8974 12.9366C36.645 12.9385 36.4034 13.0396 36.2248 13.2181C36.0463 13.3966 35.9451 13.6382 35.9431 13.8907C35.9412 14.1432 36.0386 14.3863 36.2144 14.5675L37.9655 16.3186L36.2144 18.0697C36.1245 18.1589 36.053 18.2649 36.0042 18.3817C35.9554 18.4986 35.9301 18.6239 35.9298 18.7505C35.9295 18.8771 35.9543 19.0026 36.0026 19.1196C36.0509 19.2367 36.1219 19.343 36.2114 19.4325C36.301 19.5221 36.4073 19.593 36.5243 19.6414C36.6414 19.6897 36.7668 19.7144 36.8934 19.7142C37.0201 19.7139 37.1454 19.6886 37.2622 19.6398C37.379 19.5909 37.4851 19.5195 37.5742 19.4296L39.3254 17.6785L41.0764 19.4296C41.2567 19.6099 41.5013 19.7112 41.7563 19.7112C42.0114 19.7112 42.2559 19.6099 42.4363 19.4296C42.6166 19.2493 42.7179 19.0047 42.7179 18.7497C42.7179 18.4947 42.6167 18.2501 42.4363 18.0697L40.6852 16.3186L42.4363 14.5675C42.6167 14.3872 42.718 14.1426 42.718 13.8876C42.718 13.6326 42.6167 13.388 42.4363 13.2076C42.256 13.0273 42.0114 12.926 41.7564 12.926C41.5013 12.926 41.2568 13.0273 41.0764 13.2076L39.3254 14.9588L37.5742 13.208ZM42.4061 33.2003C43.077 32.5806 43.5454 31.773 43.7501 30.8829C43.9548 29.9929 43.8863 29.0618 43.5535 28.2113C43.2208 27.3608 42.6393 26.6303 41.885 26.1155C41.1307 25.6006 40.2387 25.3251 39.3254 25.3251C38.4121 25.3251 37.52 25.6006 36.7657 26.1155C36.0114 26.6303 35.4299 27.3608 35.0972 28.2113C34.7645 29.0618 34.696 29.9929 34.9007 30.8829C35.1054 31.773 35.5737 32.5806 36.2446 33.2003C35.2615 33.6827 34.4044 34.3877 33.7414 35.2593C33.0785 36.1309 32.628 37.1451 32.4258 38.2214C31.4342 36.8725 30.0958 35.8175 28.5527 35.1684C29.5203 34.4261 30.2311 33.3993 30.5852 32.2323C30.9393 31.0653 30.9189 29.8166 30.527 28.6618C30.135 27.5069 29.3911 26.5039 28.3999 25.7935C27.4086 25.0831 26.2196 24.7011 25.0001 24.7011C23.7805 24.7011 22.5916 25.0831 21.6003 25.7935C20.609 26.5039 19.8652 27.5069 19.4732 28.6618C19.0812 29.8166 19.0609 31.0653 19.415 32.2323C19.7691 33.3993 20.4799 34.4261 21.4475 35.1684C19.9044 35.8175 18.566 36.8725 17.5744 38.2214C17.3721 37.1451 16.9216 36.1309 16.2587 35.2593C15.5958 34.3877 14.7387 33.6827 13.7556 33.2003C14.4264 32.5806 14.8948 31.773 15.0994 30.8829C15.3041 29.9929 15.2356 29.0618 14.9029 28.2113C14.5702 27.3608 13.9887 26.6304 13.2344 26.1155C12.4801 25.6006 11.588 25.3252 10.6747 25.3252C9.76147 25.3252 8.86941 25.6006 8.11511 26.1155C7.3608 26.6304 6.77931 27.3608 6.44658 28.2113C6.11386 29.0618 6.04536 29.9929 6.25005 30.8829C6.45474 31.773 6.92309 32.5806 7.59393 33.2003C6.41348 33.7779 5.41866 34.675 4.72244 35.7896C4.02622 36.9042 3.6565 38.1917 3.65527 39.5059V41.1886C3.65527 41.4436 3.75658 41.6882 3.9369 41.8685C4.11722 42.0488 4.3618 42.1501 4.61681 42.1501H15.9122C15.8284 42.6522 15.7863 43.1603 15.7862 43.6694V45.9618C15.7862 46.2168 15.8875 46.4614 16.0679 46.6417C16.2482 46.822 16.4928 46.9233 16.7478 46.9233H33.2524C33.5074 46.9233 33.752 46.822 33.9323 46.6417C34.1126 46.4614 34.2139 46.2168 34.2139 45.9618V43.6696C34.2139 43.1605 34.1717 42.6524 34.088 42.1503H45.3834C45.6384 42.1503 45.8829 42.049 46.0633 41.8687C46.2436 41.6884 46.3449 41.4438 46.3449 41.1888V39.5061C46.3437 38.1919 45.974 36.9043 45.2777 35.7897C44.5815 34.675 43.5866 33.7779 42.4061 33.2003ZM21.0866 30.5422C21.0866 29.7681 21.3161 29.0115 21.7462 28.3679C22.1762 27.7244 22.7874 27.2228 23.5025 26.9266C24.2176 26.6304 25.0044 26.5529 25.7636 26.7039C26.5227 26.8549 27.22 27.2276 27.7673 27.7749C28.3146 28.3222 28.6873 29.0195 28.8383 29.7787C28.9893 30.5378 28.9118 31.3247 28.6156 32.0398C28.3194 32.7549 27.8178 33.3661 27.1743 33.7961C26.5307 34.2261 25.7741 34.4556 25.0001 34.4556C23.9625 34.4544 22.9678 34.0418 22.2341 33.3081C21.5005 32.5744 21.0878 31.5797 21.0866 30.5422ZM32.2908 45.0002H17.7093V43.6696C17.7093 42.7121 17.8979 41.7641 18.2643 40.8795C18.6307 39.9949 19.1677 39.1912 19.8447 38.5142C20.5217 37.8372 21.3255 37.3002 22.21 36.9338C23.0946 36.5674 24.0426 36.3788 25.0001 36.3788C25.9575 36.3788 26.9056 36.5674 27.7901 36.9338C28.6747 37.3002 29.4784 37.8372 30.1554 38.5142C30.8324 39.1912 31.3695 39.9949 31.7359 40.8795C32.1023 41.7641 32.2909 42.7121 32.2908 43.6696V45.0002Z" fill="#014EFF"/>
</svg>
