<svg width="50" height="50" viewBox="0 0 50 50" fill="none" xmlns="http://www.w3.org/2000/svg">
<g clip-path="url(#clip0_235_1746)">
<path d="M21.8096 20.0977L28.7588 16.1895L21.8096 12.2822V20.0977Z" fill="#014EFF"/>
<path d="M45.8537 9.63477H39.8017C37.2807 3.96436 31.5949 0 25 0C18.4051 0 12.7193 3.96436 10.1983 9.63477H4.14629C1.85996 9.63477 0 11.4948 0 13.7811V39.5717C0 41.8579 1.85996 43.718 4.14629 43.718H7.15918V45.4932C7.15918 47.9775 9.18066 50 11.666 50H17.4785C18.2881 50 18.9434 49.3438 18.9434 48.5352V47.0703H22.7559C23.5645 47.0703 24.2207 46.4141 24.2207 45.6055C24.2207 44.7969 23.5645 44.1406 22.7559 44.1406H18.9434V40.3652H22.7559C23.5645 40.3652 24.2207 39.71 24.2207 38.9004C24.2207 38.0918 23.5645 37.4355 22.7559 37.4355H18.9434V35.9707C18.9434 35.1621 18.2881 34.5059 17.4785 34.5059H11.666C9.18066 34.5059 7.15918 36.5283 7.15918 39.0137V40.7883H4.14629C3.47549 40.7883 2.92969 40.2426 2.92969 39.5717V13.7811C2.92969 13.1103 3.47549 12.5645 4.14629 12.5645H9.22002C8.94733 13.7535 8.80997 14.9695 8.81055 16.1895C8.81055 25.1162 16.0732 32.3789 25 32.3789C33.9268 32.3789 41.1895 25.1162 41.1895 16.1895C41.1895 14.9436 41.0477 13.7303 40.78 12.5645H45.8537C46.5245 12.5645 47.0703 13.1103 47.0703 13.7811V39.5717C47.0703 40.2425 46.5245 40.7883 45.8537 40.7883H41.8643V39.0137C41.8643 36.5283 39.8428 34.5059 37.3574 34.5059H31.5449C30.7353 34.5059 30.0801 35.1621 30.0801 35.9707V48.5352C30.0801 49.3438 30.7353 50 31.5449 50H37.3574C39.8428 50 41.8643 47.9775 41.8643 45.4932V43.718H45.8537C48.14 43.718 50 41.858 50 39.5717V13.7811C50 11.4948 48.14 9.63477 45.8537 9.63477ZM32.4648 17.4668L21.0635 23.8789C20.0834 24.4268 18.8799 23.7188 18.8799 22.6016V9.77734C18.8799 8.65742 20.0892 7.95195 21.0635 8.50098L32.4648 14.9131C33.4593 15.4702 33.46 16.9072 32.4648 17.4668Z" fill="#014EFF"/>
</g>
<defs>
<clipPath id="clip0_235_1746">
<rect width="50" height="50" fill="white"/>
</clipPath>
</defs>
</svg>
