<svg width="50" height="50" viewBox="0 0 50 50" fill="none" xmlns="http://www.w3.org/2000/svg">
<path d="M20.3184 16.894H19.0305C18.5684 16.894 18.1971 17.2653 18.1971 17.7274V23.8562C18.1971 24.3183 18.5684 24.6895 19.0305 24.6895H30.9547C31.4168 24.6895 31.7881 24.3183 31.7881 23.8562V17.7274C31.7881 17.2653 31.4168 16.894 30.9547 16.894H29.6668C29.2047 16.894 28.8335 17.2653 28.8335 17.7274V19.5456C28.8335 19.7956 28.629 20.0001 28.379 20.0001H26.985C26.735 20.0001 26.5305 19.7956 26.5305 19.5456V17.7274C26.5305 17.2653 26.1593 16.894 25.6971 16.894H24.3032C23.8411 16.894 23.4699 17.2653 23.4699 17.7274V19.5456C23.4699 19.7956 23.2653 20.0001 23.0153 20.0001H21.6214C21.3714 20.0001 21.1668 19.7956 21.1668 19.5456V17.7274C21.1593 17.2728 20.7805 16.894 20.3184 16.894ZM34.1517 42.1592H15.8487C15.2805 42.1592 14.8184 42.6213 14.8184 43.1895V49.1971H35.182V43.1895C35.182 42.6213 34.7199 42.1592 34.1517 42.1592ZM31.7275 46.4243H18.2729C17.8638 46.4243 17.5305 46.091 17.5305 45.6819C17.5305 45.2728 17.8638 44.9395 18.2729 44.9395H31.7199C32.129 44.9395 32.4623 45.2728 32.4623 45.6819C32.4699 46.091 32.1365 46.4243 31.7275 46.4243Z" fill="#014EFF"/>
<path d="M43.727 17.5002H40.9316C40.5073 15.4396 39.6967 13.5305 38.5831 11.8335L40.5679 9.84868C41.0452 9.36383 41.0452 8.57595 40.5679 8.0911L37.6891 5.21989C37.2119 4.73504 36.4164 4.73504 35.9316 5.21989L33.9467 7.19716C32.2255 6.05741 30.302 5.25766 28.28 4.8411V2.04565C28.28 1.35625 27.727 0.803223 27.03 0.803223H22.9694C22.28 0.803223 21.7194 1.35625 21.7194 2.04565V4.84868C19.6588 5.27292 17.7497 6.08353 16.0603 7.20474L14.0755 5.21989C13.5906 4.73504 12.8028 4.73504 12.3179 5.21989L9.43913 8.0911C9.20781 8.3251 9.07808 8.64086 9.07808 8.96989C9.07808 9.29892 9.20781 9.61468 9.43913 9.84868L11.424 11.8411C10.2898 13.5617 9.4928 15.4821 9.07549 17.5002H6.26489C5.57549 17.5002 5.02246 18.0532 5.02246 18.7426V22.8108C5.02246 23.5002 5.57549 24.0532 6.26489 24.0532H9.07549C9.49973 26.1138 10.3028 28.0229 11.424 29.7199L9.4467 31.7047C8.96186 32.1896 8.96186 32.9775 9.4467 33.4623L12.3179 36.3335C12.8028 36.8184 13.5906 36.8184 14.0755 36.3335L16.0603 34.3487C16.9088 34.9093 17.8028 35.3866 18.7497 35.7881C19.5603 34.2653 19.9846 32.5229 20.1816 30.8714C16.4088 29.0684 13.7952 25.235 13.7952 20.7653C13.7952 14.5835 18.8103 9.56837 24.9997 9.56837C31.1891 9.56837 36.2043 14.5835 36.2043 20.7653C36.2043 25.2275 33.5906 29.0684 29.8179 30.8714C30.0149 32.5153 30.4316 34.2653 31.2497 35.7881C32.1967 35.3941 33.1058 34.9093 33.9543 34.3487L35.9316 36.3335C36.4164 36.8184 37.2119 36.8184 37.6891 36.3335L40.5679 33.4623C41.0452 32.9775 41.0452 32.1896 40.5679 31.7047L38.5831 29.7199C39.7043 28.0229 40.5073 26.1138 40.9316 24.0532H43.727C44.4164 24.0532 44.977 23.5002 44.977 22.8108V18.7426C44.977 18.0608 44.4164 17.5002 43.727 17.5002Z" fill="#014EFF"/>
<path d="M30.6736 37.6895C28.0448 34.0455 28.0448 28.7501 28.2342 26.1895H21.772C21.9614 28.7425 21.9614 34.0455 19.3327 37.6895H30.6736ZM16.6963 40.1516V40.6667H33.2948V40.1516C33.2948 39.6137 32.8554 39.1743 32.3175 39.1743H17.6736C17.415 39.1763 17.1676 39.2799 16.9847 39.4627C16.8019 39.6456 16.6983 39.893 16.6963 40.1516Z" fill="#014EFF"/>
</svg>
