<svg width="44" height="44" viewBox="0 0 44 44" fill="none" xmlns="http://www.w3.org/2000/svg">
<path d="M2.59876 20.1657C3.67619 15.8352 6.17149 11.9896 9.68734 9.24131C13.2032 6.49301 17.5374 5 22 5C26.4625 5 30.7968 6.49301 34.3127 9.24131C37.8285 11.9896 40.3238 15.8352 41.4012 20.1657H39.6488C36.6925 20.1222 33.7968 21.0057 31.3684 22.6922C31.2282 22.7937 31.0819 22.8863 30.9303 22.9697H30.7258C30.5742 22.8863 30.4278 22.7937 30.2877 22.6922C27.8377 21.0447 24.9524 20.1648 22 20.1648C19.0476 20.1648 16.1623 21.0447 13.7123 22.6922C13.5722 22.7937 13.4258 22.8863 13.2742 22.9697H13.0697C12.9181 22.8863 12.7718 22.7937 12.6316 22.6922C10.2032 21.0057 7.30751 20.1222 4.35122 20.1657H2.59876ZM36.4943 29.3223C37.394 28.6217 38.5089 28.2552 39.6488 28.2855H42V23.5976H39.6488C37.6411 23.5733 35.6792 24.1982 34.0555 25.3793C33.1417 26.053 32.0363 26.4164 30.9011 26.4164C29.7658 26.4164 28.6604 26.053 27.7466 25.3793C26.0817 24.2203 24.1017 23.599 22.073 23.599C20.0444 23.599 18.0644 24.2203 16.3994 25.3793C15.4857 26.053 14.3802 26.4164 13.245 26.4164C12.1097 26.4164 11.0043 26.053 10.0905 25.3793C8.44673 24.1831 6.4568 23.5574 4.42424 23.5976H2V28.2855H4.35122C5.49107 28.2552 6.60604 28.6217 7.50566 29.3223C9.16759 30.4821 11.1454 31.104 13.172 31.104C15.1985 31.104 17.1763 30.4821 18.8383 29.3223C19.739 28.6239 20.8532 28.2577 21.9927 28.2855C23.1329 28.2528 24.2487 28.6195 25.1471 29.3223C26.8121 30.4814 28.7921 31.1027 30.8207 31.1027C32.8494 31.1027 34.8294 30.4814 36.4943 29.3223ZM36.4943 37.705C37.394 37.0044 38.5089 36.6378 39.6488 36.6681H42V31.9802H39.6488C37.6411 31.9559 35.6792 32.5809 34.0555 33.7619C33.1417 34.4356 32.0363 34.799 30.9011 34.799C29.7658 34.799 28.6604 34.4356 27.7466 33.7619C26.0817 32.6029 24.1017 31.9816 22.073 31.9816C20.0444 31.9816 18.0644 32.6029 16.3994 33.7619C15.4857 34.4356 14.3802 34.799 13.245 34.799C12.1097 34.799 11.0043 34.4356 10.0905 33.7619C8.44673 32.5658 6.4568 31.9401 4.42424 31.9802H2V36.6681H4.35122C5.49107 36.6378 6.60604 37.0044 7.50566 37.705C9.16759 38.8647 11.1454 39.4866 13.172 39.4866C15.1985 39.4866 17.1763 38.8647 18.8383 37.705C19.739 37.0065 20.8532 36.6403 21.9927 36.6681C23.1329 36.6354 24.2487 37.0022 25.1471 37.705C26.8121 38.864 28.7921 39.4853 30.8207 39.4853C32.8494 39.4853 34.8294 38.864 36.4943 37.705Z" fill="#FF5C01"/>
</svg>
