<svg width="44" height="44" viewBox="0 0 44 44" fill="none" xmlns="http://www.w3.org/2000/svg">
<path d="M24 8.38527V3H7V40H24V34.6147C20.5176 34.6147 17.1777 33.233 14.7153 30.7735C12.2528 28.314 10.8694 24.9782 10.8694 21.5C10.8694 18.0218 12.2528 14.686 14.7153 12.2265C17.1777 9.767 20.5176 8.38527 24 8.38527Z" fill="#FFB801"/>
<path d="M24 8V35C27.4478 35 30.7544 33.5777 33.1924 31.0459C35.6304 28.5142 37 25.0804 37 21.5C37 17.9196 35.6304 14.4858 33.1924 11.9541C30.7544 9.42232 27.4478 8 24 8Z" fill="#FFB801"/>
</svg>
