<svg width="44" height="44" viewBox="0 0 44 44" fill="none" xmlns="http://www.w3.org/2000/svg">
<path d="M21.6577 26.7283V36.3717C21.6577 36.7414 21.5107 37.0959 21.249 37.3573C20.9873 37.6187 20.6324 37.7655 20.2623 37.7655C19.8922 37.7655 19.5372 37.6187 19.2755 37.3573C19.0138 37.0959 18.8668 36.7414 18.8668 36.3717V26.7417C19.2554 27.0251 19.7212 27.1833 20.2022 27.1952C20.7265 27.2101 21.2402 27.0454 21.6577 26.7283ZM33.5425 23.9407C33.1883 23.9407 32.8487 24.0812 32.5982 24.3313C32.3478 24.5815 32.2071 24.9207 32.2071 25.2745V26.9551C32.2071 27.3247 32.3541 27.6793 32.6158 27.9407C32.8775 28.202 33.2325 28.3489 33.6026 28.3489C33.9727 28.3489 34.3276 28.202 34.5893 27.9407C34.851 27.6793 34.998 27.3247 34.998 26.9551V25.3412C35.0084 25.1499 34.9775 24.9587 34.9072 24.7804C34.837 24.6022 34.7292 24.4412 34.5911 24.3083C34.453 24.1754 34.2878 24.0738 34.1069 24.0104C33.9259 23.9469 33.7334 23.9232 33.5425 23.9407ZM15.8355 30.3829C15.355 30.3686 14.8899 30.2106 14.5002 29.9295V39.5995C14.5002 39.9709 14.6479 40.3272 14.9109 40.5898C15.1738 40.8525 15.5304 41 15.9023 41C16.2742 41 16.6308 40.8525 16.8938 40.5898C17.1567 40.3272 17.3044 39.9709 17.3044 39.5995V29.9961C16.8684 30.2777 16.3539 30.4132 15.8355 30.3829ZM29.1892 21.0463C29.0083 21.0373 28.8275 21.0651 28.6577 21.1281C28.4879 21.191 28.3326 21.2878 28.2015 21.4126C28.0703 21.5374 27.966 21.6875 27.8947 21.8538C27.8235 22.0202 27.7868 22.1992 27.7871 22.3801V29.8094C27.7871 30.1808 27.9348 30.5371 28.1977 30.7997C28.4607 31.0623 28.8173 31.2099 29.1892 31.2099C29.5611 31.2099 29.9177 31.0623 30.1807 30.7997C30.4436 30.5371 30.5913 30.1808 30.5913 29.8094V22.4735C30.602 22.281 30.5707 22.0885 30.4997 21.9092C30.4287 21.73 30.3197 21.5682 30.18 21.4351C30.0404 21.302 29.8736 21.2007 29.691 21.1382C29.5084 21.0757 29.3144 21.0534 29.1224 21.073L29.1892 21.0463ZM24.7558 23.9007C24.2528 23.8972 23.7632 23.7389 23.3537 23.4472V33.1439C23.3537 33.5153 23.5014 33.8716 23.7643 34.1342C24.0273 34.3969 24.3839 34.5444 24.7558 34.5444C25.1277 34.5444 25.4843 34.3969 25.7472 34.1342C26.0102 33.8716 26.1579 33.5153 26.1579 33.1439V23.4605C25.7343 23.7757 25.2171 23.9401 24.689 23.9273L24.7558 23.9007ZM12.8043 31.3299V4.24044C12.8008 3.91023 12.667 3.59475 12.4319 3.3625C12.1969 3.13025 11.8796 2.99998 11.549 3H11.2552C10.9246 2.99998 10.6074 3.13025 10.3723 3.3625C10.1373 3.59475 10.0035 3.91023 10 4.24044V31.3299C10 31.6625 10.1322 31.9814 10.3677 32.2165C10.6031 32.4516 10.9223 32.5837 11.2552 32.5837H11.549C11.8819 32.5837 12.2012 32.4516 12.4366 32.2165C12.672 31.9814 12.8043 31.6625 12.8043 31.3299ZM15.9824 29.3559H15.6887C15.3557 29.3559 15.0365 29.2238 14.8011 28.9887C14.5657 28.7536 14.4334 28.4347 14.4334 28.1021V7.46824C14.4369 7.13803 14.5707 6.82255 14.8058 6.59029C15.0408 6.35804 15.358 6.22778 15.6887 6.2278H15.9824C16.313 6.22778 16.6303 6.35804 16.8653 6.59029C17.1004 6.82255 17.2342 7.13803 17.2377 7.46824V28.1288C17.2377 28.4613 17.1054 28.7802 16.87 29.0154C16.6346 29.2505 16.3153 29.3826 15.9824 29.3826V29.3559ZM20.4025 26.1815H20.0954C19.766 26.1815 19.4501 26.0508 19.2172 25.8182C18.9843 25.5855 18.8535 25.27 18.8535 24.941V10.6694C18.8517 10.5053 18.8825 10.3426 18.9441 10.1906C19.0058 10.0385 19.097 9.90021 19.2125 9.7836C19.328 9.667 19.4655 9.57444 19.617 9.51127C19.7686 9.4481 19.9311 9.41558 20.0954 9.41559H20.4025C20.7331 9.4191 21.0489 9.55274 21.2815 9.78749C21.514 10.0222 21.6444 10.3391 21.6444 10.6694V24.941C21.6444 25.27 21.5135 25.5855 21.2806 25.8182C21.0477 26.0508 20.7319 26.1815 20.4025 26.1815ZM24.8226 22.9137H24.5421C24.2115 22.9137 23.8942 22.7834 23.6592 22.5512C23.4242 22.3189 23.2904 22.0034 23.2869 21.6732V13.9905C23.2759 13.8193 23.3003 13.6476 23.3584 13.4861C23.4166 13.3246 23.5073 13.1768 23.625 13.0518C23.7426 12.9267 23.8848 12.8272 24.0425 12.7592C24.2003 12.6913 24.3703 12.6564 24.5421 12.6567H24.8359C25.1688 12.6567 25.4881 12.7888 25.7235 13.0239C25.9589 13.2591 26.0912 13.578 26.0912 13.9105V21.6465C26.0929 21.8123 26.0618 21.9768 25.9995 22.1304C25.9372 22.2841 25.845 22.4239 25.7283 22.5417C25.6115 22.6596 25.4725 22.7531 25.3194 22.817C25.1662 22.8808 25.0019 22.9137 24.8359 22.9137H24.8226ZM29.256 20.046H28.9622C28.6293 20.046 28.31 19.9139 28.0746 19.6788C27.8392 19.4436 27.7069 19.1247 27.7069 18.7922V16.8048C27.7105 16.4746 27.8443 16.1592 28.0793 15.9269C28.3143 15.6947 28.6316 15.5644 28.9622 15.5644H29.256C29.5866 15.5644 29.9038 15.6947 30.1389 15.9269C30.3739 16.1592 30.5077 16.4746 30.5112 16.8048V18.7922C30.5112 19.1224 30.3808 19.4393 30.1483 19.6741C29.9158 19.9088 29.5999 20.0425 29.2693 20.046H29.256Z" fill="#CC01FF"/>
</svg>
