<svg width="50" height="50" viewBox="0 0 50 50" fill="none" xmlns="http://www.w3.org/2000/svg">
<g clip-path="url(#clip0_196_8961)">
<path fill-rule="evenodd" clip-rule="evenodd" d="M27.9476 14.7519L35.4008 27.6612C36.0136 28.7226 36.0136 30.0034 35.4008 31.0648C34.788 32.1262 33.6788 32.7666 32.4532 32.7666H17.5468C16.3212 32.7666 15.2119 32.1262 14.5992 31.0648C13.9864 30.0034 13.9864 28.7226 14.5992 27.6612L22.0524 14.7519C22.6652 13.6905 23.7745 13.0501 25 13.0501C26.2255 13.0501 27.3348 13.6905 27.9476 14.7519ZM29.1104 4.18818L27.4982 0H22.5016L20.8895 4.18818C18.0865 4.73867 15.4821 5.84189 13.1931 7.37852L9.08887 5.55576L5.55566 9.08896L7.37832 13.1929C5.84141 15.4817 4.73828 18.0865 4.18789 20.8896L0 22.5017V27.4983L4.18721 29.1101C4.73789 31.9134 5.84072 34.5189 7.37803 36.8081L5.55566 40.9111L9.08887 44.4443L13.1932 42.6215C15.4821 44.1581 18.0865 45.2613 20.8894 45.8118L22.5017 50H27.4984L29.1101 45.8128C31.9135 45.2622 34.5188 44.1593 36.808 42.622L40.911 44.4442L44.4441 40.911L42.6214 36.8066C44.158 34.5177 45.2612 31.9133 45.8117 29.1104L50 27.4982V22.5016L45.8128 20.8899C45.2621 18.0865 44.1593 15.4812 42.622 13.1919L44.4442 9.08887L40.911 5.55576L36.8066 7.37852C34.5177 5.84189 31.9133 4.73867 29.1104 4.18818ZM25 9.8791C16.649 9.8791 9.879 16.649 9.879 25C9.879 33.351 16.649 40.1209 25 40.1209C33.351 40.1209 40.121 33.351 40.121 25C40.121 16.649 33.351 9.8791 25 9.8791ZM25 28.0153C24.3695 28.0153 23.8585 28.5264 23.8585 29.1568C23.8585 29.7872 24.3695 30.2982 25 30.2982C25.6304 30.2982 26.1415 29.7872 26.1415 29.1568C26.1415 28.5265 25.6304 28.0153 25 28.0153ZM25 25.9777C25.2307 25.9777 25.4525 25.8882 25.6185 25.728C25.7846 25.5678 25.8821 25.3494 25.8904 25.1188L26.1156 18.8817C26.1247 18.631 26.0408 18.4117 25.8665 18.2311C25.6923 18.0504 25.4762 17.9586 25.2252 17.9586H24.7747C24.5237 17.9586 24.3076 18.0504 24.1334 18.2311C23.9592 18.4117 23.8752 18.631 23.8843 18.8817L24.1095 25.1188C24.1179 25.3494 24.2154 25.5678 24.3814 25.728C24.5475 25.8882 24.7693 25.9777 25 25.9777Z" fill="#014EFF"/>
</g>
<defs>
<clipPath id="clip0_196_8961">
<rect width="50" height="50" fill="white"/>
</clipPath>
</defs>
</svg>
