<svg width="50" height="50" viewBox="0 0 50 50" fill="none" xmlns="http://www.w3.org/2000/svg">
<path d="M39.8438 28.9062H46.0938V30.4688H39.8438V28.9062ZM47.6562 28.9062H49.2188V30.4688H47.6562V28.9062ZM41.5391 39.4922C41.6098 39.5997 41.7061 39.688 41.8192 39.7493C41.9323 39.8106 42.0588 39.8431 42.1875 39.8438H45.3125V38.2812H42.6094L41.2734 36.2891C41.2027 36.1816 41.1064 36.0933 40.9933 36.0319C40.8802 35.9706 40.7537 35.9382 40.625 35.9375H37.5V37.5H40.2031L41.5391 39.4922ZM46.875 38.2812H48.4375V39.8438H46.875V38.2812ZM41.2734 23.0859L42.6094 21.0938H45.3125V19.5312H42.1875C42.0588 19.5319 41.9323 19.5644 41.8192 19.6257C41.7061 19.687 41.6098 19.7753 41.5391 19.8828L40.2031 21.875H37.5V23.4375H40.625C40.7537 23.4368 40.8802 23.4044 40.9933 23.3431C41.1064 23.2817 41.2027 23.1934 41.2734 23.0859ZM46.875 19.5312H48.4375V21.0938H46.875V19.5312ZM3.90625 28.9062H10.1562V30.4688H3.90625V28.9062ZM0.78125 28.9062H2.34375V30.4688H0.78125V28.9062ZM8.46094 39.4922L9.79688 37.5H12.5V35.9375H9.375C9.24632 35.9382 9.1198 35.9706 9.00668 36.0319C8.89356 36.0933 8.79733 36.1816 8.72656 36.2891L7.39062 38.2812H4.6875V39.8438H7.8125C7.94118 39.8431 8.0677 39.8106 8.18082 39.7493C8.29394 39.688 8.39017 39.5997 8.46094 39.4922ZM1.5625 38.2812H3.125V39.8438H1.5625V38.2812ZM12.5 21.875H9.79688L8.46094 19.8828C8.39017 19.7753 8.29394 19.687 8.18082 19.6257C8.0677 19.5644 7.94118 19.5319 7.8125 19.5312H4.6875V21.0938H7.39062L8.72656 23.0859C8.79733 23.1934 8.89356 23.2817 9.00668 23.3431C9.1198 23.4044 9.24632 23.4368 9.375 23.4375H12.5V21.875ZM1.5625 19.5312H3.125V21.0938H1.5625V19.5312ZM18.75 15.625H25.7812L22.6562 25.7812L32.8125 12.5H25L28.125 4.6875H21.875L18.75 15.625Z" fill="#014EFF"/>
<path d="M35.2268 32.8516C35.3039 32.623 35.4511 32.4244 35.6474 32.2842C35.8438 32.144 36.0793 32.0691 36.3206 32.0703C36.4744 32.0734 36.6272 32.0458 36.7702 31.9891C36.9132 31.9324 37.0435 31.8477 37.1533 31.7401C37.2632 31.6324 37.3505 31.5039 37.41 31.362C37.4696 31.2202 37.5003 31.0679 37.5002 30.9141V28.4609C37.4901 28.1611 37.3638 27.8769 37.1481 27.6685C36.9323 27.46 36.644 27.3436 36.344 27.3437C36.0985 27.3468 35.8582 27.2732 35.6565 27.1331C35.4548 26.9931 35.3019 26.7936 35.219 26.5625C35.0297 25.9473 34.7839 25.351 34.4846 24.7812C34.3699 24.56 34.3292 24.3077 34.3686 24.0616C34.408 23.8155 34.5253 23.5885 34.7034 23.4141C34.8113 23.3073 34.897 23.1801 34.9555 23.04C35.014 22.8998 35.0441 22.7495 35.0441 22.5977C35.0441 22.4458 35.014 22.2955 34.9555 22.1553C34.897 22.0152 34.8113 21.888 34.7034 21.7812L32.969 19.9844C32.8622 19.8764 32.735 19.7907 32.5949 19.7322C32.4548 19.6738 32.3044 19.6436 32.1526 19.6436C32.0007 19.6436 31.8504 19.6738 31.7103 19.7322C31.5701 19.7907 31.443 19.8764 31.3362 19.9844C31.1617 20.1624 30.9348 20.2797 30.6886 20.3191C30.4425 20.3585 30.1903 20.3178 29.969 20.2031H29.8987L27.6018 23.2031C29.0413 23.7786 30.2502 24.8137 31.0406 26.1474C31.8309 27.4811 32.1583 29.0386 31.9719 30.5776C31.7854 32.1166 31.0956 33.5508 30.0097 34.6572C28.9237 35.7636 27.5026 36.4801 25.9673 36.6952C24.432 36.9103 22.8687 36.612 21.5205 35.8467C20.1723 35.0813 19.1149 33.8919 18.5127 32.4634C17.9104 31.0349 17.7972 29.4474 18.1905 27.9478C18.5839 26.4483 19.4618 25.1208 20.6877 24.1719L22.1877 19.2969C22.0816 19.3802 21.963 19.4461 21.8362 19.4922C21.214 19.6861 20.6101 19.9344 20.0315 20.2344C19.8102 20.3491 19.558 20.3897 19.3118 20.3504C19.0657 20.311 18.8387 20.1937 18.6643 20.0156C18.5575 19.9077 18.4304 19.822 18.2902 19.7635C18.1501 19.705 17.9997 19.6749 17.8479 19.6749C17.696 19.6749 17.5457 19.705 17.4056 19.7635C17.2654 19.822 17.1383 19.9077 17.0315 20.0156L15.2971 21.7187C15.1892 21.8255 15.1035 21.9527 15.045 22.0928C14.9865 22.233 14.9564 22.3833 14.9564 22.5352C14.9564 22.687 14.9865 22.8373 15.045 22.9775C15.1035 23.1176 15.1892 23.2448 15.2971 23.3516C15.4751 23.526 15.5925 23.753 15.6319 23.9991C15.6712 24.2452 15.6306 24.4975 15.5159 24.7187C15.2166 25.2885 14.9708 25.8848 14.7815 26.5C14.6986 26.7311 14.5456 26.9306 14.344 27.0706C14.1423 27.2107 13.902 27.2843 13.6565 27.2812C13.5027 27.2812 13.3504 27.3119 13.2085 27.3715C13.0667 27.431 12.9382 27.5183 12.8305 27.6281C12.7228 27.738 12.6381 27.8683 12.5814 28.0113C12.5247 28.1543 12.4971 28.3071 12.5002 28.4609V30.9141C12.5002 31.2207 12.6221 31.5148 12.8389 31.7317C13.0557 31.9485 13.3498 32.0703 13.6565 32.0703C13.902 32.0673 14.1423 32.1409 14.344 32.2809C14.5456 32.421 14.6986 32.6205 14.7815 32.8516C14.9708 33.4667 15.2166 34.063 15.5159 34.6328C15.6306 34.8541 15.6712 35.1063 15.6319 35.3525C15.5925 35.5986 15.4751 35.8256 15.2971 36C15.1892 36.1068 15.1035 36.2339 15.045 36.3741C14.9865 36.5142 14.9564 36.6646 14.9564 36.8164C14.9564 36.9683 14.9865 37.1186 15.045 37.2587C15.1035 37.3989 15.1892 37.526 15.2971 37.6328L17.0315 39.3672C17.1383 39.4751 17.2654 39.5608 17.4056 39.6193C17.5457 39.6778 17.696 39.7079 17.8479 39.7079C17.9997 39.7079 18.1501 39.6778 18.2902 39.6193C18.4304 39.5608 18.5575 39.4751 18.6643 39.3672C18.8387 39.1892 19.0657 39.0718 19.3118 39.0324C19.558 38.9931 19.8102 39.0337 20.0315 39.1484C20.6013 39.4477 21.1976 39.6935 21.8127 39.8828C22.0438 39.9657 22.2433 40.1187 22.3834 40.3203C22.5234 40.522 22.597 40.7623 22.594 41.0078C22.5908 41.1636 22.6191 41.3184 22.6773 41.463C22.7354 41.6076 22.8222 41.7389 22.9324 41.8491C23.0426 41.9593 23.1739 42.046 23.3185 42.1042C23.463 42.1624 23.6179 42.1907 23.7737 42.1875H26.2268C26.5335 42.1875 26.8276 42.0657 27.0444 41.8488C27.2612 41.632 27.383 41.3379 27.383 41.0312C27.38 40.7857 27.4536 40.5454 27.5937 40.3438C27.7337 40.1421 27.9332 39.9892 28.1643 39.9062C28.7795 39.717 29.3757 39.4711 29.9456 39.1719C30.1668 39.0572 30.4191 39.0165 30.6652 39.0559C30.9113 39.0953 31.1383 39.2126 31.3127 39.3906C31.4195 39.4986 31.5467 39.5843 31.6868 39.6428C31.827 39.7012 31.9773 39.7314 32.1291 39.7314C32.281 39.7314 32.4313 39.7012 32.5715 39.6428C32.7116 39.5843 32.8388 39.4986 32.9455 39.3906L34.6799 37.6562C34.7879 37.5495 34.8736 37.4223 34.9321 37.2822C34.9905 37.142 35.0207 36.9917 35.0207 36.8398C35.0207 36.688 34.9905 36.5377 34.9321 36.3975C34.8736 36.2574 34.7879 36.1302 34.6799 36.0234C34.5019 35.849 34.3846 35.622 34.3452 35.3759C34.3058 35.1298 34.3465 34.8775 34.4612 34.6562C34.7692 34.0785 35.0254 33.4746 35.2268 32.8516Z" fill="#014EFF"/>
</svg>
