<svg width="50" height="50" viewBox="0 0 50 50" fill="none" xmlns="http://www.w3.org/2000/svg">
<path fill-rule="evenodd" clip-rule="evenodd" d="M47.0693 27.0039H42.7438V40.8979H47.069V27.0039H47.0693ZM14.8704 22.4043C17.3868 22.4043 19.8466 23.1505 21.9389 24.5485C24.0312 25.9465 25.6619 27.9336 26.6249 30.2584C27.5879 32.5832 27.8398 35.1414 27.3489 37.6094C26.8579 40.0774 25.6462 42.3445 23.8668 44.1238C22.0875 45.9031 19.8204 47.1148 17.3524 47.6057C14.8844 48.0966 12.3262 47.8447 10.0014 46.8817C7.6766 45.9187 5.68956 44.2879 4.29157 42.1956C2.89358 40.1033 2.14742 37.6434 2.14746 35.127C2.14756 31.7528 3.48806 28.5167 5.87406 26.1308C8.26007 23.7449 11.4961 22.4045 14.8704 22.4045V22.4043ZM14.8704 25.836C13.0328 25.836 11.2364 26.3809 9.70847 27.4019C8.18053 28.4228 6.98966 29.8739 6.28643 31.5717C5.58321 33.2694 5.39922 35.1376 5.75774 36.9399C6.11626 38.7423 7.00118 40.3978 8.3006 41.6972C9.60002 42.9966 11.2556 43.8815 13.0579 44.2399C14.8602 44.5984 16.7284 44.4144 18.4261 43.7111C20.1239 43.0079 21.575 41.817 22.5959 40.289C23.6168 38.7611 24.1617 36.9647 24.1616 35.127C24.1616 33.9069 23.9213 32.6987 23.4544 31.5715C22.9874 30.4442 22.3031 29.42 21.4403 28.5572C20.5775 27.6944 19.5533 27.0101 18.426 26.5431C17.2987 26.0762 16.0905 25.8359 14.8704 25.8359V25.836ZM18.2016 32.9507C18.2016 31.4936 17.0473 30.3743 15.6517 30.0753V29.008C15.6517 28.8008 15.5694 28.6021 15.4228 28.4556C15.2763 28.3091 15.0776 28.2267 14.8704 28.2267C14.6632 28.2267 14.4645 28.3091 14.318 28.4556C14.1715 28.6021 14.0892 28.8008 14.0892 29.008V30.0755C12.6936 30.3746 11.5393 31.4937 11.5393 32.9509C11.5393 34.675 13.136 35.9086 14.8704 35.9086C16.4 35.9086 17.2172 37.3539 16.1669 38.2508C15.0661 39.1903 13.1018 38.5535 13.1018 37.3035C13.1018 37.0963 13.0194 36.8976 12.8729 36.7511C12.7264 36.6046 12.5277 36.5223 12.3205 36.5223C12.1133 36.5223 11.9146 36.6046 11.7681 36.7511C11.6216 36.8976 11.5393 37.0963 11.5393 37.3035C11.5393 38.7606 12.6937 39.8799 14.0892 40.1789V41.2465C14.0892 41.4537 14.1715 41.6524 14.318 41.7989C14.4645 41.9454 14.6632 42.0277 14.8704 42.0277C15.0776 42.0277 15.2763 41.9454 15.4228 41.7989C15.5694 41.6524 15.6517 41.4537 15.6517 41.2465V40.1792C17.0472 39.8802 18.2016 38.7609 18.2016 37.3038C18.2016 35.5798 16.6048 34.3461 14.8704 34.3461C13.3409 34.3461 12.5234 32.9008 13.5739 32.0039C14.6746 31.0644 16.6391 31.7012 16.6391 32.9512C16.6391 33.1584 16.7214 33.3571 16.8679 33.5036C17.0144 33.6501 17.2131 33.7324 17.4203 33.7324C17.6275 33.7324 17.8262 33.6501 17.9727 33.5036C18.1193 33.3571 18.2016 33.1584 18.2016 32.9512V32.9507ZM14.8704 25.0548C12.8783 25.0548 10.9308 25.6455 9.27443 26.7523C7.61802 27.8591 6.32701 29.4322 5.56465 31.2727C4.8023 33.1132 4.60284 35.1385 4.9915 37.0923C5.38017 39.0462 6.3395 40.841 7.74817 42.2496C9.15685 43.6583 10.9516 44.6176 12.9055 45.0062C14.8594 45.3948 16.8846 45.1953 18.7251 44.4329C20.5656 43.6705 22.1387 42.3795 23.2455 40.7231C24.3522 39.0666 24.9429 37.1192 24.9429 35.127C24.9427 32.4557 23.8815 29.8939 21.9925 28.005C20.1036 26.1162 17.5417 25.055 14.8704 25.055V25.0548ZM21.5181 3.33729C21.4633 3.25031 21.4262 3.15333 21.4091 3.05195C21.392 2.95057 21.3951 2.84681 21.4183 2.74665C21.4415 2.64649 21.4844 2.55192 21.5443 2.46841C21.6043 2.38489 21.6802 2.31409 21.7677 2.26008C21.8552 2.20607 21.9525 2.16993 22.054 2.15375C22.1556 2.13756 22.2593 2.14165 22.3592 2.16579C22.4592 2.18992 22.5534 2.23361 22.6363 2.29434C22.7193 2.35507 22.7894 2.43164 22.8426 2.51962C24.5856 5.33212 28.0898 9.18876 33.2532 12.1732C36.9071 14.2849 40.9285 15.6842 45.104 16.2968L43.3012 14.293C43.1639 14.139 43.0931 13.9369 43.1044 13.731C43.1157 13.525 43.2081 13.3319 43.3615 13.1939C43.5148 13.0559 43.7166 12.9842 43.9226 12.9946C44.1286 13.005 44.3222 13.0966 44.4608 13.2493L47.6232 16.7642C47.7069 16.8477 47.7705 16.9492 47.8092 17.0609C47.8478 17.1727 47.8605 17.2917 47.8463 17.4091C47.832 17.5265 47.7913 17.639 47.7271 17.7383C47.6629 17.8376 47.5769 17.9209 47.4757 17.982L43.6431 20.7144C43.5598 20.7751 43.4653 20.8187 43.3651 20.8426C43.2648 20.8665 43.1608 20.8702 43.0591 20.8537C42.9574 20.8371 42.86 20.8005 42.7726 20.7461C42.6851 20.6916 42.6093 20.6203 42.5495 20.5364C42.4898 20.4524 42.4473 20.3575 42.4245 20.257C42.4017 20.1565 42.3991 20.0525 42.4168 19.9509C42.4345 19.8494 42.4722 19.7524 42.5276 19.6656C42.583 19.5787 42.6551 19.5037 42.7397 19.4449L44.9691 17.8555C40.5655 17.2198 36.3238 15.7491 32.472 13.5222C27.0589 10.3933 23.3652 6.31757 21.5181 3.33749V3.33729ZM24.343 11.6647H20.0178V21.7986C21.6051 22.4129 23.0698 23.3058 24.343 24.4353V11.6647ZM31.9185 16.9958H27.5933V28.625C28.558 30.5168 29.0898 32.5995 29.1499 34.7223C29.2101 36.845 28.7971 38.9546 27.941 40.8979H31.9185V16.9958ZM39.4938 22.3647H35.1688V40.8979H39.4938V22.3647Z" fill="#014EFF"/>
</svg>
