<svg width="50" height="50" viewBox="0 0 50 50" fill="none" xmlns="http://www.w3.org/2000/svg">
<path fill-rule="evenodd" clip-rule="evenodd" d="M45.4003 13.3355C45.3726 13.7369 45.1912 14.1122 44.8939 14.3834C44.5967 14.6546 44.2063 14.8009 43.804 14.7918C43.4017 14.7826 43.0184 14.6189 42.7337 14.3345C42.449 14.0501 42.2849 13.6669 42.2753 13.2647L42.3607 9.50216L38.6003 9.41675C38.1989 9.38899 37.8236 9.20763 37.5524 8.91035C37.2812 8.61307 37.135 8.22273 37.1441 7.82044C37.1532 7.41814 37.317 7.03483 37.6013 6.75014C37.8857 6.46546 38.2689 6.30129 38.6712 6.29175L43.9962 6.41466C44.2012 6.41899 44.4033 6.46374 44.591 6.54634C44.7787 6.62894 44.9482 6.74778 45.0899 6.89603C45.2316 7.04428 45.3426 7.21904 45.4166 7.41028C45.4906 7.60153 45.5261 7.8055 45.5212 8.0105L45.4003 13.3355ZM12.1399 19.4709V44.7647C12.1399 46.2188 10.9628 47.3959 9.50866 47.3959H5.23574C4.89013 47.3962 4.54785 47.3283 4.22848 47.1962C3.90912 47.064 3.61895 46.8702 3.37456 46.6259C3.13017 46.3815 2.93636 46.0913 2.80423 45.7719C2.67209 45.4526 2.60422 45.1103 2.60449 44.7647V19.4709C2.60449 18.0188 3.78158 16.8397 5.23574 16.8397H9.50866C10.9628 16.8397 12.1399 18.0188 12.1399 19.4709ZM35.6441 32.2917V44.7647C35.6444 45.1103 35.5765 45.4526 35.4443 45.7719C35.3122 46.0913 35.1184 46.3815 34.874 46.6259C34.6296 46.8702 34.3394 47.064 34.0201 47.1962C33.7007 47.3283 33.3584 47.3962 33.0128 47.3959H28.7399C28.3943 47.3962 28.052 47.3283 27.7327 47.1962C27.4133 47.064 27.1231 46.8702 26.8787 46.6259C26.6343 46.3815 26.4405 46.0913 26.3084 45.7719C26.1763 45.4526 26.1084 45.1103 26.1087 44.7647V32.2917C26.1084 31.9461 26.1763 31.6039 26.3084 31.2845C26.4405 30.9651 26.6343 30.675 26.8787 30.4306C27.1231 30.1862 27.4133 29.9924 27.7327 29.8602C28.052 29.7281 28.3943 29.6602 28.7399 29.6605H33.0128C33.3584 29.6602 33.7007 29.7281 34.0201 29.8602C34.3394 29.9924 34.6296 30.1862 34.874 30.4306C35.1184 30.675 35.3122 30.9651 35.4443 31.2845C35.5765 31.6039 35.6444 31.9461 35.6441 32.2917ZM23.892 25.8813V44.7647C23.892 46.2188 22.7149 47.3959 21.2607 47.3959H16.9878C16.6422 47.3962 16.2999 47.3283 15.9806 47.1962C15.6612 47.064 15.371 46.8702 15.1266 46.6259C14.8823 46.3815 14.6884 46.0913 14.5563 45.7719C14.4242 45.4526 14.3563 45.1103 14.3566 44.7647V25.8813C14.3563 25.5357 14.4242 25.1934 14.5563 24.8741C14.6884 24.5547 14.8823 24.2645 15.1266 24.0201C15.371 23.7758 15.6612 23.582 15.9806 23.4498C16.2999 23.3177 16.6422 23.2498 16.9878 23.2501H21.2607C22.7149 23.2501 23.892 24.4292 23.892 25.8813ZM47.3962 25.8813V44.7647C47.3962 46.2188 46.2191 47.3959 44.7649 47.3959H40.492C40.1464 47.3962 39.8041 47.3283 39.4847 47.1962C39.1654 47.064 38.8752 46.8702 38.6308 46.6259C38.3864 46.3815 38.1926 46.0913 38.0605 45.7719C37.9283 45.4526 37.8605 45.1103 37.8607 44.7647V25.8813C37.8605 25.5357 37.9283 25.1934 38.0605 24.8741C38.1926 24.5547 38.3864 24.2645 38.6308 24.0201C38.8752 23.7758 39.1654 23.582 39.4847 23.4498C39.8041 23.3177 40.1464 23.2498 40.492 23.2501H44.7649C46.2191 23.2501 47.3962 24.4292 47.3962 25.8813Z" fill="#014EFF"/>
<path fill-rule="evenodd" clip-rule="evenodd" d="M5.1045 5.41675C4.77298 5.16811 4.55381 4.79796 4.4952 4.38773C4.4366 3.97749 4.54336 3.56077 4.792 3.22925C5.04064 2.89773 5.41079 2.67856 5.82103 2.61996C6.23126 2.56135 6.64798 2.66811 6.9795 2.91675L19.3816 12.2188H25.2712C25.508 12.2188 25.7417 12.2727 25.9546 12.3763C26.1675 12.4798 26.3542 12.6305 26.5003 12.8168L31.2649 18.8813L42.3066 7.35842C42.4486 7.21027 42.6184 7.09154 42.8062 7.00901C42.9941 6.92648 43.1964 6.88176 43.4016 6.87741C43.6067 6.87305 43.8107 6.90915 44.0019 6.98364C44.1931 7.05813 44.3678 7.16955 44.516 7.31155C44.6641 7.45354 44.7828 7.62332 44.8654 7.8112C44.9479 7.99907 44.9926 8.20137 44.997 8.40653C45.0013 8.61168 44.9652 8.81569 44.8907 9.0069C44.8162 9.19811 44.7048 9.37277 44.5628 9.52092L32.2753 22.3418C32.121 22.5041 31.9335 22.6312 31.7255 22.7144C31.5176 22.7976 31.2941 22.8349 31.0704 22.8239C30.8468 22.8128 30.6281 22.7536 30.4294 22.6502C30.2307 22.5469 30.0566 22.4019 29.9191 22.2251L24.5128 15.3438H18.8608C18.5226 15.3443 18.1935 15.2346 17.9232 15.0313L5.1045 5.41675Z" fill="#014EFF"/>
</svg>
