<svg width="50" height="50" viewBox="0 0 50 50" fill="none" xmlns="http://www.w3.org/2000/svg">
<g clip-path="url(#clip0_196_8950)">
<path d="M46.9366 8.83838C46.9347 8.62569 46.849 8.42232 46.6979 8.27256C46.5469 8.1228 46.3428 8.03877 46.1301 8.03878H46.1232C45.9093 8.04059 45.7049 8.12729 45.5549 8.2798C45.4048 8.43231 45.3215 8.63816 45.3232 8.85209L45.337 10.5283C40.6914 4.16943 33.2733 0.400879 25.2962 0.400879C17.6035 0.400879 10.4845 3.84604 5.76438 9.85289C5.63225 10.0211 5.57236 10.2349 5.59789 10.4473C5.62341 10.6597 5.73225 10.8532 5.90047 10.9854C6.06869 11.1175 6.28251 11.1774 6.49488 11.1519C6.70726 11.1263 6.9008 11.0175 7.03293 10.8493C11.445 5.23394 18.1019 2.01378 25.2962 2.01378C32.7789 2.01378 39.7285 5.56378 44.0684 11.54H42.3624C42.1485 11.54 41.9434 11.625 41.7921 11.7762C41.6409 11.9274 41.5559 12.1326 41.5559 12.3464C41.5559 12.5603 41.6409 12.7655 41.7921 12.9167C41.9434 13.0679 42.1485 13.1529 42.3624 13.1529H46.1587C46.5991 13.1529 46.9688 12.7799 46.9652 12.3396L46.9366 8.83838ZM49.9999 24.7835C50.0041 21.7904 49.4484 18.8228 48.3616 16.0339C48.2811 15.8386 48.1272 15.6827 47.933 15.5996C47.7388 15.5165 47.5197 15.513 47.3229 15.5897C47.1261 15.6665 46.9672 15.8174 46.8805 16.01C46.7938 16.2026 46.7861 16.4216 46.8591 16.6198C47.8732 19.222 48.3915 21.9908 48.3874 24.7835C48.3874 34.4585 42.3184 42.9323 33.1789 46.1908L34.0507 44.8573C34.1086 44.7687 34.1485 44.6694 34.1681 44.5654C34.1877 44.4613 34.1866 44.3543 34.1648 44.2507C34.1431 44.147 34.1012 44.0487 34.0414 43.9612C33.9817 43.8738 33.9053 43.7989 33.8166 43.741C33.7279 43.6831 33.6287 43.6432 33.5246 43.6236C33.4205 43.604 33.3136 43.6051 33.21 43.6268C33.1063 43.6486 33.0079 43.6905 32.9205 43.7503C32.833 43.81 32.7582 43.8864 32.7003 43.9751L30.7769 46.9182C30.5087 47.3279 30.6789 47.8993 31.1265 48.0972L34.3668 49.5263C35.318 49.9436 35.9692 48.4706 35.0176 48.0505L34.0051 47.6041C43.6285 44.042 49.9999 35.0456 49.9999 24.7835ZM26.2531 47.5335C25.9358 47.546 25.6168 47.5525 25.2962 47.5525C12.564 47.5525 2.20551 37.3384 2.20551 24.7831C2.20551 22.5618 3.13898 19.7839 4.02849 17.4388L4.73978 19.0126C5.16922 19.9618 6.63736 19.2944 6.20995 18.3489L4.70632 15.0218C4.66064 14.9237 4.59587 14.8356 4.51579 14.7628C4.43572 14.6899 4.34193 14.6337 4.23991 14.5975C4.13789 14.5613 4.02968 14.5458 3.92159 14.5518C3.8135 14.5578 3.70769 14.5854 3.61035 14.6327L0.445429 16.2182C0.254163 16.314 0.108774 16.4818 0.0412461 16.6848C-0.0262821 16.8877 -0.0104179 17.1092 0.0853487 17.3005C0.181115 17.4917 0.34894 17.6371 0.551903 17.7047C0.754865 17.7722 0.976341 17.7563 1.16761 17.6606L2.4664 17.0102C1.54624 19.4497 0.59301 22.342 0.59301 24.7835C0.59301 38.2279 11.6749 49.1658 25.2966 49.1658C25.6386 49.1658 25.9789 49.1585 26.3172 49.1452C26.423 49.141 26.527 49.116 26.6231 49.0716C26.7193 49.0272 26.8058 48.9643 26.8776 48.8865C26.9495 48.8087 27.0053 48.7175 27.0419 48.6182C27.0785 48.5188 27.0952 48.4132 27.091 48.3073C27.0868 48.2015 27.0618 48.0975 27.0174 48.0014C26.973 47.9052 26.9101 47.8188 26.8323 47.7469C26.7545 47.675 26.6633 47.6192 26.5639 47.5826C26.4645 47.546 26.3589 47.5293 26.2531 47.5335C26.697 47.5166 25.9362 47.5464 26.2531 47.5335ZM25.0329 19.5279C21.9011 19.5279 19.3535 22.011 19.3535 25.0638C19.3535 28.1158 21.9011 30.5993 25.0329 30.5993C28.1648 30.5993 30.7124 28.1162 30.7124 25.0638C30.7124 22.0114 28.1648 19.5279 25.0329 19.5279Z" fill="#014EFF"/>
<path d="M39.1975 21.9453H37.6072C37.331 20.7679 36.8467 19.5783 36.1822 18.4461L37.3181 17.3122C38.0153 16.6162 38.0298 15.4671 37.3919 14.7251C37.0931 14.3775 35.7995 13.0566 35.4673 12.7384C34.7886 12.0884 33.5769 11.9671 32.8697 12.6699L31.7407 13.7965C30.6659 13.1473 29.5033 12.6561 28.2886 12.338V10.7316C28.2904 10.2478 28.1035 9.7825 27.7675 9.43452C27.4314 9.08654 26.9729 8.88339 26.4894 8.86827C26.0269 8.85375 24.1697 8.84286 23.7096 8.86827C22.7282 8.9227 21.9104 9.73964 21.9104 10.7316V12.3824C20.7298 12.6582 19.5362 13.1421 18.4011 13.8058L17.2632 12.6703C16.5669 11.9755 15.4177 11.9614 14.6753 12.5969C14.3269 12.8949 13.0028 14.186 12.6842 14.5179C12.033 15.1953 11.9104 16.409 12.6161 17.1146L13.7431 18.2392C13.0934 19.3104 12.6015 20.4696 12.2826 21.6812H10.6705C9.66767 21.6812 8.89872 22.5941 8.8713 23.5445C8.85799 24.0058 8.8459 25.859 8.8713 26.3183C8.92574 27.3005 9.74509 28.1154 10.7366 28.1154H12.3269C12.6032 29.2925 13.0874 30.4824 13.7519 31.615L12.6157 32.7489C11.9185 33.4449 11.9044 34.5941 12.5423 35.336C12.8411 35.6836 14.135 37.005 14.4673 37.3231C15.1475 37.9739 16.356 38.0917 17.0648 37.3913L18.1939 36.2646C19.2687 36.9138 20.4312 37.405 21.6459 37.7231V39.3296C21.6459 40.3328 22.5616 41.0993 23.5112 41.1267C23.9737 41.14 25.831 41.1521 26.2911 41.1267C27.2725 41.0723 28.0903 40.2554 28.0903 39.2634V37.6788C29.2709 37.4029 30.4644 36.9187 31.5995 36.2554L32.7374 37.3908C33.4342 38.086 34.5826 38.0997 35.3253 37.4638C35.6737 37.1658 36.9975 35.8747 37.3165 35.5433C37.9681 34.8658 38.0907 33.6521 37.3846 32.9461L36.2576 31.8219C36.9071 30.7505 37.399 29.5912 37.7181 28.3796H39.3302C40.1056 28.3796 40.8374 27.7695 41.0536 27.0441C41.1661 26.6658 41.1052 23.4973 41.1233 23.6425C40.9979 22.6433 40.206 21.9453 39.1975 21.9453ZM25.033 32.2118C21.012 32.2118 17.7407 29.0054 17.7407 25.0634C17.7407 21.1215 21.012 17.9146 25.033 17.9146C29.054 17.9146 32.3253 21.1215 32.3253 25.0634C32.3253 29.0054 29.0544 32.2118 25.033 32.2118Z" fill="#014EFF"/>
</g>
<defs>
<clipPath id="clip0_196_8950">
<rect width="50" height="50" fill="white"/>
</clipPath>
</defs>
</svg>
