<svg width="50" height="50" viewBox="0 0 50 50" fill="none" xmlns="http://www.w3.org/2000/svg">
<path d="M48.464 38.2501C48.3326 37.9063 48.0994 37.6108 47.7957 37.4028C47.492 37.1948 47.1321 37.0844 46.764 37.0861H43.407C43.3066 37.0859 43.2103 37.0459 43.1393 36.9749C43.0683 36.9039 43.0283 36.8076 43.0281 36.7072V33.2572C43.0275 32.7139 42.8114 32.193 42.4272 31.8088C42.043 31.4247 41.5222 31.2086 40.9789 31.208H35.3461C34.8028 31.2086 34.2821 31.4247 33.898 31.8089C33.514 32.1931 33.298 32.714 33.2976 33.2572V36.7072C33.2976 36.8077 33.2577 36.9042 33.1867 36.9754C33.1157 37.0466 33.0193 37.0867 32.9187 37.0869H29.3734C29.006 37.0869 28.6471 37.1979 28.3439 37.4055C28.0407 37.6131 27.8073 37.9074 27.6743 38.25C27.5413 38.5925 27.515 38.9673 27.5988 39.325C27.6825 39.6828 27.8725 40.0069 28.1437 40.2548L36.6023 47.9923C37.0017 48.3612 37.5254 48.5661 38.0691 48.5661C38.6128 48.5661 39.1365 48.3612 39.5359 47.9923L47.9945 40.2548C48.2669 40.0078 48.4577 39.6837 48.5415 39.3256C48.6252 38.9675 48.5987 38.5924 48.464 38.2501ZM33.9843 28.6353H42.1539C42.5165 28.6353 42.8642 28.4913 43.1206 28.2349C43.377 27.9785 43.5211 27.6307 43.5211 27.2681C43.5211 26.9055 43.377 26.5578 43.1206 26.3014C42.8642 26.045 42.5165 25.9009 42.1539 25.9009H33.9843C33.6217 25.9009 33.274 26.045 33.0176 26.3014C32.7612 26.5578 32.6172 26.9055 32.6172 27.2681C32.6172 27.6307 32.7612 27.9785 33.0176 28.2349C33.274 28.4913 33.6217 28.6353 33.9843 28.6353ZM33.9843 24.0994H42.1539C42.5165 24.0994 42.8642 23.9553 43.1206 23.6989C43.377 23.4425 43.5211 23.0948 43.5211 22.7322C43.5211 22.3696 43.377 22.0218 43.1206 21.7654C42.8642 21.509 42.5165 21.365 42.1539 21.365H33.9843C33.6217 21.365 33.274 21.509 33.0176 21.7654C32.7612 22.0218 32.6172 22.3696 32.6172 22.7322C32.6172 23.0948 32.7612 23.4425 33.0176 23.6989C33.274 23.9553 33.6217 24.0994 33.9843 24.0994Z" fill="#014EFF"/>
<path d="M23.7957 15.9626H17.916C16.8524 15.9626 15.9902 16.8248 15.9902 17.8884V45.79C15.9902 46.8536 16.8524 47.7158 17.916 47.7158H23.7957C24.8593 47.7158 25.7215 46.8536 25.7215 45.79V17.8884C25.7215 16.8248 24.8593 15.9626 23.7957 15.9626Z" fill="#014EFF"/>
<path d="M4.65234 3.57666H10.5312C11.042 3.57666 11.5318 3.77955 11.893 4.14071C12.2541 4.50186 12.457 4.99169 12.457 5.50244V45.6774C12.457 45.9303 12.4072 46.1807 12.3104 46.4143C12.2136 46.6479 12.0718 46.8601 11.8929 47.0389C11.7141 47.2177 11.5018 47.3594 11.2682 47.4561C11.0345 47.5528 10.7841 47.6025 10.5312 47.6024H4.65234C4.39945 47.6024 4.14903 47.5526 3.91538 47.4559C3.68173 47.3591 3.46944 47.2172 3.29061 47.0384C3.11179 46.8596 2.96993 46.6473 2.87315 46.4136C2.77637 46.18 2.72656 45.9296 2.72656 45.6767V5.50244C2.72656 4.99169 2.92946 4.50186 3.29061 4.14071C3.65176 3.77955 4.14159 3.57666 4.65234 3.57666Z" fill="#014EFF"/>
</svg>
