<svg width="50" height="50" viewBox="0 0 50 50" fill="none" xmlns="http://www.w3.org/2000/svg">
<path fill-rule="evenodd" clip-rule="evenodd" d="M24.7626 14.2344L26.7507 18.9637L31.8629 19.393L27.9794 22.7453L29.1508 27.7399L24.7626 25.0823L20.3745 27.7399L21.5459 22.7453L17.6624 19.393L22.7746 18.9637L24.7626 14.2344ZM38.9325 29.821C38.002 28.672 36.2671 28.5816 35.2214 29.619L29.0134 35.7784C28.2114 36.5741 28.0516 37.6904 28.1979 38.8107L28.4471 40.7173L37.6783 43.1908C37.7571 42.1719 38.1385 41.2639 38.9473 40.3939L42.3235 36.7623C43.0923 35.9353 43.5251 34.9907 43.5251 33.8614L43.5253 19.9046C43.5253 18.6593 42.5062 17.6406 41.2609 17.6404C40.0155 17.6404 38.9964 18.6593 38.9964 19.9046L38.9962 28.1036C41.1591 28.979 41.7174 31.8074 40.0634 33.4486L36.7472 36.7388C36.6032 36.8806 36.4089 36.9596 36.2068 36.9585C36.0047 36.9574 35.8113 36.8764 35.6688 36.7331C35.5263 36.5898 35.4463 36.396 35.4463 36.1939C35.4464 35.9918 35.5264 35.798 35.669 35.6547L38.9852 32.3645C39.6651 31.69 39.6696 30.582 38.9961 29.9033C38.9722 29.8781 38.9509 29.8505 38.9325 29.821ZM27.6871 42.1012L38.5504 45.0119C38.8153 45.083 38.9741 45.3579 38.9031 45.6227L38.3652 47.6305C38.2942 47.8953 38.0192 48.0541 37.7543 47.983L26.891 45.0723C26.6261 45.0013 26.4674 44.7264 26.5383 44.4615L27.0763 42.4538C27.1473 42.1889 27.4222 42.0302 27.6871 42.1012ZM10.5928 29.821C10.5744 29.8505 10.5531 29.878 10.5291 29.9031C9.85572 30.5818 9.86029 31.6898 10.5401 32.3643L13.8563 35.6545C13.9281 35.7252 13.9852 35.8094 14.0244 35.9022C14.0635 35.995 14.0839 36.0946 14.0845 36.1953C14.085 36.296 14.0656 36.3959 14.0275 36.4891C13.9893 36.5823 13.9331 36.667 13.862 36.7384C13.791 36.8098 13.7066 36.8665 13.6136 36.9052C13.5206 36.9439 13.4208 36.9638 13.3201 36.9638C13.2194 36.9638 13.1197 36.944 13.0267 36.9053C12.9336 36.8667 12.8492 36.81 12.7781 36.7386L9.46193 33.4484C7.80779 31.8072 8.36612 28.9788 10.5291 28.1034L10.5289 19.9044C10.5289 18.6591 9.50979 17.6402 8.26443 17.6402C7.01908 17.6404 6 18.6591 6 19.9044L6.00019 33.8612C6.00019 34.9905 6.433 35.9351 7.20178 36.7621L10.578 40.3938C11.3869 41.2638 11.7683 42.1718 11.847 43.1906L21.0782 40.7172L21.3274 38.8105C21.4737 37.6903 21.3139 36.574 20.5119 35.7782L14.3039 29.6188C13.2582 28.5816 11.5233 28.672 10.5928 29.821ZM21.8382 42.1012C22.1031 42.0302 22.3781 42.1889 22.449 42.4538L22.987 44.4615C23.0579 44.7264 22.8992 45.0013 22.6343 45.0723L11.771 47.983C11.506 48.0541 11.2311 47.8953 11.1601 47.6305L10.6222 45.6227C10.5512 45.3578 10.7099 45.0829 10.9749 45.0119L21.8382 42.1012ZM26.0916 6.10682H27.3905C27.6779 6.10691 27.8537 5.77588 27.6699 5.53806L25.042 2.13731C25.0091 2.09458 24.9668 2.05999 24.9183 2.03618C24.8699 2.01238 24.8167 2 24.7627 2C24.7088 2 24.6556 2.01238 24.6071 2.03618C24.5587 2.05999 24.5164 2.09458 24.4835 2.13731L21.8556 5.53806C21.6718 5.77597 21.8477 6.10701 22.1351 6.10682H23.4338L23.4339 10.4627C24.317 10.3627 25.2086 10.3627 26.0918 10.4627L26.0916 6.10682ZM33.6941 10.2334H34.993C35.2804 10.2335 35.4562 9.90248 35.2724 9.66466L32.6444 6.26382C32.6115 6.22109 32.5692 6.1865 32.5207 6.16269C32.4723 6.13889 32.4191 6.12651 32.3651 6.12651C32.3112 6.12651 32.258 6.13889 32.2096 6.16269C32.1611 6.1865 32.1188 6.22109 32.0859 6.26382L29.4579 9.66457C29.2741 9.90239 29.45 10.2335 29.7374 10.2333H31.0361V12.1939C32.0305 12.8201 32.9263 13.5907 33.6941 14.4803V10.2334ZM18.4891 10.2334H19.788C20.0753 10.2335 20.2512 9.90248 20.0674 9.66466L17.4395 6.26382C17.4066 6.22109 17.3643 6.1865 17.3158 6.16269C17.2674 6.13889 17.2142 6.12651 17.1602 6.12651C17.1063 6.12651 17.0531 6.13889 17.0046 6.16269C16.9562 6.1865 16.9139 6.22109 16.881 6.26382L14.253 9.66457C14.0692 9.90239 14.2451 10.2335 14.5325 10.2333H15.8312V14.4801C16.5989 13.5905 17.4947 12.82 18.4891 12.1938V10.2334ZM24.7626 11.921C19.0969 11.921 14.5039 16.514 14.5039 22.1798C14.5039 27.8455 19.0969 32.4385 24.7626 32.4385C30.4284 32.4385 35.0214 27.8456 35.0214 22.1798C35.0214 16.5139 30.4284 11.921 24.7626 11.921Z" fill="#014EFF"/>
</svg>
