<svg width="51" height="50" viewBox="0 0 51 50" fill="none" xmlns="http://www.w3.org/2000/svg">
<path d="M46.7323 20.1102H43.7557C43.3073 18.3863 42.621 16.7333 41.7165 15.1987L43.8245 13.0907C43.9423 12.973 44.0358 12.8333 44.0996 12.6795C44.1633 12.5257 44.1962 12.3608 44.1962 12.1943C44.1962 12.0277 44.1633 11.8629 44.0996 11.709C44.0358 11.5552 43.9423 11.4155 43.8245 11.2978L38.7022 6.1755C38.5845 6.05768 38.4448 5.96421 38.291 5.90044C38.1371 5.83667 37.9723 5.80384 37.8057 5.80384C37.6392 5.80384 37.4743 5.83667 37.3205 5.90044C37.1667 5.96421 37.027 6.05768 36.9093 6.1755L34.8013 8.28353C33.2668 7.3789 31.6137 6.69255 29.8898 6.24432V3.26772C29.8896 2.93156 29.7559 2.60922 29.5182 2.37152C29.2805 2.13382 28.9582 2.00019 28.622 2H21.378C21.0418 2.00019 20.7195 2.13382 20.4818 2.37152C20.2441 2.60922 20.1104 2.93156 20.1102 3.26772V6.24432C18.3863 6.69255 16.7332 7.3789 15.1987 8.28353L13.0907 6.1755C12.973 6.05768 12.8333 5.96421 12.6795 5.90044C12.5257 5.83667 12.3608 5.80384 12.1943 5.80384C12.0277 5.80384 11.8629 5.83667 11.709 5.90044C11.5552 5.96421 11.4155 6.05768 11.2978 6.1755L6.1755 11.2978C6.05768 11.4155 5.96421 11.5552 5.90044 11.709C5.83667 11.8629 5.80384 12.0277 5.80384 12.1943C5.80384 12.3608 5.83667 12.5257 5.90044 12.6795C5.96421 12.8333 6.05768 12.973 6.1755 13.0907L8.28353 15.1987C7.37902 16.7333 6.69269 18.3863 6.24432 20.1102H3.26772C2.93156 20.1104 2.60922 20.2441 2.37152 20.4818C2.13382 20.7195 2.00019 21.0418 2 21.378V28.622C2.00019 28.9582 2.13382 29.2805 2.37152 29.5182C2.60922 29.7559 2.93156 29.8896 3.26772 29.8898H6.24432C6.69269 31.6137 7.37902 33.2667 8.28353 34.8013L6.1755 36.9093C6.05768 37.027 5.96421 37.1667 5.90044 37.3205C5.83667 37.4743 5.80384 37.6392 5.80384 37.8057C5.80384 37.9723 5.83667 38.1371 5.90044 38.291C5.96421 38.4448 6.05768 38.5845 6.1755 38.7022L11.2978 43.8245C11.4155 43.9423 11.5552 44.0358 11.709 44.0996C11.8629 44.1633 12.0277 44.1962 12.1943 44.1962C12.3608 44.1962 12.5257 44.1633 12.6795 44.0996C12.8333 44.0358 12.973 43.9423 13.0907 43.8245L15.1987 41.7165C16.7333 42.621 18.3863 43.3073 20.1102 43.7557V46.7323C20.1104 47.0684 20.2441 47.3908 20.4818 47.6285C20.7195 47.8662 21.0418 47.9998 21.378 48H28.622C28.9582 47.9998 29.2805 47.8662 29.5182 47.6285C29.7559 47.3908 29.8896 47.0684 29.8898 46.7323V43.7557C31.6137 43.3073 33.2667 42.621 34.8013 41.7165L36.9093 43.8245C37.027 43.9423 37.1667 44.0358 37.3205 44.0996C37.4743 44.1633 37.6392 44.1962 37.8057 44.1962C37.9723 44.1962 38.1371 44.1633 38.291 44.0996C38.4448 44.0358 38.5845 43.9423 38.7022 43.8245L43.8245 38.7022C43.9423 38.5845 44.0358 38.4448 44.0996 38.291C44.1633 38.1371 44.1962 37.9723 44.1962 37.8057C44.1962 37.6392 44.1633 37.4743 44.0996 37.3205C44.0358 37.1667 43.9423 37.027 43.8245 36.9093L41.7165 34.8013C42.621 33.2667 43.3073 31.6137 43.7557 29.8898H46.7323C47.0684 29.8896 47.3908 29.7559 47.6285 29.5182C47.8662 29.2805 47.9998 28.9582 48 28.622V21.378C47.9998 21.0418 47.8662 20.7195 47.6285 20.4818C47.3908 20.2441 47.0684 20.1104 46.7323 20.1102ZM25 38.5827C22.3136 38.5827 19.6875 37.7861 17.4539 36.2936C15.2202 34.8011 13.4793 32.6798 12.4512 30.1979C11.4232 27.716 11.1542 24.9849 11.6783 22.3502C12.2024 19.7154 13.496 17.2952 15.3956 15.3956C17.2952 13.496 19.7154 12.2024 22.3502 11.6783C24.9849 11.1542 27.716 11.4232 30.1979 12.4512C32.6798 13.4793 34.8011 15.2202 36.2936 17.4539C37.7861 19.6875 38.5827 22.3136 38.5827 25C38.5787 28.6011 37.1463 32.0536 34.6 34.6C32.0536 37.1463 28.6011 38.5787 25 38.5827Z" fill="#014EFF"/>
<path d="M25.0006 13.9533C23.408 13.942 21.8321 14.2776 20.3824 14.9368C18.9326 15.596 17.6438 16.5629 16.6054 17.7705C15.567 18.978 14.804 20.3972 14.3694 21.9293C13.9349 23.4615 13.8391 25.0699 14.0888 26.6428L16.9002 24.066C17.0266 23.9502 17.1752 23.8611 17.337 23.8044C17.4988 23.7476 17.6705 23.7243 17.8415 23.7358C18.0126 23.7473 18.1796 23.7934 18.3323 23.8714C18.4851 23.9493 18.6204 24.0574 18.7301 24.1892L21.4633 27.4686L27.0108 21.9218H25.725C25.3888 21.9218 25.0663 21.7882 24.8286 21.5505C24.5908 21.3127 24.4573 20.9903 24.4573 20.6541C24.4573 20.3178 24.5908 19.9954 24.8286 19.7577C25.0663 19.5199 25.3888 19.3863 25.725 19.3863H30.0715C30.238 19.3863 30.4029 19.419 30.5567 19.4827C30.7106 19.5463 30.8503 19.6397 30.9681 19.7574C31.0858 19.8752 31.1792 20.015 31.2429 20.1688C31.3065 20.3227 31.3393 20.4876 31.3392 20.6541V25.0005C31.3392 25.3367 31.2056 25.6592 30.9679 25.8969C30.7301 26.1347 30.4077 26.2682 30.0715 26.2682C29.7352 26.2682 29.4128 26.1347 29.175 25.8969C28.9373 25.6592 28.8037 25.3367 28.8037 25.0005V23.7147L22.2754 30.2438C22.1508 30.3683 22.0016 30.4654 21.8374 30.5291C21.6731 30.5928 21.4974 30.6215 21.3215 30.6136C21.1455 30.6056 20.9732 30.5611 20.8154 30.4828C20.6576 30.4045 20.5178 30.2943 20.4049 30.159L17.6333 26.8326L14.8589 29.3745C15.6485 31.2049 16.9188 32.7875 18.5349 33.9544C20.1511 35.1214 22.053 35.8292 24.0389 36.0029C26.0247 36.1765 28.0206 35.8095 29.8148 34.9408C31.609 34.0721 33.1347 32.734 34.23 31.0684C35.3253 29.4029 35.9495 27.4719 36.0364 25.4804C36.1233 23.4888 35.6696 21.5109 34.7234 19.7563C33.7772 18.0017 32.3739 16.5359 30.6621 15.5142C28.9504 14.4926 26.994 13.9532 25.0006 13.9533Z" fill="#014EFF"/>
</svg>
