<svg width="50" height="50" viewBox="0 0 50 50" fill="none" xmlns="http://www.w3.org/2000/svg">
<path d="M17.0515 32.8201C15.7445 33.8421 14.6874 35.1485 13.9606 36.6401C13.2338 38.1317 12.8563 39.7692 12.8569 41.4284V44.714H6.28562C4.46758 44.714 3 43.2464 3 41.4284V39.238C3 34.9995 6.42799 31.5715 10.6664 31.5715H12.8569C14.412 31.5715 15.8468 32.0315 17.0515 32.8201Z" fill="#014EFF"/>
<path d="M38.0476 31.5717C40.7695 31.5717 42.976 29.3652 42.976 26.6433C42.976 23.9214 40.7695 21.7148 38.0476 21.7148C35.3257 21.7148 33.1191 23.9214 33.1191 26.6433C33.1191 29.3652 35.3257 31.5717 38.0476 31.5717Z" fill="#014EFF"/>
<path d="M11.7624 31.5717C14.4843 31.5717 16.6908 29.3652 16.6908 26.6433C16.6908 23.9214 14.4843 21.7148 11.7624 21.7148C9.04052 21.7148 6.83398 23.9214 6.83398 26.6433C6.83398 29.3652 9.04052 31.5717 11.7624 31.5717Z" fill="#014EFF"/>
<path d="M46.8093 39.2377V41.4281C46.8093 43.2462 45.3417 44.7138 43.5237 44.7138H36.9525V41.4281C36.9525 37.9344 35.3096 34.8241 32.7578 32.8198C33.9625 32.0313 35.3973 31.5713 36.9525 31.5713H39.1429C43.3813 31.5713 46.8093 34.9993 46.8093 39.2377Z" fill="#014EFF"/>
<path d="M26.0005 32.6671H23.8101C18.9791 32.6671 15.0484 36.5978 15.0484 41.4288V44.7144C15.0484 46.5259 16.5226 48 18.334 48H31.4765C33.288 48 34.7621 46.5259 34.7621 44.7144V41.4288C34.7621 36.5978 30.8314 32.6671 26.0005 32.6671ZM40.7857 16.9881L38.143 17.9278C37.9696 17.9895 37.7839 18.0079 37.6018 17.9816C37.4196 17.9553 37.2467 17.8851 37.0978 17.7769C36.949 17.6687 36.8288 17.5259 36.7475 17.3608C36.6663 17.1957 36.6265 17.0133 36.6316 16.8293L36.7083 14.0256L34.9976 11.8023C34.8855 11.6564 34.8106 11.4855 34.7794 11.3041C34.7481 11.1228 34.7615 10.9367 34.8183 10.7617C34.8752 10.5867 34.9737 10.4282 35.1055 10.2998C35.2373 10.1714 35.3983 10.077 35.5748 10.0248L38.2657 9.23189L39.8515 6.91772C39.9555 6.76592 40.095 6.64176 40.2577 6.55596C40.4205 6.47017 40.6017 6.42533 40.7857 6.42533C40.9697 6.42533 41.151 6.47017 41.3138 6.55596C41.4765 6.64176 41.616 6.76592 41.72 6.91772L43.3058 9.23189L45.9967 10.0248C46.7601 10.2493 47.0591 11.1715 46.5739 11.8023L44.8632 14.0256L44.9399 16.8293C44.9447 17.0132 44.9048 17.1954 44.8235 17.3604C44.7421 17.5254 44.6219 17.6681 44.4732 17.7762C44.3244 17.8843 44.1515 17.9546 43.9695 17.981C43.7875 18.0075 43.6018 17.9892 43.4285 17.9278L40.7857 16.9881ZM9.02477 16.9881L6.38204 17.9278C6.20867 17.9895 6.02289 18.0079 5.84078 17.9816C5.65867 17.9553 5.48571 17.8851 5.33687 17.7769C5.18802 17.6687 5.06778 17.5259 4.98655 17.3608C4.90532 17.1957 4.86554 17.0133 4.87065 16.8293L4.94732 14.0256L3.23661 11.8023C3.12452 11.6564 3.04963 11.4855 3.0184 11.3041C2.98717 11.1228 3.00055 10.9367 3.05737 10.7617C3.11418 10.5867 3.21274 10.4282 3.34453 10.2998C3.47631 10.1714 3.63737 10.077 3.81378 10.0248L6.5047 9.23189L8.09056 6.91772C8.19456 6.76592 8.33398 6.64176 8.49676 6.55596C8.65954 6.47017 8.84077 6.42533 9.02477 6.42533C9.20877 6.42533 9.39001 6.47017 9.55278 6.55596C9.71556 6.64176 9.85498 6.76592 9.95898 6.91772L11.5448 9.23189L14.2358 10.0248C14.9991 10.2493 15.2981 11.1715 14.8129 11.8023L13.1022 14.0256L13.1789 16.8293C13.1837 17.0132 13.1438 17.1954 13.0625 17.3604C12.9812 17.5254 12.861 17.6681 12.7122 17.7762C12.5634 17.8843 12.3906 17.9546 12.2086 17.981C12.0266 18.0075 11.8409 17.9892 11.6675 17.9278L9.02477 16.9881ZM24.9053 14.5239L21.7719 15.6378C21.5663 15.7108 21.3461 15.7326 21.1303 15.7014C20.9144 15.6702 20.7094 15.5869 20.5329 15.4587C20.3565 15.3305 20.214 15.1612 20.1176 14.9655C20.0213 14.7698 19.9741 14.5536 19.9801 14.3355L20.071 11.0116L18.0427 8.37544C17.9098 8.20246 17.8211 7.99975 17.7841 7.7848C17.7471 7.56985 17.763 7.34913 17.8304 7.14169C17.8977 6.93425 18.0146 6.74634 18.1709 6.59416C18.3271 6.44199 18.5181 6.33014 18.7272 6.26826L21.9175 5.32748L23.798 2.58399C23.9213 2.40396 24.0866 2.25669 24.2797 2.15494C24.4727 2.05318 24.6876 2 24.9058 2C25.124 2 25.3389 2.05318 25.532 2.15494C25.725 2.25669 25.8903 2.40396 26.0136 2.58399L27.8941 5.32748L31.0844 6.26826C31.2936 6.33014 31.4845 6.44199 31.6408 6.59416C31.797 6.74634 31.9139 6.93425 31.9813 7.14169C32.0486 7.34913 32.0645 7.56985 32.0275 7.7848C31.9905 7.99975 31.9018 8.20246 31.7689 8.37544L29.7406 11.0116L29.8315 14.3355C29.8375 14.5536 29.7903 14.7698 29.694 14.9655C29.5977 15.1612 29.4551 15.3305 29.2787 15.4587C29.1022 15.5869 28.8972 15.6702 28.6814 15.7014C28.4655 15.7326 28.2453 15.7108 28.0397 15.6378L24.9053 14.5239Z" fill="#014EFF"/>
</svg>
