<svg width="50" height="50" viewBox="0 0 50 50" fill="none" xmlns="http://www.w3.org/2000/svg">
<path d="M25.0436 31.707C28.8221 31.707 31.8851 28.6843 31.8851 24.9556C31.8851 21.2268 28.8221 18.2041 25.0436 18.2041C21.2652 18.2041 18.2021 21.2268 18.2021 24.9556C18.2021 28.6843 21.2652 31.707 25.0436 31.707Z" fill="#014EFF"/>
<path d="M41.3397 20.9048H41.258C40.178 20.9048 39.2839 20.2995 38.8633 19.2868C38.5336 18.4903 38.5019 17.3194 39.4686 16.3515C39.9855 15.8227 39.9815 14.9762 39.458 14.4526L35.6392 10.6338C35.1315 10.1275 34.1769 10.1842 33.6719 10.6905C32.9097 11.4514 31.8495 11.6624 30.8342 11.2404C30.0376 10.9107 29.0971 10.1051 29.0971 8.75215C29.0971 8.0058 28.4931 7.40186 27.7468 7.40186H22.3456C21.5992 7.40186 20.9953 8.08753 20.9953 8.83389C20.9953 9.91385 20.3 10.8079 19.286 11.2286C18.4909 11.5543 17.3186 11.5872 16.352 10.6233C15.8232 10.1051 14.9767 10.1104 14.4531 10.6338L10.6343 14.4526C10.1069 14.9801 10.1636 15.8926 10.691 16.42C11.4545 17.1848 11.6603 18.245 11.2422 19.2564C10.9112 20.0529 10.1055 20.9048 8.75264 20.9048C8.00629 20.9048 7.40234 21.5087 7.40234 22.2551V27.6563C7.40234 28.4026 8.08802 29.0065 8.83437 29.0065C9.91434 29.0065 10.8097 29.6118 11.2291 30.6258C11.5587 31.421 11.5904 32.5919 10.6238 33.5598C10.1069 34.0886 10.1109 34.9351 10.6343 35.4587L14.4531 39.2775C14.9595 39.7852 15.9141 39.7258 16.4205 39.2208C17.1827 38.4573 18.2403 38.2463 19.2582 38.671C20.0548 39.0006 20.9953 39.8963 20.9953 41.2492C20.9953 41.9956 21.5992 42.5995 22.3456 42.5995H27.7468C28.4931 42.5995 29.0971 41.9138 29.0971 41.1675C29.0971 40.0875 29.7924 39.1022 30.8064 38.6828C31.5989 38.3505 32.7711 38.3214 33.7404 39.288C34.2691 39.8063 35.1144 39.801 35.6392 39.2775L39.458 35.4587C39.9855 34.9313 39.9288 34.0187 39.4013 33.4913C38.655 32.745 38.4374 31.6347 38.8475 30.6576C39.2629 29.6554 40.2097 29.0066 41.3398 29.0066C42.0862 29.0066 42.6901 28.4027 42.6901 27.6563V22.2552C42.69 21.5087 42.0861 20.9048 41.3397 20.9048ZM25.0462 34.4077C19.834 34.4077 15.5041 30.1678 15.5041 24.9557C15.5041 19.7435 19.834 15.5036 25.0462 15.5036C30.2583 15.5036 34.5883 19.7435 34.5883 24.9557C34.5883 30.1678 30.2583 34.4077 25.0462 34.4077Z" fill="#014EFF"/>
<path d="M44.891 16.1043C44.1921 16.3667 43.84 17.146 44.1012 17.8435C44.9556 20.1182 45.3894 22.5102 45.3894 24.955C45.3894 36.1239 36.2139 45.2994 25.045 45.2994C19.6346 45.2994 14.4318 43.1022 10.6064 39.2768C10.4177 39.0877 10.1771 38.959 9.91507 38.9069C9.65306 38.8547 9.38148 38.8816 9.13477 38.9841C8.88797 39.0861 8.67702 39.2592 8.52866 39.4812C8.38029 39.7033 8.30119 39.9644 8.30137 40.2315V44.0517C8.30137 44.798 8.90531 45.4019 9.65166 45.4019C10.398 45.4019 11.002 44.798 11.002 44.0517V43.2077C14.983 46.2578 19.9458 48 25.045 48C37.7027 48 48.09 37.6126 48.09 24.955C48.09 22.1845 47.5982 19.4721 46.6303 16.8941C46.3679 16.1939 45.5832 15.8471 44.891 16.1043ZM40.441 4.50804C39.8001 4.49354 39.0911 5.10937 39.0899 5.85572L39.0885 6.71279C35.1036 3.65618 30.1389 2 25.045 2C12.3874 2 2 12.2973 2 24.955C2 27.7254 2.49187 30.4379 3.45976 33.0159C3.72351 33.7152 4.50164 34.0659 5.19903 33.8057C5.89794 33.5433 6.25 32.764 5.98886 32.0664C5.13439 29.7917 4.70059 27.3997 4.70059 24.955C4.70059 13.7861 13.8761 4.70059 25.045 4.70059C30.4448 4.70059 35.6451 6.81047 39.477 10.6398C39.866 11.0275 40.4489 11.1462 40.9473 10.9326C41.194 10.8309 41.405 10.6584 41.5535 10.4368C41.7021 10.2152 41.7816 9.95454 41.782 9.68776L41.7887 5.86103C41.79 5.11468 41.1861 4.50939 40.441 4.50804Z" fill="#014EFF"/>
</svg>
