<svg width="50" height="50" viewBox="0 0 50 50" fill="none" xmlns="http://www.w3.org/2000/svg">
<path fill-rule="evenodd" clip-rule="evenodd" d="M32.0345 23.7948H9.39473C8.15914 23.7948 7.15747 22.7931 7.15747 21.5575V14.0696C7.15747 12.834 8.15914 11.8324 9.39473 11.8324H20.4499C21.8335 14.8918 24.9168 17.0291 28.4832 17.0291C32.0495 17.0291 35.1318 14.8918 36.5146 11.8324H39.6203C40.8559 11.8324 41.8576 12.834 41.8576 14.0696V21.5575C41.8576 22.7494 40.9256 23.7235 39.7507 23.791V21.0856C39.7507 18.9627 38.0177 17.2253 35.8947 17.2253C33.7727 17.2253 32.0345 18.9636 32.0345 21.0856V23.7948ZM10.887 16.7876H20.0733C20.5062 16.7876 20.8576 16.4361 20.8576 16.0033C20.8576 15.5703 20.5062 15.219 20.0733 15.219H10.887C10.4541 15.219 10.1027 15.5703 10.1027 16.0033C10.1027 16.4361 10.4541 16.7876 10.887 16.7876ZM10.887 20.4082H27.7633C28.1962 20.4082 28.5476 20.0567 28.5476 19.6239C28.5476 19.191 28.1962 18.8396 27.7633 18.8396H10.887C10.4541 18.8396 10.1027 19.191 10.1027 19.6239C10.1027 20.0567 10.4541 20.4082 10.887 20.4082ZM36.9859 45.4061H22.02C21.9979 45.357 21.9736 45.3088 21.9471 45.2618C21.4656 44.4019 21.242 43.5592 21.242 42.5746V32.9824C21.242 31.843 22.175 30.9143 23.3101 30.9143C23.9894 30.9143 24.5913 31.241 24.9697 31.7484V31.4045C24.9697 30.2393 25.9199 29.2848 27.085 29.2848C27.9191 29.2848 28.6415 29.7706 28.9897 30.4757C29.0112 29.2117 30.056 28.1884 31.3201 28.1884C32.438 28.1884 33.3752 28.9796 33.6032 30.0329V21.0856C33.6032 19.8258 34.635 18.794 35.8947 18.794C37.1545 18.794 38.1821 19.8258 38.1821 21.0856V31.9634L38.9733 31.9849C41.252 32.0407 42.8428 33.4553 42.8428 35.7341L42.4859 39.7498C42.3527 41.2675 41.4025 42.437 40.0868 43.2023L37.7607 44.5566C37.4057 44.7636 37.1417 45.0569 36.9859 45.4061ZM22.1836 46.9748H36.8235V49.0196H22.1836V46.9748ZM28.4832 15.4604C24.4953 15.4604 21.242 12.2093 21.242 8.22152C21.242 4.23368 24.4953 0.980347 28.4832 0.980347C32.471 0.980347 35.7221 4.23368 35.7221 8.22152C35.7221 12.2093 32.471 15.4604 28.4832 15.4604ZM27.5327 8.85878L25.9146 7.24074C25.4955 6.82162 24.815 6.82162 24.396 7.24074C23.9769 7.66201 23.9769 8.34035 24.396 8.75937L26.7744 11.14C27.1935 11.5591 27.8739 11.5591 28.2931 11.14C29.7275 9.70554 31.1445 8.25603 32.5725 6.81515C32.9894 6.39388 32.9873 5.71564 32.5682 5.29868C32.149 4.88172 31.4687 4.88388 31.0517 5.30299L27.5327 8.85878Z" fill="#014EFF"/>
</svg>
