<svg width="50" height="50" viewBox="0 0 50 50" fill="none" xmlns="http://www.w3.org/2000/svg">
<g clip-path="url(#clip0_93_6538)">
<path d="M25.5208 4.16667H23.2291C22.5416 1.77083 20.3333 0 17.7083 0C15.0833 0 12.8749 1.77083 12.1874 4.16667H9.89575C9.04159 4.16667 8.33325 4.875 8.33325 5.72917V8.85417C8.33325 10.8542 9.97909 12.5 11.9791 12.5H23.4374C25.4374 12.5 27.0833 10.8542 27.0833 8.85417V5.72917C27.0833 4.875 26.3749 4.16667 25.5208 4.16667Z" fill="#014EFF"/>
<path d="M29.6875 6.25H29.1667V8.85417C29.1667 12.0208 26.6042 14.5833 23.4375 14.5833H11.9792C8.8125 14.5833 6.25 12.0208 6.25 8.85417V6.25H5.72917C2.5625 6.25 0 8.8125 0 11.9792V38.0208C0 41.1875 2.5625 43.75 5.72917 43.75H21.1042L21.5625 41.1875C21.7708 40.0208 22.3125 38.9792 23.1458 38.125L24.8125 36.4583H7.8125C6.95833 36.4583 6.25 35.75 6.25 34.8958C6.25 34.0417 6.95833 33.3333 7.8125 33.3333H27.6042C27.7083 33.3333 27.7917 33.3333 27.8958 33.375H27.9167L35.4167 25.875V11.9792C35.4167 8.8125 32.8542 6.25 29.6875 6.25ZM27.6042 29.6875H7.8125C6.95833 29.6875 6.25 28.9792 6.25 28.125C6.25 27.2708 6.95833 26.5625 7.8125 26.5625H27.6042C28.4583 26.5625 29.1667 27.2708 29.1667 28.125C29.1667 28.9792 28.4583 29.6875 27.6042 29.6875ZM27.6042 22.9167H7.8125C6.95833 22.9167 6.25 22.2083 6.25 21.3542C6.25 20.5 6.95833 19.7917 7.8125 19.7917H27.6042C28.4583 19.7917 29.1667 20.5 29.1667 21.3542C29.1667 22.2083 28.4583 22.9167 27.6042 22.9167ZM26.0979 50C25.8695 50.0006 25.6437 49.9509 25.4366 49.8546C25.2294 49.7582 25.046 49.6175 24.8993 49.4424C24.7526 49.2672 24.6462 49.062 24.5877 48.8412C24.5291 48.6204 24.5198 48.3894 24.5604 48.1646L25.6646 41.9042C25.7205 41.5887 25.8718 41.2978 26.0979 41.0708L41.5667 25.6042C43.4667 23.7 45.3333 24.2146 46.3542 25.2354L48.9312 27.8125C49.2698 28.1511 49.5384 28.553 49.7217 28.9953C49.9049 29.4377 49.9992 29.9118 49.9992 30.3906C49.9992 30.8694 49.9049 31.3436 49.7217 31.7859C49.5384 32.2283 49.2698 32.6302 48.9312 32.9688L33.4625 48.4375C33.2366 48.6652 32.9453 48.8167 32.6292 48.8708L26.3687 49.975C26.2794 49.9916 26.1888 49.9999 26.0979 50Z" fill="#014EFF"/>
</g>
<defs>
<clipPath id="clip0_93_6538">
<rect width="50" height="50" fill="white"/>
</clipPath>
</defs>
</svg>
