<svg width="24" height="25" viewBox="0 0 24 25" fill="none" xmlns="http://www.w3.org/2000/svg">
<g clip-path="url(#clip0_104_587)">
<path fill-rule="evenodd" clip-rule="evenodd" d="M12.6629 1.24219L16.352 4.93124C16.7166 5.29583 16.7166 5.89246 16.352 6.25705L12.6629 9.9461C12.2983 10.3107 11.7017 10.3107 11.3371 9.9461L7.64806 6.25705C7.28347 5.89246 7.28347 5.29583 7.64806 4.93124L11.3371 1.24219C11.7017 0.877602 12.2983 0.877602 12.6629 1.24219ZM0.742229 11.8371L4.43128 8.14803C4.79587 7.78343 5.39249 7.78343 5.75708 8.14803L9.44613 11.8371C9.81072 12.2017 9.81072 12.7983 9.44613 13.1629L5.75708 16.8519C5.39249 17.2165 4.79587 17.2165 4.43128 16.8519L0.742229 13.1629C0.37759 12.7983 0.37759 12.2017 0.742229 11.8371ZM11.3371 23.7578L7.64806 20.0687C7.28347 19.7041 7.28347 19.1075 7.64806 18.7429L11.3371 15.0539C11.7017 14.6893 12.2983 14.6893 12.6629 15.0539L16.352 18.7429C16.7166 19.1075 16.7166 19.7041 16.352 20.0687L12.6629 23.7578C12.2983 24.1224 11.7017 24.1224 11.3371 23.7578ZM23.2578 13.1629L19.5687 16.8519C19.2042 17.2165 18.6075 17.2165 18.2429 16.8519L14.5539 13.1629C14.1893 12.7983 14.1893 12.2017 14.5539 11.8371L18.2429 8.14803C18.6075 7.78343 19.2042 7.78343 19.5687 8.14803L23.2578 11.8371C23.6224 12.2017 23.6224 12.7983 23.2578 13.1629Z" stroke="white" stroke-miterlimit="22.9256" stroke-linecap="round" stroke-linejoin="round"/>
</g>
<defs>
<clipPath id="clip0_104_587">
<rect width="24" height="24" fill="white" transform="translate(0 0.5)"/>
</clipPath>
</defs>
</svg>
