<svg width="40" height="40" viewBox="0 0 40 40" fill="none" xmlns="http://www.w3.org/2000/svg">
<path d="M37.5529 24.9713V22.4467H25.9146C25.9146 25.7134 23.2664 28.3617 19.9996 28.3617C16.7328 28.3617 14.0846 25.7135 14.0846 22.4467H2.44629V24.9713L7.50004 25.5065C7.81112 26.7809 8.31643 27.9999 8.99824 29.1207L5.8023 33.0736L9.37269 36.644L13.3256 33.448C14.4464 34.1299 15.6654 34.6352 16.9398 34.9463L17.475 40H22.5242L23.0593 34.9463C24.3338 34.6352 25.5528 34.1299 26.6736 33.448L30.6264 36.644L34.1968 33.0736L31.0009 29.1207C31.6827 27.9999 32.188 26.7809 32.4991 25.5065L37.5529 24.9713ZM19.9996 0C17.4996 0 15.4657 2.03391 15.4657 4.53383C15.4657 7.03375 17.4996 9.06758 19.9996 9.06758C22.4995 9.06758 24.5334 7.03375 24.5334 4.53383C24.5334 2.03391 22.4995 0 19.9996 0ZM24.8267 10.321H15.1725C12.9499 10.3211 11.1417 12.1292 11.1417 14.3518V20.1029H28.8575V14.3518C28.8575 12.1292 27.0493 10.321 24.8267 10.321ZM10.3814 2.09438C8.14184 2.09438 6.31988 3.91641 6.31988 6.15586C6.31988 8.37734 8.11293 10.187 10.3277 10.2159C11.2449 9.14313 12.5104 8.37742 13.9482 8.09656C14.2735 7.50148 14.4436 6.83404 14.4429 6.15586C14.4429 3.91633 12.6209 2.09438 10.3814 2.09438ZM6.05715 11.3402C4.06613 11.3402 2.44629 12.9599 2.44629 14.951V20.103H8.79793V14.3518C8.79679 13.3006 9.0573 12.2656 9.55598 11.3402H6.05715ZM29.6178 2.09438C27.3782 2.09438 25.5563 3.91641 25.5563 6.15586C25.5555 6.83403 25.7256 7.50147 26.0508 8.09656C27.4887 8.37742 28.7543 9.14313 29.6714 10.2159C31.8862 10.187 33.6793 8.37734 33.6793 6.15586C33.6793 3.91633 31.8573 2.09438 29.6178 2.09438ZM33.942 11.3402H30.4432C30.9418 12.2656 31.2024 13.3006 31.2012 14.3518V20.1029H37.5529V14.9509C37.5529 12.9599 35.933 11.3402 33.942 11.3402Z" fill="white"/>
</svg>
