<svg width="46" height="46" viewBox="0 0 46 46" fill="none" xmlns="http://www.w3.org/2000/svg">
<path d="M26.0575 29.3296C26.0477 29.4124 26.0555 29.4964 26.0805 29.576C26.1055 29.6556 26.1471 29.729 26.2026 29.7913C26.258 29.8536 26.326 29.9035 26.4022 29.9376C26.4783 29.9717 26.5608 29.9893 26.6442 29.9892H28.5189C28.6631 29.9895 28.8024 29.9369 28.9105 29.8414C29.0186 29.746 29.088 29.6142 29.1056 29.4711L29.9961 22.3081C30.0528 21.8518 29.9891 21.3885 29.8112 20.9645C29.6334 20.5404 29.3476 20.1703 28.9824 19.8909L26.3465 17.8747L27.3967 13.0907L29.2349 14.3267C29.8208 14.7198 30.5716 14.7667 31.2017 14.4482L36.6062 11.7186C36.6786 11.682 36.7426 11.631 36.7944 11.5686C36.8461 11.5062 36.8845 11.4338 36.907 11.356C36.9296 11.2782 36.9358 11.1965 36.9255 11.1161C36.9151 11.0357 36.8882 10.9584 36.8466 10.8888L35.9145 9.33002C35.8392 9.20358 35.7195 9.10981 35.5786 9.0671C35.4378 9.02439 35.2861 9.03582 35.1533 9.09916L30.1367 11.4938L28.4755 10.2656C28.1861 10.0518 27.8509 9.90797 27.4965 9.84557L22.3671 8.94033C22.0101 8.87741 21.6433 8.89881 21.296 9.00282L17.5232 10.5104C16.9945 10.7216 16.5455 11.0935 16.2395 11.5736L14.3657 14.5133C14.2837 14.6418 14.2546 14.7971 14.2845 14.9466C14.3144 15.0961 14.4011 15.2282 14.5262 15.3152L15.8845 16.0269C15.95 16.0724 16.0239 16.1042 16.102 16.1203C16.18 16.1365 16.2605 16.1366 16.3386 16.1208C16.4167 16.105 16.4908 16.0735 16.5564 16.0283C16.622 15.9831 16.6778 15.925 16.7203 15.8577L18.3546 13.2739L21.4601 12.3608L18.5369 21.9965L13.8197 26.5878C13.7123 26.6926 13.6488 26.8344 13.6422 26.9844C13.6356 27.1343 13.6863 27.2812 13.7842 27.395L15.2536 29.1048C15.3058 29.1658 15.37 29.2154 15.4421 29.2507C15.5142 29.286 15.5927 29.3062 15.6729 29.3101C15.7531 29.314 15.8332 29.3015 15.9084 29.2734C15.9836 29.2452 16.0523 29.2021 16.1102 29.1465L21.1858 24.28L23.0128 19.3016L26.8942 22.1336L26.0575 29.3296Z" fill="#014EFF"/>
<path d="M25.9695 8.75729C27.7286 8.75729 29.1547 7.33119 29.1547 5.572C29.1547 3.81282 27.7286 2.38672 25.9695 2.38672C24.2103 2.38672 22.7842 3.81282 22.7842 5.572C22.7842 7.33119 24.2103 8.75729 25.9695 8.75729Z" fill="#014EFF"/>
<path d="M2.76855 38.9436V43.6131H12.2289V37.4595H4.25271C3.42818 37.4595 2.76855 38.1278 2.76855 38.9436ZM13.0969 35.7584V43.6131H22.5659V34.2742H14.581C13.7652 34.2742 13.0969 34.9425 13.0969 35.7584ZM23.4338 31.5142V43.6131H32.9029V30.0301H24.918C24.1021 30.0301 23.4338 30.6984 23.4338 31.5142ZM41.747 24.3799H35.255C34.4304 24.3799 33.7708 25.0482 33.7708 25.864V43.6131H43.2312V25.864C43.2312 25.0482 42.5629 24.3799 41.747 24.3799ZM39.1025 17.834C39.0861 17.8892 39.0808 17.9471 39.087 18.0044C39.0932 18.0616 39.1108 18.1171 39.1386 18.1675C39.1665 18.2179 39.2041 18.2622 39.2493 18.298C39.2944 18.3337 39.3462 18.3601 39.4017 18.3756C39.4572 18.391 39.5152 18.3953 39.5723 18.3882C39.6295 18.3811 39.6846 18.3626 39.7346 18.3339C39.7845 18.3053 39.8282 18.2669 39.8632 18.2212C39.8982 18.1754 39.9237 18.1232 39.9383 18.0675L40.4972 16.0643C40.5279 15.9537 40.5136 15.8354 40.4573 15.7354C40.401 15.6354 40.3074 15.5617 40.1969 15.5305L38.1946 14.9707C38.0838 14.9396 37.9652 14.9539 37.8648 15.0103C37.7645 15.0667 37.6906 15.1606 37.6596 15.2714C37.6285 15.3823 37.6427 15.5009 37.6991 15.6013C37.7555 15.7016 37.8495 15.7754 37.9603 15.8065L38.9124 16.073L32.8196 19.3268C32.7667 19.3521 32.7195 19.3879 32.6808 19.4319C32.6421 19.476 32.6128 19.5274 32.5945 19.5831C32.5762 19.6388 32.5694 19.6976 32.5745 19.756C32.5796 19.8144 32.5965 19.8712 32.6242 19.9229C32.6518 19.9746 32.6896 20.0201 32.7354 20.0568C32.7811 20.0935 32.8338 20.1205 32.8902 20.1363C32.9467 20.152 33.0058 20.1562 33.0639 20.1485C33.122 20.1408 33.178 20.1214 33.2284 20.0915L39.3906 16.8012L39.1025 17.834Z" fill="#014EFF"/>
</svg>
