<svg width="46" height="46" viewBox="0 0 46 46" fill="none" xmlns="http://www.w3.org/2000/svg">
<g clip-path="url(#clip0_99_8319)">
<path d="M44.6523 0H39.1719C38.427 0 37.8242 0.602762 37.8242 1.34766V2.69531H26.7947C26.2365 1.13005 24.7546 0 23 0C21.2454 0 19.7635 1.13005 19.2053 2.69531H8.17578V1.34766C8.17578 0.602762 7.57302 0 6.82812 0H1.34766C0.602762 0 0 0.602762 0 1.34766V6.73828C0 7.48318 0.602762 8.08594 1.34766 8.08594H6.82812C7.57302 8.08594 8.17578 7.48318 8.17578 6.73828V5.37266H13.7105C9.03352 8.29447 5.94963 13.4262 5.581 19.174C3.964 19.7033 2.78516 21.2085 2.78516 23C2.78516 25.2294 4.59874 27.043 6.82812 27.043C9.05751 27.043 10.8711 25.2294 10.8711 23C10.8711 21.2804 9.78749 19.8184 8.27102 19.2349C8.73084 12.8268 13.2022 7.42577 19.4218 5.88477C20.0945 7.18543 21.4373 8.08594 23 8.08594C24.5627 8.08594 25.9055 7.18543 26.5782 5.88477C32.7978 7.42568 37.2692 12.8267 37.729 19.2348C36.2125 19.8184 35.1289 21.2804 35.1289 23C35.1289 25.2294 36.9425 27.043 39.1719 27.043C41.4013 27.043 43.2148 25.2294 43.2148 23C43.2148 21.2085 42.036 19.7033 40.419 19.174C40.0504 13.4262 36.9665 8.31243 32.2895 5.39062H37.8242V6.73828C37.8242 7.48318 38.427 8.08594 39.1719 8.08594H44.6523C45.3972 8.08594 46 7.48318 46 6.73828V1.34766C46 0.602762 45.3972 0 44.6523 0ZM32.1686 44.3285C31.4636 42.1714 29.4328 40.5195 27.043 40.5195H18.957C16.5672 40.5195 14.5364 42.1714 13.8314 44.3285C13.5597 45.1601 14.2672 46 15.1423 46H30.8577C31.7327 46 32.4403 45.1601 32.1686 44.3285Z" fill="#014EFF"/>
<path d="M34.9025 27.6431L24.3477 11.8108V24.5959C25.9129 25.1541 27.043 26.636 27.043 28.3906C27.043 30.62 25.2294 32.4336 23 32.4336C20.7706 32.4336 18.957 30.62 18.957 28.3906C18.957 26.636 20.0871 25.1541 21.6524 24.5959V11.8108L11.0975 27.6431C10.7408 28.1774 10.8119 28.8895 11.266 29.3435C13.74 31.8176 15.3214 35.0048 15.9317 38.4236C16.8679 38.0438 17.8861 37.8242 18.957 37.8242H27.043C28.1139 37.8242 29.1321 38.0437 30.0683 38.4234C30.6786 35.0044 32.26 31.8176 34.7341 29.3435C35.1881 28.8895 35.2592 28.1774 34.9025 27.6431Z" fill="#014EFF"/>
<path d="M23 27.043C22.2565 27.043 21.6523 27.6471 21.6523 28.3906C21.6523 29.1342 22.2565 29.7383 23 29.7383C23.7435 29.7383 24.3477 29.1342 24.3477 28.3906C24.3477 27.6471 23.7435 27.043 23 27.043Z" fill="#014EFF"/>
</g>
<defs>
<clipPath id="clip0_99_8319">
<rect width="46" height="46" fill="white"/>
</clipPath>
</defs>
</svg>
