<svg width="50" height="50" viewBox="0 0 50 50" fill="none" xmlns="http://www.w3.org/2000/svg">
<path d="M38.3087 15.2438C38.0797 15.3957 37.8146 15.4845 37.5403 15.5012C37.2659 15.5179 36.9921 15.462 36.7462 15.3391L34.2869 14.1125L31.7775 14.7375C31.6125 14.7778 31.4418 14.7894 31.2728 14.7719C31.9517 15.4078 32.6267 16.0531 33.2892 16.7164C33.6408 17.0672 33.9845 17.4242 34.3283 17.7797L34.6845 18.0141L38.1478 18.7109L40.4197 17.4141C39.9791 16.5226 39.462 15.6709 38.8744 14.8688L38.3087 15.2438ZM38.9259 20.0617C38.6038 20.2436 38.2289 20.309 37.8642 20.2469L36.3478 19.943C37.4705 21.193 38.5392 22.4539 39.547 23.7227C40.2939 22.7258 40.997 21.7328 41.6564 20.7438C41.4913 20.102 41.2888 19.4705 41.0501 18.8523L38.9259 20.0617ZM34.1408 10.9375H30.8908L29.9853 12.2859L31.3915 13.2172L33.9009 12.5922C34.269 12.498 34.6589 12.5443 34.9947 12.7219L37.4415 13.9414L37.8861 13.6453C36.9432 12.5757 35.8721 11.6263 34.697 10.8188C34.5205 10.8924 34.3319 10.9327 34.1408 10.9375ZM42.1876 25C42.186 24.3069 42.1427 23.6145 42.058 22.9266C41.5639 23.627 41.0571 24.3182 40.5376 25C41.0573 25.6819 41.5641 26.3734 42.058 27.0742C42.1427 26.386 42.186 25.6934 42.1876 25ZM39.3908 34.3813C40.4226 32.8094 41.1881 31.0781 41.6564 29.257C41.0007 28.2675 40.2975 27.2742 39.547 26.2773C38.8376 27.1706 38.1001 28.0599 37.3345 28.9453L37.9689 29.7891C38.1701 30.0604 38.2796 30.3888 38.2814 30.7266V33.2734L39.3908 34.3813ZM36.3736 27.6656C37.1345 26.7802 37.8665 25.8917 38.5697 25C36.9736 22.9688 35.2103 20.9453 33.3236 18.9844L31.797 17.9688H29.3283L28.1806 19.6773L28.7658 22.0313L31.2158 22.6219L32.8986 22.075C33.1748 21.9873 33.4699 21.9779 33.7511 22.0478C34.0323 22.1177 34.2886 22.2643 34.4915 22.4711L35.4798 23.4516C35.7715 23.748 35.9357 24.1467 35.9376 24.5625V27.0859L36.3736 27.6656ZM20.1447 38.4375L21.0939 38.75V36.4203C21.0927 36.1298 21.1731 35.8449 21.3258 35.5978C21.4786 35.3507 21.6976 35.1514 21.958 35.0227L24.2189 33.8906L24.2275 32.5859C24.2297 32.2593 24.3342 31.9416 24.5263 31.6775C24.7185 31.4133 24.9885 31.216 25.2986 31.1133L26.6564 30.6633L27.0939 28.9063H26.1837C25.9249 28.9063 25.6701 28.8421 25.4423 28.7194C25.2144 28.5967 25.0206 28.4193 24.8783 28.2031L23.7978 26.5625H21.4197C21.0038 26.5604 20.6057 26.3936 20.3126 26.0984L18.6337 24.4L15.6251 26.2328V28.5828L16.8689 29.8266L17.8845 30.3352C18.1451 30.4638 18.3644 30.663 18.5174 30.9101C18.6704 31.1571 18.7511 31.4422 18.7501 31.7328V34.2578L20.1447 38.4375ZM38.465 35.6633L37.1744 34.375C36.8834 34.0821 36.7197 33.6863 36.7189 33.2734V30.7266L36.2759 30.1375C35.3068 31.2127 34.3101 32.2628 33.2869 33.2867C30.0903 36.5012 26.624 39.4357 22.9259 42.0578C25.8474 42.4197 28.8128 42.0212 31.5351 40.901C34.2574 39.7807 36.6444 37.9766 38.465 35.6633ZM21.0025 9.4086L20.4494 8.42891C17.6403 9.20668 15.074 10.6835 12.9902 12.7216C10.9064 14.7596 9.37291 17.2925 8.53296 20.0836L10.6634 22.818L14.0626 24.5211V23.0781L12.422 21.9781C12.2065 21.8349 12.0297 21.6408 11.907 21.413C11.7844 21.1851 11.7198 20.9306 11.7189 20.6719V19.3906C11.7188 19.0293 11.8439 18.679 12.0729 18.3996C12.302 18.1201 12.6208 17.9286 12.9751 17.8578L16.1525 17.2266L19.0189 15.7938L21.0861 13.0313C21.2958 12.7487 21.5957 12.5461 21.9361 12.457L24.5142 11.8125L24.8501 11.3125C24.4902 11.0325 24.1274 10.7562 23.7619 10.4836L22.1134 10.2078C21.8787 10.1707 21.6559 10.0791 21.4629 9.94028C21.27 9.80148 21.1123 9.61938 21.0025 9.4086ZM22.9267 7.94219C23.4163 8.28594 23.9072 8.64037 24.3994 9.00547L25.4931 9.19063C25.8826 9.25349 26.2337 9.46171 26.4757 9.77329C26.7177 10.0849 26.8325 10.4766 26.797 10.8695C27.3439 11.3117 27.8892 11.7648 28.433 12.2289C28.4409 11.9432 28.5271 11.6651 28.6822 11.425L29.5853 10.0781C29.7284 9.86266 29.9223 9.68578 30.15 9.56314C30.3777 9.4405 30.6321 9.37588 30.8908 9.375H32.147C29.9055 8.34426 27.4673 7.81121 25.0001 7.8125C24.307 7.81415 23.6146 7.85746 22.9267 7.94219Z" fill="#014EFF"/>
<path d="M35.3188 28.8634L34.6875 28.0235C34.4863 27.7522 34.3768 27.4238 34.375 27.086V24.5626L33.3797 23.5704L31.7024 24.1102C31.4172 24.2065 31.1097 24.2152 30.8196 24.1352L28.4016 23.5485C28.1246 23.4809 27.8712 23.3394 27.6684 23.1391C27.4656 22.9388 27.321 22.6871 27.25 22.411L26.6719 20.0532C26.6202 19.8463 26.6111 19.631 26.6451 19.4204C26.6791 19.2099 26.7554 19.0084 26.8696 18.8282L28.0227 17.1048C28.1664 16.8903 28.3606 16.7144 28.5882 16.5926C28.8159 16.4708 29.07 16.4068 29.3282 16.4063H30.7344C29.2337 14.9763 27.6787 13.6045 26.0727 12.2938L25.8118 12.6844C25.5993 13.0137 25.2655 13.2459 24.8828 13.3305L22.3282 13.9696L20.2633 16.7274C20.1226 16.9253 19.9346 17.0848 19.7164 17.1915L16.8461 18.6219C16.7289 18.6813 16.6048 18.7259 16.4766 18.7548L13.2813 19.3907V20.6719L14.9219 21.7719C15.1374 21.9152 15.3143 22.1093 15.4369 22.3371C15.5595 22.5649 15.6241 22.8195 15.625 23.0782V24.4063L17.8125 23.0704C18.1128 22.8871 18.4662 22.8106 18.8154 22.8531C19.1646 22.8956 19.4892 23.0548 19.7368 23.3048L21.4196 25.0001H23.7977C24.0566 24.9995 24.3116 25.0635 24.5395 25.1863C24.7674 25.309 24.9612 25.4867 25.1032 25.7032L26.1828 27.3438H27.0946C27.3319 27.3439 27.5661 27.398 27.7794 27.5021C27.9927 27.6062 28.1795 27.7575 28.3256 27.9446C28.4717 28.1316 28.5732 28.3495 28.6225 28.5817C28.6718 28.8138 28.6676 29.0542 28.6102 29.2845L28.1727 31.0407C28.1095 31.2964 27.9825 31.5319 27.8035 31.7251C27.6245 31.9183 27.3994 32.0629 27.1493 32.1454L25.7899 32.5969L25.7813 33.9016C25.7804 34.1903 25.6991 34.4729 25.5465 34.7179C25.3938 34.9628 25.1759 35.1604 24.9172 35.2884L22.6563 36.4204V38.7501C22.6564 38.9974 22.5978 39.2413 22.4854 39.4616C22.3729 39.6818 22.2097 39.8723 22.0092 40.0172C21.8088 40.1621 21.5768 40.2574 21.3324 40.2952C21.0879 40.3329 20.838 40.3121 20.6032 40.2344L19.6532 39.9219C19.423 39.8447 19.2138 39.7152 19.0421 39.5436C18.8704 39.372 18.7407 39.163 18.6633 38.9329L17.2657 34.7516C17.2127 34.5925 17.1863 34.4256 17.1875 34.2579V31.7329L16.1719 31.2243C16.0216 31.1491 15.8844 31.0502 15.7657 30.9313L14.5203 29.6876C14.2284 29.3939 14.0639 28.997 14.0625 28.5829V26.2329C14.0665 26.1805 14.0733 26.1283 14.0828 26.0766H14.0618C13.8201 26.076 13.5817 26.0201 13.3649 25.9134L9.96254 24.2063C9.75078 24.0996 9.56595 23.9463 9.42191 23.7579L8.07347 22.029C7.32125 26.294 8.20892 30.6858 10.5585 34.3239C12.9082 37.962 16.5461 40.5775 20.743 41.6462C24.8561 38.8729 28.6875 35.703 32.1821 32.1821C33.2578 31.1048 34.3038 29.9981 35.3188 28.8634Z" fill="#014EFF"/>
<path d="M20.7345 41.6563C21.4564 41.8404 22.1898 41.9761 22.9298 42.0625C22.3907 42.4375 21.8595 42.7969 21.3282 43.1485C15.7735 46.7813 10.8985 48.6719 7.3282 48.6719C6.52239 48.7192 5.71527 48.6047 4.95446 48.335C4.19366 48.0653 3.49459 47.6459 2.89851 47.1016C0.226636 44.4141 1.00007 38.7813 5.03914 31.6485L6.39851 32.4141C2.78914 38.8047 1.8907 43.875 4.00789 45.9922C6.43757 48.4219 12.9063 46.7969 20.4688 41.836C20.5548 41.7813 20.6485 41.7188 20.7345 41.6563ZM21.3282 6.85158C21.8595 7.20314 22.3907 7.56252 22.9298 7.93752C22.1898 8.02396 21.4564 8.15968 20.7345 8.34377C20.6485 8.28127 20.5548 8.21877 20.4688 8.16408C12.9063 3.21096 6.44539 1.57814 4.00789 4.00783C1.88289 6.13283 2.79695 11.2344 6.43757 17.6485L5.0782 18.4219C1.00789 11.25 0.211011 5.59377 2.89851 2.89846C5.97664 -0.164045 12.8673 1.31252 21.3282 6.85158ZM43.1485 28.6719C48.6876 37.1328 50.1641 44.0235 47.1016 47.1016C46.5049 47.6449 45.8058 48.0637 45.0451 48.3333C44.2845 48.603 43.4777 48.7181 42.672 48.6719C39.6798 48.6719 35.7501 47.336 31.2266 44.7188L32.0079 43.3672C38.5938 47.1797 43.8204 48.1641 45.9923 45.9922C48.422 43.5547 46.797 37.0938 41.836 29.5313L41.6563 29.2578C41.8404 28.5438 41.9761 27.8182 42.0626 27.086C42.4376 27.6172 42.8048 28.1485 43.1485 28.6719ZM32.4141 6.39846L31.6407 5.03908C38.7813 1.00002 44.4141 0.22658 47.1016 2.89846C50.1641 5.97658 48.6876 12.8672 43.1485 21.3281C42.8048 21.8516 42.4376 22.3828 42.0626 22.9141C41.9761 22.1818 41.8404 21.4562 41.6563 20.7422L41.836 20.4688C46.797 12.9063 48.422 6.44533 45.9923 4.00783C43.8751 1.89064 38.797 2.78908 32.4141 6.39846Z" fill="#014EFF"/>
</svg>
