<svg width="30" height="30" viewBox="0 0 30 30" fill="none" xmlns="http://www.w3.org/2000/svg">
<g clip-path="url(#clip0_133_2069)">
<path fill-rule="evenodd" clip-rule="evenodd" d="M15.8286 0.927743L20.44 5.53905C20.8957 5.99479 20.8957 6.74057 20.44 7.19631L15.8286 11.8076C15.3729 12.2634 14.6271 12.2634 14.1714 11.8076L9.56008 7.19631C9.10434 6.74057 9.10434 5.99479 9.56008 5.53905L14.1714 0.927743C14.6271 0.472002 15.3729 0.472002 15.8286 0.927743ZM0.927787 14.1713L5.5391 9.56003C5.99484 9.10429 6.74062 9.10429 7.19636 9.56003L11.8077 14.1713C12.2634 14.6271 12.2634 15.3729 11.8077 15.8286L7.19636 20.4399C6.74062 20.8957 5.99484 20.8957 5.5391 20.4399L0.927787 15.8286C0.471988 15.3729 0.471988 14.6271 0.927787 14.1713ZM14.1714 29.0722L9.56008 24.4609C9.10434 24.0052 9.10434 23.2594 9.56008 22.8036L14.1714 18.1923C14.6271 17.7366 15.3729 17.7366 15.8286 18.1923L20.44 22.8036C20.8957 23.2594 20.8957 24.0052 20.44 24.4609L15.8286 29.0722C15.3729 29.528 14.6271 29.528 14.1714 29.0722ZM29.0722 15.8286L24.4609 20.4399C24.0052 20.8957 23.2594 20.8957 22.8037 20.4399L18.1924 15.8286C17.7366 15.3729 17.7366 14.6271 18.1924 14.1713L22.8037 9.56003C23.2594 9.10429 24.0052 9.10429 24.4609 9.56003L29.0722 14.1713C29.528 14.6271 29.528 15.3729 29.0722 15.8286Z" stroke="#014EFF" stroke-width="1.2" stroke-miterlimit="22.9256" stroke-linecap="round" stroke-linejoin="round"/>
</g>
<defs>
<clipPath id="clip0_133_2069">
<rect width="30" height="30" fill="white"/>
</clipPath>
</defs>
</svg>
