<svg width="214" height="58" viewBox="0 0 214 58" fill="none" xmlns="http://www.w3.org/2000/svg">
<path d="M34.4818 26.5135C33.9033 27.0955 33.4604 27.7979 33.1844 28.5706C32.9085 29.3433 32.8063 30.1674 32.8853 30.9841L32.8578 30.9566C32.9389 31.918 32.8093 32.8855 32.478 33.7916C32.1466 34.6976 31.6215 35.5205 30.9393 36.2027C30.2571 36.8849 29.4342 37.41 28.5282 37.7413C27.6221 38.0727 26.6546 38.2023 25.6933 38.1212L25.7207 38.1486C24.5708 38.0416 23.4158 38.2919 22.4133 38.8653C21.4107 39.4387 20.6095 40.3074 20.1187 41.3528C19.6279 42.3983 19.4716 43.5697 19.6709 44.7073C19.8703 45.8449 20.4157 46.8933 21.2327 47.7096C22.0497 48.5259 23.0987 49.0703 24.2364 49.2687C25.3742 49.467 26.5455 49.3096 27.5905 48.8179C28.6355 48.3262 29.5035 47.5241 30.076 46.5211C30.6485 45.518 30.8977 44.3628 30.7896 43.213L30.8186 43.2404C30.7375 42.2791 30.8671 41.3116 31.1984 40.4055C31.5298 39.4994 32.0549 38.6766 32.7371 37.9944C33.4193 37.3122 34.2421 36.7871 35.1482 36.4557C36.0543 36.1244 37.0218 35.9948 37.9832 36.0759L37.9541 36.0484C38.8935 36.1329 39.839 35.9789 40.703 35.6007C41.567 35.2224 42.3215 34.6322 42.8967 33.8847C43.4719 33.1372 43.849 32.2566 43.9932 31.3246C44.1375 30.3925 44.044 29.4391 43.7217 28.5528C43.3993 27.6664 42.8584 26.8758 42.1491 26.2541C41.4398 25.6324 40.5851 25.1999 39.6641 24.9965C38.7431 24.7932 37.7857 24.8256 36.8806 25.0908C35.9755 25.356 35.152 25.8453 34.4864 26.5135H34.4818Z" fill="#737373"/>
<path d="M23.222 34.5494L23.193 34.522C24.01 34.6043 24.8352 34.504 25.6088 34.2284C26.3824 33.9527 27.085 33.5086 27.6659 32.9281C28.2468 32.3477 28.6915 31.6453 28.9677 30.872C29.2439 30.0986 29.3448 29.2735 29.2631 28.4564L29.2921 28.4839C29.211 27.5225 29.3406 26.555 29.6719 25.6489C30.0033 24.7429 30.5284 23.92 31.2106 23.2378C31.8928 22.5556 32.7156 22.0305 33.6217 21.6992C34.5278 21.3678 35.4953 21.2382 36.4566 21.3193L36.4276 21.2919C37.5777 21.3999 38.7331 21.1505 39.7362 20.5777C40.7393 20.0049 41.5413 19.1367 42.0328 18.0913C42.5243 17.046 42.6813 15.8745 42.4826 14.7366C42.2838 13.5988 41.7389 12.5499 40.9221 11.7331C40.1053 10.9163 39.0564 10.3714 37.9185 10.1726C36.7807 9.97384 35.6092 10.1309 34.5638 10.6224C33.5185 11.1139 32.6503 11.9159 32.0775 12.919C31.5047 13.9221 31.2553 15.0775 31.3633 16.2275L31.3359 16.1985C31.4173 17.16 31.2878 18.1275 30.9566 19.0338C30.6253 19.94 30.1002 20.7629 29.418 21.4452C28.7357 22.1274 27.9127 22.6525 27.0065 22.9838C26.1003 23.3151 25.1327 23.4445 24.1713 23.3631L24.1988 23.3921C23.3817 23.3097 22.5566 23.41 21.783 23.6857C21.0094 23.9613 20.3068 24.4054 19.7258 24.9859C19.1449 25.5664 18.7003 26.2687 18.4241 27.042C18.1478 27.8154 18.0469 28.6405 18.1286 29.4576L18.1012 29.4302C18.1821 30.3915 18.0522 31.3588 17.7208 32.2648C17.3893 33.1707 16.8642 33.9935 16.1821 34.6756C15.5 35.3578 14.6772 35.8829 13.7713 36.2143C12.8653 36.5458 11.8979 36.6756 10.9366 36.5947L10.9641 36.6222C9.81407 36.5142 8.6587 36.7636 7.65559 37.3363C6.65249 37.9091 5.8505 38.7774 5.35899 39.8227C4.86749 40.868 4.71041 42.0395 4.90918 43.1774C5.10796 44.3153 5.6529 45.3641 6.46969 46.1809C7.28647 46.9977 8.33534 47.5426 9.47321 47.7414C10.6111 47.9402 11.7826 47.7831 12.8279 47.2916C13.8732 46.8001 14.7415 45.9981 15.3143 44.995C15.887 43.9919 16.1364 42.8365 16.0284 41.6865L16.0574 41.714C15.9763 40.7526 16.1059 39.7851 16.4373 38.879C16.7686 37.973 17.2937 37.1501 17.9759 36.4679C18.6581 35.7857 19.481 35.2606 20.387 34.9293C21.2931 34.5979 22.2606 34.4683 23.222 34.5494Z" fill="#737373"/>
<path d="M12.9927 31.4861C13.5712 30.9042 14.0141 30.2018 14.2898 29.429C14.5655 28.6562 14.6673 27.8321 14.5877 27.0155L14.6167 27.0429C14.5355 26.0813 14.6652 25.1136 14.9967 24.2072C15.3282 23.3009 15.8536 22.4779 16.5361 21.7956C17.2187 21.1134 18.0419 20.5884 18.9484 20.2572C19.8549 19.9261 20.8227 19.7968 21.7843 19.8784L21.7553 19.8509C22.9049 19.9586 24.0598 19.7091 25.0625 19.1364C26.0651 18.5637 26.8667 17.6956 27.3579 16.6506C27.8491 15.6056 28.006 14.4345 27.8072 13.2971C27.6085 12.1596 27.0637 11.1112 26.2472 10.2947C25.4307 9.47819 24.3823 8.93342 23.2448 8.73466C22.1074 8.53589 20.9363 8.69281 19.8913 9.18402C18.8463 9.67522 17.9782 10.4768 17.4055 11.4794C16.8328 12.4821 16.5833 13.637 16.691 14.7866L16.6635 14.7592C16.7446 15.7205 16.615 16.688 16.2837 17.5941C15.9523 18.5002 15.4272 19.323 14.745 20.0052C14.0628 20.6874 13.24 21.2125 12.3339 21.5439C11.4278 21.8752 10.4603 22.0048 9.49896 21.9237L9.52643 21.9512C8.58709 21.8669 7.64169 22.0211 6.77782 22.3996C5.91395 22.778 5.15958 23.3683 4.5846 24.1159C4.00962 24.8634 3.63264 25.744 3.48859 26.6761C3.34455 27.6081 3.43809 28.5614 3.76057 29.4477C4.08304 30.334 4.624 31.1245 5.33333 31.746C6.04265 32.3676 6.89739 32.8 7.81833 33.0033C8.73928 33.2066 9.69663 33.1741 10.6017 32.9088C11.5067 32.6436 12.3302 32.1542 12.9957 31.4861H12.9927Z" fill="#737373"/>
<path d="M60.2734 16.2627H64.8066V38.3225H60.2734V16.2627Z" fill="#737373"/>
<path d="M67.3738 30.7692C67.3674 29.1839 67.8317 27.6323 68.7078 26.3111C69.584 24.9899 70.8325 23.9584 72.2953 23.3474C73.7581 22.7363 75.3694 22.5731 76.925 22.8785C78.4806 23.1839 79.9106 23.9441 81.0338 25.0628C82.157 26.1816 82.923 27.6085 83.2346 29.1629C83.5462 30.7173 83.3895 32.3292 82.7843 33.7944C82.1791 35.2596 81.1527 36.5123 79.835 37.3937C78.5173 38.2751 76.9676 38.7457 75.3823 38.7457C74.33 38.7577 73.2858 38.5598 72.3109 38.1636C71.3359 37.7674 70.4497 37.1808 69.7041 36.4381C68.9584 35.6955 68.3683 34.8116 67.9682 33.8382C67.568 32.8649 67.366 31.8215 67.3738 30.7692ZM78.8577 30.7692C78.8388 30.0858 78.6189 29.4232 78.2255 28.8642C77.8321 28.3052 77.2826 27.8745 76.6457 27.6261C76.0089 27.3777 75.3129 27.3225 74.6449 27.4674C73.9769 27.6124 73.3664 27.951 72.8897 28.441C72.4131 28.9311 72.0915 29.5507 71.9651 30.2225C71.8387 30.8943 71.9132 31.5885 72.1792 32.2182C72.4452 32.8479 72.8909 33.3853 73.4606 33.763C74.0303 34.1408 74.6987 34.3423 75.3823 34.3423C75.8505 34.3548 76.3161 34.2701 76.75 34.0937C77.1838 33.9172 77.5763 33.6528 77.9029 33.3171C78.2294 32.9814 78.4828 32.5817 78.6472 32.1432C78.8115 31.7046 78.8832 31.2368 78.8577 30.7692Z" fill="#737373"/>
<path d="M101.458 23.2137V37.5611C101.458 42.6376 97.4985 44.7836 93.4797 44.7836C92.0648 44.8895 90.648 44.6037 89.3847 43.9576C88.1214 43.3114 87.0605 42.3298 86.3183 41.1205L90.186 38.8844C90.4979 39.5148 90.995 40.0349 91.6106 40.375C92.2263 40.7152 92.9311 40.8592 93.6309 40.7878C94.0781 40.8497 94.5335 40.8103 94.9634 40.6725C95.3933 40.5347 95.7868 40.302 96.1146 39.9916C96.4425 39.6812 96.6963 39.301 96.8574 38.8793C97.0185 38.4575 97.0827 38.0049 97.0452 37.555V36.1737C96.5144 36.8232 95.8387 37.3392 95.0724 37.6804C94.3061 38.0215 93.4705 38.1783 92.6326 38.1381C90.639 38.0752 88.748 37.239 87.36 35.8065C85.972 34.374 85.1958 32.4576 85.1958 30.463C85.1958 28.4683 85.972 26.5519 87.36 25.1194C88.748 23.687 90.639 22.8508 92.6326 22.7879C93.4705 22.7477 94.3061 22.9045 95.0724 23.2456C95.8387 23.5867 96.5144 24.1028 97.0452 24.7523V23.2107L101.458 23.2137ZM97.0468 30.4653C97.0772 29.7347 96.8884 29.0118 96.5045 28.3894C96.1206 27.7671 95.5592 27.2739 94.8927 26.9733C94.2261 26.6727 93.4849 26.5785 92.7643 26.7028C92.0437 26.827 91.3769 27.1641 90.8495 27.6705C90.3221 28.177 89.9583 28.8297 89.805 29.5447C89.6517 30.2596 89.7159 31.0041 89.9893 31.6822C90.2627 32.3604 90.7327 32.9412 91.339 33.35C91.9453 33.7587 92.66 33.9767 93.3912 33.9758C93.8675 34.009 94.3455 33.9422 94.7944 33.7795C95.2432 33.6168 95.6531 33.3618 95.9974 33.0311C96.3418 32.7004 96.6131 32.3012 96.7938 31.8593C96.9745 31.4174 97.0607 30.9425 97.0468 30.4653Z" fill="#737373"/>
<path d="M104.025 30.7692C104.019 29.1839 104.483 27.6323 105.359 26.3111C106.235 24.9899 107.484 23.9584 108.947 23.3474C110.409 22.7363 112.021 22.5731 113.576 22.8785C115.132 23.1839 116.562 23.9441 117.685 25.0628C118.808 26.1816 119.574 27.6085 119.886 29.1629C120.198 30.7173 120.041 32.3292 119.436 33.7944C118.83 35.2596 117.804 36.5123 116.486 37.3937C115.169 38.2751 113.619 38.7457 112.034 38.7457C110.981 38.7577 109.937 38.5598 108.962 38.1636C107.987 37.7674 107.101 37.1808 106.355 36.4381C105.61 35.6955 105.02 34.8116 104.62 33.8382C104.219 32.8649 104.017 31.8215 104.025 30.7692ZM115.509 30.7692C115.49 30.0858 115.27 29.4232 114.877 28.8642C114.483 28.3052 113.934 27.8745 113.297 27.6261C112.66 27.3777 111.964 27.3225 111.296 27.4674C110.628 27.6124 110.018 27.951 109.541 28.441C109.064 28.9311 108.743 29.5507 108.616 30.2225C108.49 30.8943 108.565 31.5885 108.831 32.2182C109.097 32.8479 109.542 33.3853 110.112 33.763C110.682 34.1408 111.35 34.3423 112.034 34.3423C112.502 34.3548 112.968 34.2701 113.401 34.0937C113.835 33.9172 114.228 33.6528 114.554 33.3171C114.881 32.9814 115.134 32.5817 115.299 32.1432C115.463 31.7046 115.535 31.2368 115.509 30.7692Z" fill="#737373"/>
<path d="M122.156 19.1647C122.156 18.6268 122.316 18.1009 122.615 17.6536C122.914 17.2063 123.338 16.8577 123.835 16.6519C124.332 16.446 124.879 16.3921 125.407 16.4971C125.934 16.602 126.419 16.8611 126.799 17.2415C127.18 17.6219 127.439 18.1065 127.544 18.6341C127.649 19.1617 127.595 19.7086 127.389 20.2056C127.183 20.7026 126.835 21.1274 126.387 21.4262C125.94 21.7251 125.414 21.8846 124.876 21.8846C124.157 21.8775 123.469 21.5886 122.961 21.0801C122.452 20.5715 122.163 19.8839 122.156 19.1647ZM122.614 23.214H127.149V38.3246H122.608L122.614 23.214Z" fill="#737373"/>
<path d="M146.722 30.7692C146.775 31.7678 146.629 32.767 146.294 33.7092C145.959 34.6514 145.441 35.518 144.77 36.2593C144.099 37.0006 143.287 37.6019 142.383 38.0286C141.479 38.4553 140.499 38.699 139.5 38.7457C138.66 38.7915 137.82 38.6499 137.042 38.331C136.263 38.0121 135.565 37.5239 134.999 36.9019V44.3671H130.466V23.2139H134.999V24.6334C135.566 24.0118 136.263 23.5241 137.042 23.2055C137.82 22.8869 138.66 22.7453 139.5 22.7911C140.499 22.8376 141.479 23.0813 142.384 23.508C143.288 23.9347 144.1 24.5362 144.771 25.2777C145.442 26.0191 145.96 26.8861 146.295 27.8285C146.63 28.771 146.775 29.7704 146.722 30.7692ZM142.189 30.7692C142.171 30.062 141.946 29.3758 141.54 28.7963C141.134 28.2169 140.566 27.77 139.908 27.5117C139.249 27.2533 138.529 27.1949 137.838 27.3438C137.146 27.4927 136.514 27.8422 136.02 28.3487C135.526 28.8551 135.192 29.496 135.061 30.1911C134.93 30.8862 135.006 31.6046 135.281 32.2564C135.556 32.9082 136.017 33.4645 136.606 33.8556C137.196 34.2467 137.887 34.4553 138.595 34.4552C139.08 34.4769 139.565 34.3956 140.017 34.2167C140.469 34.0379 140.878 33.7655 141.218 33.4175C141.557 33.0694 141.819 32.6536 141.987 32.1972C142.154 31.7408 142.223 31.2541 142.189 30.7692Z" fill="#737373"/>
<path d="M160.711 33.7895C160.711 37.265 157.69 38.7455 154.427 38.7455C153.109 38.8649 151.785 38.5861 150.626 37.945C149.468 37.3039 148.529 36.3301 147.93 35.1495L151.857 32.9134C152.016 33.4592 152.357 33.9339 152.824 34.2583C153.29 34.5828 153.854 34.7373 154.421 34.6962C155.508 34.6962 156.053 34.3634 156.053 33.7605C156.053 32.0969 148.618 32.9745 148.618 27.7469C148.618 24.4515 151.399 22.7909 154.542 22.7909C155.723 22.7535 156.893 23.0337 157.929 23.6023C158.965 24.1709 159.83 25.0071 160.433 26.0236L156.566 28.1086C156.396 27.7128 156.114 27.3757 155.754 27.1393C155.394 26.9029 154.972 26.7776 154.542 26.7792C153.756 26.7792 153.272 27.0844 153.272 27.6247C153.278 29.348 160.711 28.1986 160.711 33.7895Z" fill="#737373"/>
<path d="M177.27 23.2139V38.3244H172.737V36.9034C172.214 37.5304 171.55 38.0245 170.799 38.345C170.048 38.6655 169.232 38.8033 168.417 38.7472C165.365 38.7472 162.77 36.5722 162.77 32.4893V23.2139H167.303V31.8253C167.265 32.1852 167.306 32.549 167.423 32.8915C167.54 33.2339 167.73 33.5468 167.98 33.8083C168.231 34.0698 168.535 34.2736 168.872 34.4056C169.209 34.5376 169.57 34.5947 169.931 34.5727C171.594 34.5727 172.741 33.6066 172.741 31.4606V23.2184L177.27 23.2139Z" fill="#737373"/>
<path d="M203.263 29.0458V38.3228H198.73V29.4381C198.73 27.927 198.005 26.9609 196.555 26.9609C195.044 26.9609 194.197 28.0186 194.197 29.8013V38.3228H189.665V29.4381C189.665 27.927 188.94 26.9609 187.489 26.9609C185.978 26.9609 185.132 28.0186 185.132 29.8013V38.3228H180.599V23.2122H185.132V24.6012C185.602 23.985 186.219 23.4963 186.926 23.1798C187.633 22.8634 188.409 22.7291 189.181 22.7894C189.957 22.7515 190.729 22.9152 191.423 23.2645C192.117 23.6139 192.708 24.1369 193.139 24.7828C193.641 24.1071 194.307 23.5699 195.073 23.2213C195.84 22.8727 196.682 22.7241 197.521 22.7894C200.99 22.791 203.263 25.2682 203.263 29.0458Z" fill="#737373"/>
<path d="M207.097 23.1206C208.955 23.1206 210.461 21.6145 210.461 19.7566C210.461 17.8987 208.955 16.3926 207.097 16.3926C205.239 16.3926 203.733 17.8987 203.733 19.7566C203.733 21.6145 205.239 23.1206 207.097 23.1206Z" fill="#737373"/>
</svg>
