<svg width="197" height="58" viewBox="0 0 197 58" fill="none" xmlns="http://www.w3.org/2000/svg">
<path d="M44.7984 22.4521C45.3479 22.4521 45.531 22.6506 45.531 23.1848V35.2732H51.7432C52.2774 35.2732 52.4758 35.4716 52.4758 36.0058V37.0743C52.4758 37.6085 52.2774 37.8069 51.7432 37.8069H43.5621C43.0279 37.8069 42.8142 37.6085 42.8142 37.0743V23.1848C42.8142 22.6506 43.0279 22.4521 43.5621 22.4521H44.7984Z" fill="#737373"/>
<path d="M57.894 27.7787C57.894 24.2529 60.1225 22.1313 63.9993 22.1313C67.8761 22.1313 70.1046 24.2529 70.1046 27.7787V32.4798C70.1046 36.0056 67.8609 38.1271 63.9993 38.1271C60.1377 38.1271 57.894 36.0056 57.894 32.4798V27.7787ZM67.5404 27.7787C67.5404 25.7945 66.304 24.7261 64.0756 24.7261C61.8472 24.7261 60.6261 25.8098 60.6261 27.7787V32.5103C60.6261 34.5098 61.8472 35.5629 64.0756 35.5629C66.304 35.5629 67.5404 34.464 67.5404 32.5103V27.7787Z" fill="#737373"/>
<path d="M88.2831 29.3966C88.8784 29.3966 89.0157 29.5951 89.0157 30.1293V33.0293C89.0319 33.7123 88.895 34.3904 88.615 35.0137C88.3351 35.637 87.9192 36.1897 87.3978 36.6314C86.103 37.6624 84.4705 38.1739 82.8189 38.0661C78.8657 38.0661 76.7136 35.9445 76.7136 32.4187V27.6872C76.7136 24.2072 78.942 22.0703 82.8189 22.0703C85.8715 22.0703 87.8557 23.2761 88.6952 25.6877C88.7422 25.7783 88.7673 25.8786 88.7687 25.9807C88.7701 26.0827 88.7477 26.1837 88.7033 26.2755C88.6588 26.3674 88.5936 26.4476 88.5127 26.5099C88.4318 26.5721 88.3375 26.6146 88.2373 26.634L87.0468 27.0461C86.5278 27.2293 86.3141 27.1224 86.131 26.5882C85.8782 25.9363 85.4152 25.3872 84.8154 25.0279C84.2155 24.6685 83.513 24.5193 82.8189 24.604C80.5752 24.604 79.3542 25.6877 79.3542 27.6566V32.5103C79.3542 34.5098 80.5905 35.5629 82.8189 35.5629C85.0473 35.5629 86.421 34.5403 86.421 33.0445V31.915H83.1089C82.5594 31.915 82.361 31.7014 82.361 31.1672V30.1293C82.361 29.5951 82.5594 29.3966 83.1089 29.3966H88.2831Z" fill="#737373"/>
<path d="M95.3193 27.7787C95.3193 24.2529 97.5478 22.1313 101.425 22.1313C105.301 22.1313 107.53 24.2529 107.53 27.7787V32.4798C107.53 36.0056 105.286 38.1271 101.425 38.1271C97.563 38.1271 95.3193 36.0056 95.3193 32.4798V27.7787ZM104.95 27.7787C104.95 25.7945 103.714 24.7261 101.501 24.7261C99.2877 24.7261 98.0362 25.8098 98.0362 27.7787V32.5103C98.0362 34.5098 99.2725 35.5629 101.501 35.5629C103.729 35.5629 104.95 34.464 104.95 32.5103V27.7787Z" fill="#737373"/>
<path d="M114.719 22.8948C114.719 22.559 114.826 22.4521 115.161 22.4521H115.863C116.199 22.4521 116.276 22.559 116.276 22.8948V37.3643C116.276 37.7 116.276 37.8069 115.863 37.8069H115.161C114.826 37.8069 114.719 37.7 114.719 37.3643V22.8948Z" fill="#737373"/>
<path d="M130.18 22.4521C131.452 22.4521 132.671 22.9571 133.569 23.8559C134.468 24.7547 134.973 25.9737 134.973 27.2448C134.973 28.5159 134.468 29.7349 133.569 30.6337C132.671 31.5325 131.452 32.0374 130.18 32.0374H125.602V37.3643C125.602 37.7 125.525 37.8069 125.205 37.8069H124.487C124.167 37.8069 124.045 37.7 124.045 37.3643V22.8948C124.045 22.559 124.167 22.4521 124.487 22.4521H130.18ZM130.043 30.5264C130.48 30.5264 130.913 30.4403 131.316 30.2731C131.72 30.1059 132.087 29.8608 132.396 29.5518C132.705 29.2428 132.95 28.876 133.117 28.4723C133.284 28.0686 133.37 27.6359 133.37 27.199C133.37 26.762 133.284 26.3294 133.117 25.9257C132.95 25.522 132.705 25.1552 132.396 24.8462C132.087 24.5372 131.72 24.2921 131.316 24.1249C130.913 23.9577 130.48 23.8716 130.043 23.8716H125.464V30.5264H130.043Z" fill="#737373"/>
<path d="M146.894 22.1465C148.072 22.0165 149.261 22.27 150.284 22.8694C151.307 23.4689 152.109 24.3822 152.572 25.4739C152.694 25.7181 152.572 25.9165 152.327 26.0386L151.656 26.3439C151.381 26.4507 151.274 26.4355 151.106 26.1455C150.761 25.3353 150.166 24.6561 149.409 24.2061C148.651 23.7561 147.771 23.5587 146.894 23.6423C144.314 23.6423 142.91 24.665 142.91 26.4965C142.895 27.0563 143.083 27.6026 143.439 28.0346C143.796 28.4666 144.296 28.7552 144.848 28.8471C145.669 29.1148 146.52 29.2789 147.382 29.3355C148.425 29.3911 149.454 29.602 150.435 29.9613C151.187 30.1992 151.834 30.6886 152.267 31.3473C152.701 32.0061 152.895 32.794 152.816 33.5786C152.816 36.4329 150.74 38.1576 146.924 38.1576C145.673 38.3008 144.41 38.0108 143.346 37.3359C142.282 36.661 141.482 35.642 141.078 34.4486C141.051 34.3942 141.037 34.3346 141.036 34.2739C141.035 34.2132 141.047 34.153 141.072 34.0975C141.096 34.0421 141.133 33.9929 141.179 33.9533C141.225 33.9137 141.279 33.8848 141.338 33.8686L142.009 33.6244C142.062 33.6028 142.119 33.5925 142.176 33.594C142.233 33.5955 142.29 33.6089 142.341 33.6333C142.393 33.6577 142.439 33.6926 142.476 33.7357C142.514 33.7789 142.542 33.8293 142.559 33.8839C142.9 34.7462 143.508 35.4773 144.292 35.9713C145.077 36.4652 145.999 36.6964 146.924 36.6313C149.809 36.6313 151.228 35.6239 151.228 33.5786C151.255 33.041 151.091 32.5113 150.764 32.0837C150.437 31.6561 149.969 31.3583 149.443 31.2434C148.653 31.0078 147.838 30.8644 147.016 30.816L145.367 30.6023C144.851 30.4928 144.342 30.3552 143.841 30.1902C143.346 30.0408 142.885 29.7972 142.483 29.4729C142.078 29.1062 141.759 28.655 141.547 28.1512C141.336 27.6474 141.239 27.1033 141.262 26.5576C141.368 23.8865 143.368 22.1465 146.894 22.1465Z" fill="#737373"/>
<path d="M161.043 32.5869C161.107 33.6663 161.582 34.6802 162.369 35.4215C163.156 36.1628 164.197 36.5757 165.278 36.5757C166.359 36.5757 167.4 36.1628 168.187 35.4215C168.974 34.6802 169.449 33.6663 169.514 32.5869V22.8948C169.514 22.559 169.62 22.4521 169.956 22.4521H170.658C170.994 22.4521 171.101 22.559 171.101 22.8948V32.5716C171.101 36.0364 169.056 38.1274 165.286 38.1274C161.516 38.1274 159.47 36.0364 159.47 32.5716V22.8948C159.47 22.559 159.577 22.4521 159.898 22.4521H160.615C160.936 22.4521 161.043 22.559 161.043 22.8948V32.5869Z" fill="#737373"/>
<path d="M192.164 22.4519C192.5 22.4519 192.607 22.5587 192.607 22.8945V37.364C192.607 37.6997 192.5 37.8066 192.164 37.8066H191.523C191.203 37.8066 191.096 37.6997 191.096 37.364V28.5571C191.095 27.2757 191.182 25.9957 191.355 24.7261H191.264C190.787 25.8871 190.231 27.0142 189.6 28.0992L186.318 33.884C186.278 33.9843 186.209 34.0701 186.119 34.1301C186.029 34.19 185.923 34.2213 185.815 34.2197H185.387C185.278 34.2203 185.17 34.1888 185.078 34.1292C184.986 34.0695 184.913 33.9843 184.868 33.884L181.541 28.0382C180.95 26.9686 180.44 25.8564 180.015 24.7108H179.923C180.079 25.9922 180.161 27.2815 180.167 28.5724V37.364C180.167 37.6997 180.06 37.8066 179.725 37.8066H179.129C178.794 37.8066 178.687 37.6997 178.687 37.364V22.8945C178.687 22.5587 178.794 22.4519 179.129 22.4519H179.679C179.804 22.4402 179.931 22.4676 180.04 22.5305C180.149 22.5933 180.236 22.6885 180.289 22.8029L185.632 32.2966L190.943 22.8945C191.111 22.574 191.203 22.5282 191.538 22.5282L192.164 22.4519Z" fill="#737373"/>
<path d="M17.6453 34.4183V45.4536C17.6453 45.8766 17.4773 46.2823 17.1781 46.5814C16.879 46.8805 16.4733 47.0486 16.0503 47.0486C15.6273 47.0486 15.2216 46.8805 14.9225 46.5814C14.6233 46.2823 14.4553 45.8766 14.4553 45.4536V34.4336C14.8994 34.7579 15.4319 34.9389 15.9816 34.9525C16.5809 34.9696 17.168 34.7811 17.6453 34.4183ZM31.2295 31.2283C30.8247 31.2283 30.4365 31.3891 30.1502 31.6753C29.864 31.9616 29.7032 32.3498 29.7032 32.7546V34.6778C29.7032 35.1008 29.8712 35.5065 30.1704 35.8056C30.4695 36.1047 30.8752 36.2728 31.2982 36.2728C31.7212 36.2728 32.1269 36.1047 32.426 35.8056C32.7251 35.5065 32.8932 35.1008 32.8932 34.6778V32.8309C32.9051 32.6121 32.8697 32.3932 32.7894 32.1893C32.7091 31.9853 32.5859 31.801 32.428 31.649C32.2702 31.4969 32.0814 31.3806 31.8746 31.308C31.6678 31.2354 31.4478 31.2082 31.2295 31.2283ZM10.9906 38.6004C10.4413 38.5839 9.90967 38.4032 9.46424 38.0815V49.1472C9.46424 49.5723 9.63309 49.9799 9.93364 50.2805C10.2342 50.581 10.6418 50.7499 11.0669 50.7499C11.4919 50.7499 11.8996 50.581 12.2001 50.2805C12.5007 49.9799 12.6695 49.5723 12.6695 49.1472V38.1578C12.1711 38.4799 11.583 38.635 10.9906 38.6004ZM26.2537 27.9162C26.047 27.9058 25.8402 27.9377 25.6462 28.0097C25.4521 28.0818 25.2747 28.1926 25.1248 28.3353C24.9749 28.4781 24.8555 28.6499 24.7741 28.8402C24.6927 29.0306 24.6508 29.2355 24.6511 29.4425V37.9441C24.6511 38.3691 24.8199 38.7768 25.1205 39.0773C25.421 39.3779 25.8287 39.5467 26.2537 39.5467C26.6788 39.5467 27.0864 39.3779 27.387 39.0773C27.6875 38.7768 27.8563 38.3691 27.8563 37.9441V29.5493C27.8685 29.3291 27.8328 29.1088 27.7516 28.9036C27.6705 28.6985 27.5458 28.5134 27.3862 28.3611C27.2267 28.2088 27.036 28.0928 26.8273 28.0213C26.6186 27.9498 26.3969 27.9243 26.1774 27.9467L26.2537 27.9162ZM21.1863 31.1825C20.6115 31.1786 20.0518 30.9973 19.5837 30.6636V41.7599C19.5837 42.1849 19.7526 42.5926 20.0531 42.8931C20.3537 43.1937 20.7613 43.3625 21.1863 43.3625C21.6114 43.3625 22.019 43.1937 22.3196 42.8931C22.6201 42.5926 22.789 42.1849 22.789 41.7599V30.6788C22.3048 31.0395 21.7137 31.2276 21.11 31.213L21.1863 31.1825ZM7.52582 39.6841V8.68461C7.5218 8.30675 7.36887 7.94573 7.10024 7.67996C6.83161 7.41418 6.46897 7.26512 6.09109 7.26514H5.75529C5.37741 7.26512 5.01477 7.41418 4.74614 7.67996C4.47751 7.94573 4.32458 8.30675 4.32056 8.68461V39.6841C4.32056 40.0646 4.47172 40.4295 4.74078 40.6986C5.00985 40.9677 5.37478 41.1188 5.75529 41.1188H6.09109C6.4716 41.1188 6.83653 40.9677 7.1056 40.6986C7.37466 40.4295 7.52582 40.0646 7.52582 39.6841ZM11.1585 37.4251H10.8227C10.4421 37.4251 10.0772 37.274 9.80815 37.0049C9.53908 36.7358 9.38793 36.3709 9.38793 35.9904V12.3783C9.39195 12.0004 9.54488 11.6394 9.81351 11.3736C10.0821 11.1079 10.4448 10.9588 10.8227 10.9588H11.1585C11.5363 10.9588 11.899 11.1079 12.1676 11.3736C12.4362 11.6394 12.5892 12.0004 12.5932 12.3783V36.0209C12.5932 36.4014 12.442 36.7664 12.173 37.0354C11.9039 37.3045 11.539 37.4557 11.1585 37.4557V37.4251ZM16.2106 33.7925H15.8595C15.483 33.7925 15.122 33.643 14.8558 33.3768C14.5896 33.1106 14.44 32.7495 14.44 32.373V16.0415C14.438 15.8538 14.4732 15.6675 14.5437 15.4936C14.6141 15.3196 14.7183 15.1613 14.8504 15.0279C14.9824 14.8944 15.1395 14.7885 15.3127 14.7162C15.486 14.6439 15.6718 14.6067 15.8595 14.6067H16.2106C16.5884 14.6107 16.9494 14.7637 17.2152 15.0323C17.481 15.3009 17.6301 15.6636 17.63 16.0415V32.373C17.63 32.7495 17.4805 33.1106 17.2143 33.3768C16.9481 33.643 16.587 33.7925 16.2106 33.7925ZM21.2627 30.053H20.9421C20.5642 30.0531 20.2016 29.904 19.933 29.6382C19.6644 29.3724 19.5114 29.0114 19.5074 28.6336V19.842C19.4949 19.646 19.5227 19.4495 19.5892 19.2648C19.6556 19.08 19.7593 18.9108 19.8938 18.7677C20.0283 18.6247 20.1908 18.5107 20.3711 18.4329C20.5514 18.3552 20.7458 18.3153 20.9421 18.3157H21.2779C21.6584 18.3157 22.0234 18.4668 22.2924 18.7359C22.5615 19.005 22.7127 19.3699 22.7127 19.7504V28.603C22.7147 28.7927 22.6791 28.9809 22.6079 29.1568C22.5367 29.3326 22.4313 29.4926 22.2979 29.6274C22.1644 29.7623 22.0056 29.8693 21.8305 29.9424C21.6555 30.0154 21.4676 30.053 21.2779 30.053H21.2627ZM26.33 26.7715H25.9942C25.6137 26.7715 25.2488 26.6203 24.9797 26.3512C24.7107 26.0822 24.5595 25.7172 24.5595 25.3367V23.0625C24.5635 22.6846 24.7165 22.3236 24.9851 22.0578C25.2537 21.7921 25.6164 21.643 25.9942 21.643H26.33C26.7079 21.643 27.0706 21.7921 27.3392 22.0578C27.6078 22.3236 27.7607 22.6846 27.7648 23.0625V25.3367C27.7648 25.7146 27.6157 26.0772 27.35 26.3459C27.0842 26.6145 26.7232 26.7674 26.3453 26.7715H26.33Z" fill="#737373"/>
</svg>
